<mxfile host="app.diagrams.net" modified="2024-01-11T13:10:52.464Z" agent="Mozilla/5.0 (X11; Linux x86_64) AppleWebKit/537.36 (KHTML, like Gecko) Chrome/119.0.0.0 Safari/537.36" etag="EbJgk_Ybhf6VZr4_XyvU" version="22.1.18" type="github">
  <diagram id="C5RBs43oDa-KdzZeNtuy" name="Page-1">
    <mxGraphModel dx="1655" dy="454" grid="1" gridSize="10" guides="1" tooltips="1" connect="1" arrows="1" fold="1" page="1" pageScale="1" pageWidth="827" pageHeight="1169" math="0" shadow="0">
      <root>
        <mxCell id="WIyWlLk6GJQsqaUBKTNV-0" />
        <mxCell id="WIyWlLk6GJQsqaUBKTNV-1" parent="WIyWlLk6GJQsqaUBKTNV-0" />
        <mxCell id="zkfFHV4jXpPFQw0GAbJ--0" value="lidarodom" style="swimlane;fontStyle=2;align=center;verticalAlign=top;childLayout=stackLayout;horizontal=1;startSize=26;horizontalStack=0;resizeParent=1;resizeLast=0;collapsible=1;marginBottom=0;rounded=0;shadow=0;strokeWidth=1;" parent="WIyWlLk6GJQsqaUBKTNV-1" vertex="1">
          <mxGeometry x="100" y="120" width="400" height="1228" as="geometry">
            <mxRectangle x="220" y="120" width="160" height="26" as="alternateBounds" />
          </mxGeometry>
        </mxCell>
        <mxCell id="zkfFHV4jXpPFQw0GAbJ--1" value="- config_yaml_: std::string 配置文件路径" style="text;align=left;verticalAlign=top;spacingLeft=4;spacingRight=4;overflow=hidden;rotatable=0;points=[[0,0.5],[1,0.5]];portConstraint=eastwest;" parent="zkfFHV4jXpPFQw0GAbJ--0" vertex="1">
          <mxGeometry y="26" width="400" height="26" as="geometry" />
        </mxCell>
        <mxCell id="-YqU8lc6YnFRLqplRP0o-2" value="- TIL_: SE3 T_imu_lidar lidar转换到imu系" style="text;align=left;verticalAlign=top;spacingLeft=4;spacingRight=4;overflow=hidden;rotatable=0;points=[[0,0.5],[1,0.5]];portConstraint=eastwest;" vertex="1" parent="zkfFHV4jXpPFQw0GAbJ--0">
          <mxGeometry y="52" width="400" height="26" as="geometry" />
        </mxCell>
        <mxCell id="-YqU8lc6YnFRLqplRP0o-1" value="- measures_: MeasureGroup 同步数据(该代码中只有lidar与ts)" style="text;align=left;verticalAlign=top;spacingLeft=4;spacingRight=4;overflow=hidden;rotatable=0;points=[[0,0.5],[1,0.5]];portConstraint=eastwest;" vertex="1" parent="zkfFHV4jXpPFQw0GAbJ--0">
          <mxGeometry y="78" width="400" height="26" as="geometry" />
        </mxCell>
        <mxCell id="zkfFHV4jXpPFQw0GAbJ--2" value="- index_frame: int 帧索引" style="text;align=left;verticalAlign=top;spacingLeft=4;spacingRight=4;overflow=hidden;rotatable=0;points=[[0,0.5],[1,0.5]];portConstraint=eastwest;rounded=0;shadow=0;html=0;" parent="zkfFHV4jXpPFQw0GAbJ--0" vertex="1">
          <mxGeometry y="104" width="400" height="26" as="geometry" />
        </mxCell>
        <mxCell id="zkfFHV4jXpPFQw0GAbJ--3" value="- options_: liwOptions 用于保存加载的参数 " style="text;align=left;verticalAlign=top;spacingLeft=4;spacingRight=4;overflow=hidden;rotatable=0;points=[[0,0.5],[1,0.5]];portConstraint=eastwest;rounded=0;shadow=0;html=0;" parent="zkfFHV4jXpPFQw0GAbJ--0" vertex="1">
          <mxGeometry y="130" width="400" height="26" as="geometry" />
        </mxCell>
        <mxCell id="-YqU8lc6YnFRLqplRP0o-86" value="- voxel_map: voxelHashMap  " style="text;align=left;verticalAlign=top;spacingLeft=4;spacingRight=4;overflow=hidden;rotatable=0;points=[[0,0.5],[1,0.5]];portConstraint=eastwest;rounded=0;shadow=0;html=0;" vertex="1" parent="zkfFHV4jXpPFQw0GAbJ--0">
          <mxGeometry y="156" width="400" height="26" as="geometry" />
        </mxCell>
        <mxCell id="-YqU8lc6YnFRLqplRP0o-87" value="- R_imu_lidar: Eigen::Matrix3d    R_imu_lidar 旋转矩阵 " style="text;align=left;verticalAlign=top;spacingLeft=4;spacingRight=4;overflow=hidden;rotatable=0;points=[[0,0.5],[1,0.5]];portConstraint=eastwest;rounded=0;shadow=0;html=0;" vertex="1" parent="zkfFHV4jXpPFQw0GAbJ--0">
          <mxGeometry y="182" width="400" height="26" as="geometry" />
        </mxCell>
        <mxCell id="-YqU8lc6YnFRLqplRP0o-96" value="Eigen- t_imu_lidar: Eigen::Vector3d   t_imu_lidar 平移量&#xa;  " style="text;align=left;verticalAlign=top;spacingLeft=4;spacingRight=4;overflow=hidden;rotatable=0;points=[[0,0.5],[1,0.5]];portConstraint=eastwest;rounded=0;shadow=0;html=0;" vertex="1" parent="zkfFHV4jXpPFQw0GAbJ--0">
          <mxGeometry y="208" width="400" height="26" as="geometry" />
        </mxCell>
        <mxCell id="-YqU8lc6YnFRLqplRP0o-97" value="- laser_point_cov: double " style="text;align=left;verticalAlign=top;spacingLeft=4;spacingRight=4;overflow=hidden;rotatable=0;points=[[0,0.5],[1,0.5]];portConstraint=eastwest;rounded=0;shadow=0;html=0;" vertex="1" parent="zkfFHV4jXpPFQw0GAbJ--0">
          <mxGeometry y="234" width="400" height="26" as="geometry" />
        </mxCell>
        <mxCell id="-YqU8lc6YnFRLqplRP0o-98" value="std- lidar_buffer_: std::deque&lt;std::vector&lt;point3D&gt;&gt; 用于存放lidar的队列  " style="text;align=left;verticalAlign=top;spacingLeft=4;spacingRight=4;overflow=hidden;rotatable=0;points=[[0,0.5],[1,0.5]];portConstraint=eastwest;rounded=0;shadow=0;html=0;" vertex="1" parent="zkfFHV4jXpPFQw0GAbJ--0">
          <mxGeometry y="260" width="400" height="26" as="geometry" />
        </mxCell>
        <mxCell id="-YqU8lc6YnFRLqplRP0o-99" value="- last_timestamp_lidar_: double 记录上一帧lidar的时间戳 " style="text;align=left;verticalAlign=top;spacingLeft=4;spacingRight=4;overflow=hidden;rotatable=0;points=[[0,0.5],[1,0.5]];portConstraint=eastwest;rounded=0;shadow=0;html=0;" vertex="1" parent="zkfFHV4jXpPFQw0GAbJ--0">
          <mxGeometry y="286" width="400" height="26" as="geometry" />
        </mxCell>
        <mxCell id="-YqU8lc6YnFRLqplRP0o-109" value="- time_buffer_: std::deque&lt;std::pair&lt;double, double&gt;&gt; &#xa;                        用于存放lidar帧时间戳的队列(时间戳，一帧扫描时间) " style="text;align=left;verticalAlign=top;spacingLeft=4;spacingRight=4;overflow=hidden;rotatable=0;points=[[0,0.5],[1,0.5]];portConstraint=eastwest;rounded=0;shadow=0;html=0;" vertex="1" parent="zkfFHV4jXpPFQw0GAbJ--0">
          <mxGeometry y="312" width="400" height="38" as="geometry" />
        </mxCell>
        <mxCell id="-YqU8lc6YnFRLqplRP0o-101" value="- mtx_buf: std::mutex 锁，用于处理lidar_buffer的数据加锁 " style="text;align=left;verticalAlign=top;spacingLeft=4;spacingRight=4;overflow=hidden;rotatable=0;points=[[0,0.5],[1,0.5]];portConstraint=eastwest;rounded=0;shadow=0;html=0;" vertex="1" parent="zkfFHV4jXpPFQw0GAbJ--0">
          <mxGeometry y="350" width="400" height="26" as="geometry" />
        </mxCell>
        <mxCell id="-YqU8lc6YnFRLqplRP0o-102" value="- cond: std::condition_variable   " style="text;align=left;verticalAlign=top;spacingLeft=4;spacingRight=4;overflow=hidden;rotatable=0;points=[[0,0.5],[1,0.5]];portConstraint=eastwest;rounded=0;shadow=0;html=0;" vertex="1" parent="zkfFHV4jXpPFQw0GAbJ--0">
          <mxGeometry y="376" width="400" height="26" as="geometry" />
        </mxCell>
        <mxCell id="-YqU8lc6YnFRLqplRP0o-103" value="- current_state: 用于保存加载的参数 " style="text;align=left;verticalAlign=top;spacingLeft=4;spacingRight=4;overflow=hidden;rotatable=0;points=[[0,0.5],[1,0.5]];portConstraint=eastwest;rounded=0;shadow=0;html=0;" vertex="1" parent="zkfFHV4jXpPFQw0GAbJ--0">
          <mxGeometry y="402" width="400" height="26" as="geometry" />
        </mxCell>
        <mxCell id="-YqU8lc6YnFRLqplRP0o-104" value="- all_state_frame: 用于保存加载的参数 " style="text;align=left;verticalAlign=top;spacingLeft=4;spacingRight=4;overflow=hidden;rotatable=0;points=[[0,0.5],[1,0.5]];portConstraint=eastwest;rounded=0;shadow=0;html=0;" vertex="1" parent="zkfFHV4jXpPFQw0GAbJ--0">
          <mxGeometry y="428" width="400" height="26" as="geometry" />
        </mxCell>
        <mxCell id="-YqU8lc6YnFRLqplRP0o-105" value="- pub_cloud_to_ros: 用于传递的发布点云的函数对象 " style="text;align=left;verticalAlign=top;spacingLeft=4;spacingRight=4;overflow=hidden;rotatable=0;points=[[0,0.5],[1,0.5]];portConstraint=eastwest;rounded=0;shadow=0;html=0;" vertex="1" parent="zkfFHV4jXpPFQw0GAbJ--0">
          <mxGeometry y="454" width="400" height="26" as="geometry" />
        </mxCell>
        <mxCell id="-YqU8lc6YnFRLqplRP0o-106" value="- pub_pose_to_ros: 用于传递的发布位姿的函数对象 " style="text;align=left;verticalAlign=top;spacingLeft=4;spacingRight=4;overflow=hidden;rotatable=0;points=[[0,0.5],[1,0.5]];portConstraint=eastwest;rounded=0;shadow=0;html=0;" vertex="1" parent="zkfFHV4jXpPFQw0GAbJ--0">
          <mxGeometry y="480" width="400" height="26" as="geometry" />
        </mxCell>
        <mxCell id="-YqU8lc6YnFRLqplRP0o-107" value="- pub_data_to_ros: 用于传递的发布运动状态(速度、距离)的函数对象 " style="text;align=left;verticalAlign=top;spacingLeft=4;spacingRight=4;overflow=hidden;rotatable=0;points=[[0,0.5],[1,0.5]];portConstraint=eastwest;rounded=0;shadow=0;html=0;" vertex="1" parent="zkfFHV4jXpPFQw0GAbJ--0">
          <mxGeometry y="506" width="400" height="26" as="geometry" />
        </mxCell>
        <mxCell id="-YqU8lc6YnFRLqplRP0o-108" value="- points_world:  保存当前帧转到世界系的点云" style="text;align=left;verticalAlign=top;spacingLeft=4;spacingRight=4;overflow=hidden;rotatable=0;points=[[0,0.5],[1,0.5]];portConstraint=eastwest;rounded=0;shadow=0;html=0;" vertex="1" parent="zkfFHV4jXpPFQw0GAbJ--0">
          <mxGeometry y="532" width="400" height="28" as="geometry" />
        </mxCell>
        <mxCell id="zkfFHV4jXpPFQw0GAbJ--4" value="" style="line;html=1;strokeWidth=1;align=left;verticalAlign=middle;spacingTop=-1;spacingLeft=3;spacingRight=3;rotatable=0;labelPosition=right;points=[];portConstraint=eastwest;" parent="zkfFHV4jXpPFQw0GAbJ--0" vertex="1">
          <mxGeometry y="560" width="400" height="8" as="geometry" />
        </mxCell>
        <mxCell id="zkfFHV4jXpPFQw0GAbJ--5" value="+ init(): 读取yaml，初始化参数" style="text;align=left;verticalAlign=top;spacingLeft=4;spacingRight=4;overflow=hidden;rotatable=0;points=[[0,0.5],[1,0.5]];portConstraint=eastwest;" parent="zkfFHV4jXpPFQw0GAbJ--0" vertex="1">
          <mxGeometry y="568" width="400" height="26" as="geometry" />
        </mxCell>
        <mxCell id="-YqU8lc6YnFRLqplRP0o-4" value="+ pushData(): 把当前帧点云数据加入lidar_buffer_，&#xa;                       pair(时间，lidar一帧扫描时间)加入time_buffer_" style="text;align=left;verticalAlign=top;spacingLeft=4;spacingRight=4;overflow=hidden;rotatable=0;points=[[0,0.5],[1,0.5]];portConstraint=eastwest;" vertex="1" parent="zkfFHV4jXpPFQw0GAbJ--0">
          <mxGeometry y="594" width="400" height="40" as="geometry" />
        </mxCell>
        <mxCell id="-YqU8lc6YnFRLqplRP0o-3" value="+ run(): 该类启动总接口" style="text;align=left;verticalAlign=top;spacingLeft=4;spacingRight=4;overflow=hidden;rotatable=0;points=[[0,0.5],[1,0.5]];portConstraint=eastwest;" vertex="1" parent="zkfFHV4jXpPFQw0GAbJ--0">
          <mxGeometry y="634" width="400" height="30" as="geometry" />
        </mxCell>
        <mxCell id="-YqU8lc6YnFRLqplRP0o-5" value="+ getIndex(): 返回处理帧的索引index_frame" style="text;align=left;verticalAlign=top;spacingLeft=4;spacingRight=4;overflow=hidden;rotatable=0;points=[[0,0.5],[1,0.5]];portConstraint=eastwest;" vertex="1" parent="zkfFHV4jXpPFQw0GAbJ--0">
          <mxGeometry y="664" width="400" height="30" as="geometry" />
        </mxCell>
        <mxCell id="-YqU8lc6YnFRLqplRP0o-8" value="+ setFunc(): 传入外部发布消息的函数(发布点云、位姿、运动状态)" style="text;align=left;verticalAlign=top;spacingLeft=4;spacingRight=4;overflow=hidden;rotatable=0;points=[[0,0.5],[1,0.5]];portConstraint=eastwest;" vertex="1" parent="zkfFHV4jXpPFQw0GAbJ--0">
          <mxGeometry y="694" width="400" height="30" as="geometry" />
        </mxCell>
        <mxCell id="-YqU8lc6YnFRLqplRP0o-9" value="- loadOptions(): 读取yaml，对结构体liwOptions赋值" style="text;align=left;verticalAlign=top;spacingLeft=4;spacingRight=4;overflow=hidden;rotatable=0;points=[[0,0.5],[1,0.5]];portConstraint=eastwest;" vertex="1" parent="zkfFHV4jXpPFQw0GAbJ--0">
          <mxGeometry y="724" width="400" height="30" as="geometry" />
        </mxCell>
        <mxCell id="-YqU8lc6YnFRLqplRP0o-24" style="edgeStyle=orthogonalEdgeStyle;rounded=0;orthogonalLoop=1;jettySize=auto;html=1;exitX=0;exitY=0.5;exitDx=0;exitDy=0;" edge="1" parent="zkfFHV4jXpPFQw0GAbJ--0" source="-YqU8lc6YnFRLqplRP0o-7">
          <mxGeometry relative="1" as="geometry">
            <mxPoint x="-70" y="374.80952380952374" as="targetPoint" />
          </mxGeometry>
        </mxCell>
        <mxCell id="-YqU8lc6YnFRLqplRP0o-7" value="- getMeasureMents(): 从lidar_buffer_、time_buffer_中拿数据存到&#xa;                                    std::vector&lt;MeasureGroup&gt;，取出的数据从&#xa;                                    buffer中弹出" style="text;align=left;verticalAlign=top;spacingLeft=4;spacingRight=4;overflow=hidden;rotatable=0;points=[[0,0.5],[1,0.5]];portConstraint=eastwest;" vertex="1" parent="zkfFHV4jXpPFQw0GAbJ--0">
          <mxGeometry y="754" width="400" height="50" as="geometry" />
        </mxCell>
        <mxCell id="-YqU8lc6YnFRLqplRP0o-6" value="- ProcessMeasurements(): 处理一帧同步数据" style="text;align=left;verticalAlign=top;spacingLeft=4;spacingRight=4;overflow=hidden;rotatable=0;points=[[0,0.5],[1,0.5]];portConstraint=eastwest;" vertex="1" parent="zkfFHV4jXpPFQw0GAbJ--0">
          <mxGeometry y="804" width="400" height="30" as="geometry" />
        </mxCell>
        <mxCell id="-YqU8lc6YnFRLqplRP0o-11" value="- stateInitialization(): 返回处理帧的索引index_frame" style="text;align=left;verticalAlign=top;spacingLeft=4;spacingRight=4;overflow=hidden;rotatable=0;points=[[0,0.5],[1,0.5]];portConstraint=eastwest;" vertex="1" parent="zkfFHV4jXpPFQw0GAbJ--0">
          <mxGeometry y="834" width="400" height="30" as="geometry" />
        </mxCell>
        <mxCell id="-YqU8lc6YnFRLqplRP0o-12" value="- buildFrame(): 返回处理帧的索引index_frame" style="text;align=left;verticalAlign=top;spacingLeft=4;spacingRight=4;overflow=hidden;rotatable=0;points=[[0,0.5],[1,0.5]];portConstraint=eastwest;" vertex="1" parent="zkfFHV4jXpPFQw0GAbJ--0">
          <mxGeometry y="864" width="400" height="30" as="geometry" />
        </mxCell>
        <mxCell id="-YqU8lc6YnFRLqplRP0o-13" value="- poseEstimation(): 返回处理帧的索引index_frame" style="text;align=left;verticalAlign=top;spacingLeft=4;spacingRight=4;overflow=hidden;rotatable=0;points=[[0,0.5],[1,0.5]];portConstraint=eastwest;" vertex="1" parent="zkfFHV4jXpPFQw0GAbJ--0">
          <mxGeometry y="894" width="400" height="30" as="geometry" />
        </mxCell>
        <mxCell id="-YqU8lc6YnFRLqplRP0o-14" value="- optimize(): 返回处理帧的索引index_frame" style="text;align=left;verticalAlign=top;spacingLeft=4;spacingRight=4;overflow=hidden;rotatable=0;points=[[0,0.5],[1,0.5]];portConstraint=eastwest;" vertex="1" parent="zkfFHV4jXpPFQw0GAbJ--0">
          <mxGeometry y="924" width="400" height="30" as="geometry" />
        </mxCell>
        <mxCell id="-YqU8lc6YnFRLqplRP0o-15" value="- lasermap_fov_segment(): 返回处理帧的索引index_frame" style="text;align=left;verticalAlign=top;spacingLeft=4;spacingRight=4;overflow=hidden;rotatable=0;points=[[0,0.5],[1,0.5]];portConstraint=eastwest;" vertex="1" parent="zkfFHV4jXpPFQw0GAbJ--0">
          <mxGeometry y="954" width="400" height="30" as="geometry" />
        </mxCell>
        <mxCell id="-YqU8lc6YnFRLqplRP0o-16" value="- map_incremental(): 返回处理帧的索引index_frame" style="text;align=left;verticalAlign=top;spacingLeft=4;spacingRight=4;overflow=hidden;rotatable=0;points=[[0,0.5],[1,0.5]];portConstraint=eastwest;" vertex="1" parent="zkfFHV4jXpPFQw0GAbJ--0">
          <mxGeometry y="984" width="400" height="30" as="geometry" />
        </mxCell>
        <mxCell id="-YqU8lc6YnFRLqplRP0o-17" value="- addPointToMap(): 返回处理帧的索引index_frame" style="text;align=left;verticalAlign=top;spacingLeft=4;spacingRight=4;overflow=hidden;rotatable=0;points=[[0,0.5],[1,0.5]];portConstraint=eastwest;" vertex="1" parent="zkfFHV4jXpPFQw0GAbJ--0">
          <mxGeometry y="1014" width="400" height="30" as="geometry" />
        </mxCell>
        <mxCell id="-YqU8lc6YnFRLqplRP0o-18" value="- addSurfCostFactor(): 返回处理帧的索引index_frame" style="text;align=left;verticalAlign=top;spacingLeft=4;spacingRight=4;overflow=hidden;rotatable=0;points=[[0,0.5],[1,0.5]];portConstraint=eastwest;" vertex="1" parent="zkfFHV4jXpPFQw0GAbJ--0">
          <mxGeometry y="1044" width="400" height="30" as="geometry" />
        </mxCell>
        <mxCell id="-YqU8lc6YnFRLqplRP0o-19" value="- addPointToPcl(): 返回处理帧的索引index_frame" style="text;align=left;verticalAlign=top;spacingLeft=4;spacingRight=4;overflow=hidden;rotatable=0;points=[[0,0.5],[1,0.5]];portConstraint=eastwest;" vertex="1" parent="zkfFHV4jXpPFQw0GAbJ--0">
          <mxGeometry y="1074" width="400" height="30" as="geometry" />
        </mxCell>
        <mxCell id="-YqU8lc6YnFRLqplRP0o-20" value="- computeNeighborhoodDistribution(): 返回处理帧的索引index_frame" style="text;align=left;verticalAlign=top;spacingLeft=4;spacingRight=4;overflow=hidden;rotatable=0;points=[[0,0.5],[1,0.5]];portConstraint=eastwest;" vertex="1" parent="zkfFHV4jXpPFQw0GAbJ--0">
          <mxGeometry y="1104" width="400" height="30" as="geometry" />
        </mxCell>
        <mxCell id="-YqU8lc6YnFRLqplRP0o-21" value="- searchNeighbors(): 返回处理帧的索引index_frame" style="text;align=left;verticalAlign=top;spacingLeft=4;spacingRight=4;overflow=hidden;rotatable=0;points=[[0,0.5],[1,0.5]];portConstraint=eastwest;" vertex="1" parent="zkfFHV4jXpPFQw0GAbJ--0">
          <mxGeometry y="1134" width="400" height="30" as="geometry" />
        </mxCell>
        <mxCell id="-YqU8lc6YnFRLqplRP0o-22" value="- r2SO3(): 返回处理帧的索引index_frame" style="text;align=left;verticalAlign=top;spacingLeft=4;spacingRight=4;overflow=hidden;rotatable=0;points=[[0,0.5],[1,0.5]];portConstraint=eastwest;" vertex="1" parent="zkfFHV4jXpPFQw0GAbJ--0">
          <mxGeometry y="1164" width="400" height="30" as="geometry" />
        </mxCell>
        <mxCell id="zkfFHV4jXpPFQw0GAbJ--17" value="Address" style="swimlane;fontStyle=0;align=center;verticalAlign=top;childLayout=stackLayout;horizontal=1;startSize=26;horizontalStack=0;resizeParent=1;resizeLast=0;collapsible=1;marginBottom=0;rounded=0;shadow=0;strokeWidth=1;" parent="WIyWlLk6GJQsqaUBKTNV-1" vertex="1">
          <mxGeometry x="710" y="120" width="160" height="216" as="geometry">
            <mxRectangle x="550" y="140" width="160" height="26" as="alternateBounds" />
          </mxGeometry>
        </mxCell>
        <mxCell id="zkfFHV4jXpPFQw0GAbJ--18" value="Street" style="text;align=left;verticalAlign=top;spacingLeft=4;spacingRight=4;overflow=hidden;rotatable=0;points=[[0,0.5],[1,0.5]];portConstraint=eastwest;" parent="zkfFHV4jXpPFQw0GAbJ--17" vertex="1">
          <mxGeometry y="26" width="160" height="26" as="geometry" />
        </mxCell>
        <mxCell id="zkfFHV4jXpPFQw0GAbJ--19" value="City" style="text;align=left;verticalAlign=top;spacingLeft=4;spacingRight=4;overflow=hidden;rotatable=0;points=[[0,0.5],[1,0.5]];portConstraint=eastwest;rounded=0;shadow=0;html=0;" parent="zkfFHV4jXpPFQw0GAbJ--17" vertex="1">
          <mxGeometry y="52" width="160" height="26" as="geometry" />
        </mxCell>
        <mxCell id="zkfFHV4jXpPFQw0GAbJ--20" value="State" style="text;align=left;verticalAlign=top;spacingLeft=4;spacingRight=4;overflow=hidden;rotatable=0;points=[[0,0.5],[1,0.5]];portConstraint=eastwest;rounded=0;shadow=0;html=0;" parent="zkfFHV4jXpPFQw0GAbJ--17" vertex="1">
          <mxGeometry y="78" width="160" height="26" as="geometry" />
        </mxCell>
        <mxCell id="zkfFHV4jXpPFQw0GAbJ--21" value="Postal Code" style="text;align=left;verticalAlign=top;spacingLeft=4;spacingRight=4;overflow=hidden;rotatable=0;points=[[0,0.5],[1,0.5]];portConstraint=eastwest;rounded=0;shadow=0;html=0;" parent="zkfFHV4jXpPFQw0GAbJ--17" vertex="1">
          <mxGeometry y="104" width="160" height="26" as="geometry" />
        </mxCell>
        <mxCell id="zkfFHV4jXpPFQw0GAbJ--22" value="Country" style="text;align=left;verticalAlign=top;spacingLeft=4;spacingRight=4;overflow=hidden;rotatable=0;points=[[0,0.5],[1,0.5]];portConstraint=eastwest;rounded=0;shadow=0;html=0;" parent="zkfFHV4jXpPFQw0GAbJ--17" vertex="1">
          <mxGeometry y="130" width="160" height="26" as="geometry" />
        </mxCell>
        <mxCell id="zkfFHV4jXpPFQw0GAbJ--23" value="" style="line;html=1;strokeWidth=1;align=left;verticalAlign=middle;spacingTop=-1;spacingLeft=3;spacingRight=3;rotatable=0;labelPosition=right;points=[];portConstraint=eastwest;" parent="zkfFHV4jXpPFQw0GAbJ--17" vertex="1">
          <mxGeometry y="156" width="160" height="8" as="geometry" />
        </mxCell>
        <mxCell id="zkfFHV4jXpPFQw0GAbJ--24" value="Validate" style="text;align=left;verticalAlign=top;spacingLeft=4;spacingRight=4;overflow=hidden;rotatable=0;points=[[0,0.5],[1,0.5]];portConstraint=eastwest;" parent="zkfFHV4jXpPFQw0GAbJ--17" vertex="1">
          <mxGeometry y="164" width="160" height="26" as="geometry" />
        </mxCell>
        <mxCell id="zkfFHV4jXpPFQw0GAbJ--25" value="Output As Label" style="text;align=left;verticalAlign=top;spacingLeft=4;spacingRight=4;overflow=hidden;rotatable=0;points=[[0,0.5],[1,0.5]];portConstraint=eastwest;" parent="zkfFHV4jXpPFQw0GAbJ--17" vertex="1">
          <mxGeometry y="190" width="160" height="26" as="geometry" />
        </mxCell>
        <mxCell id="zkfFHV4jXpPFQw0GAbJ--26" value="" style="endArrow=open;shadow=0;strokeWidth=1;rounded=0;endFill=1;edgeStyle=elbowEdgeStyle;elbow=vertical;" parent="WIyWlLk6GJQsqaUBKTNV-1" source="zkfFHV4jXpPFQw0GAbJ--0" target="zkfFHV4jXpPFQw0GAbJ--17" edge="1">
          <mxGeometry x="0.5" y="41" relative="1" as="geometry">
            <mxPoint x="380" y="192" as="sourcePoint" />
            <mxPoint x="540" y="192" as="targetPoint" />
            <mxPoint x="-40" y="32" as="offset" />
          </mxGeometry>
        </mxCell>
        <mxCell id="zkfFHV4jXpPFQw0GAbJ--27" value="0..1" style="resizable=0;align=left;verticalAlign=bottom;labelBackgroundColor=none;fontSize=12;" parent="zkfFHV4jXpPFQw0GAbJ--26" connectable="0" vertex="1">
          <mxGeometry x="-1" relative="1" as="geometry">
            <mxPoint y="4" as="offset" />
          </mxGeometry>
        </mxCell>
        <mxCell id="zkfFHV4jXpPFQw0GAbJ--28" value="1" style="resizable=0;align=right;verticalAlign=bottom;labelBackgroundColor=none;fontSize=12;" parent="zkfFHV4jXpPFQw0GAbJ--26" connectable="0" vertex="1">
          <mxGeometry x="1" relative="1" as="geometry">
            <mxPoint x="-7" y="4" as="offset" />
          </mxGeometry>
        </mxCell>
        <mxCell id="zkfFHV4jXpPFQw0GAbJ--29" value="lives at" style="text;html=1;resizable=0;points=[];;align=center;verticalAlign=middle;labelBackgroundColor=none;rounded=0;shadow=0;strokeWidth=1;fontSize=12;" parent="zkfFHV4jXpPFQw0GAbJ--26" vertex="1" connectable="0">
          <mxGeometry x="0.5" y="49" relative="1" as="geometry">
            <mxPoint x="-38" y="40" as="offset" />
          </mxGeometry>
        </mxCell>
        <mxCell id="-YqU8lc6YnFRLqplRP0o-26" value="" style="shape=image;verticalLabelPosition=bottom;labelBackgroundColor=default;verticalAlign=top;aspect=fixed;imageAspect=0;image=data:image/png,iVBORw0KGgoAAAANSUhEUgAAA74AAAEACAYAAACUIaotAAAgAElEQVR4AezdB3gcd37Y/e/M7C4WvfcOEmBBIdiLSKpR0p10vqZrjh2XxHbs8zk++x77fZ34eXPx69dOck7eN7pL7DiJHTuJz+V0Op0aT40Si8ReQBIkQPTee9k68z6z2AVmFwCJJQkQIn/7PBKm/OtnlsD85v+fGaWystJAPiIgAiIgAiIgAiIgAiIgAiIgAiLwkAqoD2m/pFsiIAIiIAIiIAIiIAIiIAIiIAIiEBCQwFe+CCIgAiIgAiIgAiIgAiIgAiIgAg+1gAS+D/Xhlc6JgAiIgAiIgAiIgAiIgAiIgAhI4CvfAREQAREQAREQAREQAREQAREQgYdaQALfh/rwSudEQAREQAREQAREQAREQAREQAQk8JXvgAiIgAiIgAiIgAiIgAiIgAiIwEMtIIHvQ314pXMiIAIiIAIiIAIiIAIiIAIiIAK2dUWgKDz/mIOvJut87y0v5/R11bo7N2ZV2q+S/fRLfPO5Daies/zDv/k256fmXr2sxB/h53/vW2xx+On5ydf57nsdfNLI7oy6SimUWLJrvsqRQ4fZmJuFU3UxOXCTm+f+jnc+usqkQK4SvBQrAiIgAiIgAiIgAiIgAmsvICO+a29+VzUaI10MazXUbElBCZSgEFtxgDJbH0MjEqVFh2oj5/Af8PWf+SrVmV66r7/L+UuXGHVWsvezf8zXv7iPhDnk6IqV1CIgAiIgAiIgAiIgAiIgAutSYH2N+K5LonXSKL2RlvYsamv2kHD+J0wST3lVDbae03TaDpG9Tpr5iWiGcz9PPV2Fc/IUf/fdP+bimH+u2fYNHPnV/8Azu36WvSfO8l6/XFD4RBxPaaQIiIAIiIAIiIAIiIAI3EFg9QJfm8K+chufylPIj1WwA7Nug4ZuHz9o1OnyBVumqPzs03aeibW2VOUbL8RYN3C9zsN32g0Ck3wVhU8dcPC1JJ3/8pFORaXG3lQFh9+ge1jntXof56cXsmspNv7ooIazw8u36nRCVZspKmsc/E4RvHnSw9+PLeQxl3JzbXy+TGVLkkKCCuOTOpc6/PyoXWdibrYx3E37w6tZ0ZoSb9B56hrbnz/MlsS3OevZTuXGGLo/vInv4BNLlBFDZvVXefbwE2zMy8LJFCPdF7n4/l/xwc1+gqGeJZ+TrOovc+Twk5Sb6ZVZJgduUH/m+7xz5gbTkTGgo4jaZ36BQzVV5KQkYlP8uCfaabn8MkffPkafJwQEauE/5Vvf+BIxZ/4Ff/zDS5a6bZR/8a/5pb2zfPi9X+HNzmCrlBwOf/2/8ULuSf72zy5Q8pmfZltxFg7vCH3Nxzj2xv/m6pDH0nZzceX9VTM3kh8DM1ePUhcKes0ivC2cP/UeZXuyUOLNyRDBTt9Ve5xkb/sazxx6nA25mTiZYaz3CldO/E/ev9KBtfXR+qg5P81vfPPnSL/yb/jT+go+/cxTlGUkYEx10HT+f/LaO6cZWXyAI7xkVQREQAREQAREQAREQAQeHYFVCnwVdlbb+dUChekJnXMdOrNAWrJKzQY7G+J9/KvzfkYCsZFBU7cfh8NEVyjMVilzGNR36QwuxE70BO9rDTs0qsLzNRo9/X7+R6tBfLLGp8s0fv2Awp8e93LWHZY6qpXcUju/X6kS5zOo7/czpCsUZKg8Va2yNdHL/31VZy62vof2R9MiRzJGyyla+WfUbEmjbmo/5Y5GjjV62PBMZEEamQf+L77++R3YRy5x6dR7jJNBac1TPPuLNeT+7W/xvy8Nzl1ECGS1kX3w2/zaZ7cRM9VM49W3GdNTKdy8m/1f2EZZ2r/kP71xjXlOJYmqF/+Yn96eymzfBa6e7cOFk+T8nWw6/DsUZWi89FfvMGY5fpEtXNG6VsYTLxbQf/3v+OEpF3H5T3D48Ff4mcJsvv/Sv+XK/NWH6Pqr2J3YMPC4Zy0GZosMxi6+xJ9fXKZ1K26PxXO6lcar7zBBOkWb9vPkz9RSlPgt/vvJDssFgGXqu8NmLfdFvpjZRcPJ/8olfyrFO7/A3qd+n6yYf8lLr15ZOF53KEd2i4AIiIAIiIAIiIAIiMDDLrA6ga+msCdHwZj289JJHw2h0SdFYdcWG4fiFYrsMGIOexkGp2/4OG1KBx8OVWY3eL/Od8eHWykKDLZ6+bOu4Ehwr84Nr50/3KryQpHC+VtGaMwuuuNoU/mpCpV4j85fnvLyYXD0WLGpfPmAneeLNJ5o1Xlj6t7aH1WjlCTi/Gepa/0VPrt1L1smtxHT9TL17iRqIu9HdeziqWd2EDv+Hv/zu/+e69NzEajy4Tm++lu/T+2nv0zZ1f9Mc2jo27GLJ45swzlylL986SUaZoLpEw/y1X/+L9h+4MtUfXCdC8FysFVTU5mGMfIqf/3dP6PFG+yJkk7VC7/O7vQCcuMUxkLpo+roQmJFS2Xk5D/j+xdG5gLUqydonv0Ov/XCQR7f/TdcDT3MK9r+LlQR1VI07XnyyDZiJ0/w/Zf+DZfH50aO1eQn+Ol//n9Qc+SrbD77Ha5bh32jaslcYi2+iw///Xe4Fjxely7X4/3mn3B49+epfKeOi8Htd1G0ZBEBERABERABERABERCBh0pgdQJfwJwoauhgmfEaCHLP13s5f78IDYMrA8GgN1jmwKBOr6GSm6SgcXeBrxavUmKH6S4/H1mmTBs+nfdu+cnMB++qyS2Do8QTFzPG+StX+eznv8pzrgQ6P/iIsZhP41QgFHuaudWsLRTEwdTZ97hpCT6N6bNcuDHG9t2VlGaoNPcFp/L6r/GT//TLvO8eZsgSLBmTZ7jSNM32HblkpqowHbqCoc49YMvnxmudAm0Mc+31P+DaMl2IerO/kRs3Ry2jsjrDjZcYfH4rWblFqMw9xTrq/oY1RMFZ8lM8u70w8J2d2+Wj99xfcKbLqgqsuD2byY+FmQvvcC0Y9Jrl6uOnuNAwSc3OcgqzNK53hTzDGrTiFX/7GRotxwvvLRpbJji8p5CcdBVm7q38FTdEEoqACIiACIiACIiACIjAOhdYnfDNb3B+wGB3nsY3H1M4N6DTNWnQPWHQNmWEBWn36uOOOLc3Zg3ebvCRPHV3QW+gPZp5xyi4vPN3ec43c7jXx3/qnV9dwwVnYDr4dP271D3+85Qo57h4rR8jLRZzlrg1RDOn8jrQcbl9OGMTLKPeKn73NIaSQFys5R5W/xRjg+bwtYJmjyfGrpmD74ANLXBHtIZqHVX2XePazTFqal7k5389l6s3b9LX30lfbxPdg6P47nWK87yqC483vDBj7DwnfuIncahzPiCOur/z5c8t2HP2s+/Adhb+MXi43v7XiwNfommPgcc1M9/GuZoMXC5zerUTh90KGtGgFa76vW7LsZ3L5PV6MHBguw/lr7AZkkwEREAEREAEREAEREAE1r3Awrn+fW2qwdkrXtQZG58qUHm6Qp0fTXNN6xy96uNHg+EjtferesOrc+LWPZZ27zHJPTZgieyKhqaBMf0hf/8nH84n0DLt2CLbG4haNbIe/w7/6vH5pAsL+oAZ4y58lFhydvwCP3XkacrSE9Cs+8xU+sxCWnPJGKXuH34PdfTnOLxjD/uPHJ4LjA0d9/B5jr/y//FuY3B6cnjOe14zZm9y/v2b4eVE29+w3AaTp3+PfzE3157Ug9/hdz9XEZbidivLt+d2uQLXGO6QQHaLgAiIgAiIgAiIgAiIgAjcL4FVCnzB8Bl8fMPLxzfAGaOQk6BQmqXxfJnK53ba6Dvm5eP5pyXdr+4sX074uOHy6QJ7okp8h7Lu2+6IUddQuUpw2nFo3fxpmB3QGb3wXf7hXHfEqKO538NYT2ioXCFu66/zT7/yNDG97/DW35ykdzo0fqyRd+h3eX6TtfC5ZcPdxqU3/oBLb2g4EnPIzCqmcNNzPH5oD0d+5tcZ+s4fcmn+gWR3Ar3T/sX1h22Jqr9hOZdfuZcmBdqzfNGBPWHlh60skfFO+5fIIptEQAREQAREQAREQAREQATmBVYt8J2vwZwy7DZoM/8b1unTHPxuicLmJPh40Jpq9ZYNv4HbgBQ7aBD2OqM4c0qoYTAbetCT2Qw/gSfiJtvn7lUOhYjmrvQ8G/8oX+FWk5ejo6vX5nsp2fC6Aq/L0abaaG2+cYenB9sprdlPEh28/w//kePd1t7aoMa6vlSr/Hgmu+k2/2s+z6Djv/HLB7ZSlqdxqTGI6pkJ+CfGxQf8F0q04YyLBWM48B1ZqvSVbIuuv2Cm96EQFxMbNvBtHu24+EQUw4PLZf1CrKQVC2nm2qOQ4IyLKF/B6TTrHAufwn2XPrbYRBwKlqnlKrGxZvkT+CKmiC+0TpZEQAREQAREQAREQARE4NETMG/0vO8fLUnjtx938PtVKolhpSskO+dm2YYFmpY0nuDDkuLNF//ep48+bdDkBmeGxv64hUK1eI1DmWC4dW5ZZvP6p3XavBCfpbHH8n5h86nOT23U2JkF6jJP5F2N9i+0eGVL+sANOmcUUiv2kmd1VDKoffFP+MbXf4NtiZHzmRWUuRt7FyrRCigqCD+C5k4154v84m//Gb/+uX3EW4tR4khMcqIYs7gso/n6cD0dEwYx5c+yPc289DD30dKfYne5E2OinrYR61OyQilW9jPa/uqDTXS7IXbzs1QnL/wTUOJq2VtbgOK5QWv33Qe++kAD3bMQt+kZqizlq8mPsXNTIszeomNgIfy/Wx+l+Al2ZC4cYCVpH9srEsHbQd/w3XuuTF1SiYAIiIAIiIAIiIAIiMAnR2BVRnz9kzoNfhtfLrXzByk61yfmRlyTk1S2pSl4x32cHl8CyTBoGDLwpat8aa+dinFjbnTWgLomH+ctwekSuZffpOu8dVNnV63Kzx1yUNuvM4JCRbZKgc3g/FU/DdY4wafzeqPOtkqVf3rYwf5BnSG/QkGmysZY6Gvzz7/iKKzS1Wp/WCUrWPGc59g7F9ny+a/yS79ZxtWbzUzq8aSXHaCqKIXJiz+iZX4aspeWSycYq32Ox77yW8y8+w7tY14cqRVU7n+KIm1y0VRpffAirZ5/zKcf+z2+WXSBWz3DeAwHibnb2VyciK/7VS53WQJH31U+/MnHVH3lAF/45y+xpb6ecSWLkq27yHEOc+3Vl2m1JF9BD8OTRNVfcwrCxxx77xqbXjjEV3+rkO0NNxnzJ5NfsYuCJA9d7/wvLs2/Izi8qhWtec5x7N0rbP7sIb76zXy2NzQE3uNbuGknufFTNP/472iwXji5Sx93j4/qX36JjQ2XGfKnUrT1AMWJfoZOvcp169OeV9RoSSQCIiACIiACIiACIiACD6+AlpWV9e3V6F5Tn8GkTaEgVWVLusqGFBXzDSvNPX7+8oqfpmUCnYlRnUG7woY0lS1pKiXJ5n8KQ91+rruCLVUUNhZqVDsNzjfpdK3gFsiZCZ0L45CSoLI5U6U8EdyTOj+56uP7fYufAD05pnNpUiEpXqEiQ2VjsoLq0jl9y8d/bdQxn4G81GdF7V8q47LbFBLKPs2+jfH0XnqZ+oiRPDVjP4d3lOFqfoOzrePBINVgpvMUN/ohJX8bW7bupry4kFhXE3UffJe//8k5JiyBvm/oIjf7FdKK97Bz/0+xf/dBNmRAz6k/55z/ENuLdNrPvsatUDBojNF+vY4pZw45RdWUlVZSVFBCijZKR93f8/I//IAOV/hBcfV+zLVuP4nZFZSV11KcnYyn92NOvvLveO3qQPjTiZUEind/loqkbq5+cJy+hcHRZZSi6695//NUx0luDiokZGygZEM1JXnpMHKFc0f/hB+cuhWYKj5fWdTt0ZnuOMWNAYWkrI2UbqyhKDsF/+B5Tr/+HV451xE23d6sJxofJaGavfu2Edv23/nLY9NU7DzCtk3lJPo6aDj1Pf726AXmr2vMd0IWREAEREAEREAEREAERODRFVAqKyvDI5RH10J6LgKfCAE156f5jW/+HOlX/jV/8P3Ti4LoT0QnpJEiIAIiIAIiIAIiIAIisIYCCzc4rmGlUpUIiIAIiIAIiIAIiIAIiIAIiIAIrJWABL5rJS31iIAIiIAIiIAIiIAIiIAIiIAIPBABCXwfCLtUKgIiIAIiIAIiIAIiIAIiIAIisFYCco/vWklLPSIgAiIgAiIgAiIgAiIgAiIgAg9EQEZ8Hwi7VCoCIiACIiACIiACIiACIiACIrBWAhL4rpW01CMCIiACIiACIiACIiACIiACIvBABCTwfSDsUqkIiIAIiIAIiIAIiIAIiIAIiMBaCUjgu1bSUo8IiIAIiIAIiIAIiIAIiIAIiMADEZDA94GwS6UiIAIiIAIiIAIiIAIiIAIiIAJrJSCB71pJSz0iIAIiIAIiIAIiIAIiIAIiIAIPREAC3wfCLpWKgAiIgAiIgAiIgAiIgAiIgAislYAEvmslLfWIgAiIgAiIgAiIgAiIgAiIgAg8EAEJfB8Iu1QqAiIgAiIgAiIgAiIgAiIgAiKwVgIS+K6VtNQjAiIgAiIgAiIgAiIgAiIgAiLwQARsa1erjfiCarZUFJMSr9B37lWu9elrV73UJAIiIAIiIAIiIAIiIAIiIAIi8EgKrE3gq8RR9Oxv8rUjpTgVBYwZ6ppfk8D3kfzKSadFQAREQAREQAREQAREQAREYG0F1iTwVdIPceTJUuxDp/jhX73Mjf4p/MbadlRqEwEREAEREAEREAEREAEREAEReDQF1iTwVTNySNMMRq4co75vCpng/Gh+2aTXIiACIiACIiACIiACIiACIvAgBNbm4VY+H35As9kfRB+lThEQAREQAREQAREQAREQAREQgUdYYE0CX8M1g8tQcMY6UR5hbOm6CIiACIiACIiACIiACIiACIjA2gusWeDrNsARG8uaVLj2jlKjCIiACIiACIiACIiACIiACIjAOhVYmzjU0Ak8y0pRZMR3nX4RpFkiIAIiIAIiIAIiIAIiIAIi8LAKrHrgq9hTKNxRS5bqobOpFe/DKin9EgEREAEREAEREAEREAEREAERWJcCq/JUZ23rP+Fbv7gfZ/CGXsM3Qsu7f8prHw/NjfyuSwpplAiIgAiIgAiIgAiIgAiIgAiIwMMooGVlZX37fndM0WJwMk5fZxt9A+MoyYXkZdkYqL9M/6y8wPd+e0t5IiACIiACIiACIiACIiACIiACywsolZWVqx6JaiVf4de+/jS2j/8D332lIfBqo+WbJHtEQAREQAREQAREQAREQAREQARE4P4JrPo9vmZT9fFhpgyVuJQUVmVu9f3zkJJEQAREQAREQAREQAREQAREQAQeMoE1CXyJceLAwO9243vIAKU7IiACIiACIiACIiACIiACIiAC61tgTQJfxRlHjGLgnp2Vh1ut7++DtE4EREAEREAEREAEREAEREAEHjqBtQl8Y8zAl0Dg+9AJSodEQAREQAREQAREQAREQAREQATWtcCaBL6Gz4PXUIhLTccRfMXRulaRxomACIiACIiACIiACIiACIiACDw0AqvyOqNIHWPKRWLNPso21rClOJfMwhJixhsZmFr1B0pHNkXWRUAEREAEREAEREAEREAEREAEHjGBNQl80Udoq2/Hn5hNbukWSjcW4Wt4h5uD+iPGLd0VAREQAREQAREQAREQAREQARFYa4E1eY/vWndK6hMBERABERABERABERABERABERCBkMCa3OMbqkx+ioAIiIAIiIAIiIAIiIAIiIAIiMBaC0jgu9biUp8IiIAIiIAIiIAIiIAIiIAIiMCaCkjgu6bcUpkIiIAIiIAIiIAIiIAIiIAIiMBaC0jgu9biUp8IiIAIiIAIiIAIiIAIiIAIiMCaCkjgu6bcUpkIiIAIiIAIiIAIiIAIiIAIiMBaC0jgu9biUp8IiIAIiIAIiIAIiIAIiIAIiMCaCtxz4JuQkLCmDZbKREAEREAEREAEREAEREAEREAERCAagXsOfKOpTNKKgAiIgAiIgAiIgAiIgAiIgAiIwFoLSOC71uJSnwiIgAiIgAiIgAiIgAiIgAiIwJoKSOC7ptxSmQiIgAiIgAiIgAiIgAiIgAiIwFoLSOC71uJSnwiIgAiIgAiIgAiIgAiIgAiIwJoKSOC7ptxSmQiIgAiIgAjcZwHVjl27fZkxGaVs3pRPonL7dJF7ndkb2VySSfwdyo/Mt9S6kljI1spychMWn3oosXlsqdlETnwUDYzJYEPlZvITosizVMPMbY4syqu3kL8skIPMss1syE/GsVwZd73dTlppFVWladiWKkOxE+u8DwdgqbJlmwiIgAg8QgJL/o59hPovXRUBERABEXgkBRScmWWUZTqY7r1F+6jvDgrRpl++ODV7Jy8cKsMZbbxmzNJ0/E0uDegLhStOCnY/ze60UerPX6Rx0IWxsDe4pBCbXU5l+Rjjt7qZXJxgUY7ABiWRkqptVMW2MdY1yPTSqVa8NSazlC2bHdR3NtEbkcueVcrm8jhutjXSF7FvuVXFkUHJ5grGhxvpnrJ0KiaZ7PR4lgwVDRejfSPMWpKb5auphWyuSKel8ybdS1Voy6SsuoqcgWk6u8eXSnEP22ykFm1ikzFDU+sI4d9EjbTKJ3midJa64x/RNO4HJZaMwhwSl+xgRDMMD2M93Yx6IrbLqgiIgAg8ggIS+D6CB126LAIiIAKPvIAST3F1LZWpI1zpuHlnjmjT36ZEfaSBU8faURcFvk4Kd+yl1FXPifrBxQGs4Wd2whL0mnUYLnrr62jbs4Pqx4+QVfcRpxtH8EbUr2oq+P1E5I5IFb6qpZdRmqowebOFgfBoLDzhitZspGWkwlgDXYsibxsZ2emoM20MWAPYJcrV4tPJTHJg0imxiThQiUvLIVcxI1kD7+QQI3Fl7D6wkdhFvoC/h7OvnaI9DEghPjUFh2+UkUVtm2uElp5Dpt1LX0cft4sh1by9fO6xokUjt8Z0Ix8cvcJQNAcgULWfkcbLNOcepPbgLtzvn6XTnUzp9p2UOJbqYASaMU79uz2MeiIi/YhksioCIiACj4KABL6PwlF+lPqoxJGVW01BjIu+3qv0uKI+y3iUtO5/Xz/p/p/09t//I/rQlqgkF1OcpuIbaKdz+s5BQbTpbwvnnWJkeGpxEiWeNC8YngmGh4ZWHKT6Jzu59MEYo7sOsrOqlrK+YzRMWPukoKpaIPD1L6516S1KAqWVZSQoCmw5wotblk4WudXbcYofn+lZaLs9iazMBGzm6HGWDdeQn6TcPBLNMNU9Rv/wDLo9m8IcB/4JhaSiksC+hXINPGO99IyZ4aZCbP42HtuWjnWydELlY2QHMhiMXX+Hd+sv8foPLi0UEVxylh3mhdpFmwGN5JREGGtnbMk/GSppeTk4Pb109s9FzGpsGqnaOMNTS4jqE7RdrqcvECErxBVUU5W6VL0r3OYZ4Orpq6Q8vY2aLa30XOzj3Ks/4NwdsmuF+/ncXlNaPiIgAiIgAqaABL6r/D3Yvj2G38wz+OFxDz+eXOXKgsWriRrfPmwjq8fLNy7pEdOmwtugpdj4o4MaOZYLx/qsn3/7no+b1vOm8GyrtqYmP8VX9u0jxdIew3We1z58m54VtEdNPcRz1TuJVww8SS7++krDbfsf3hGNkppv8qncMc6d+gsu3GHkITzv2q0pCY/x4mOHSer9AX9Vd4slTrvWrjERNd2bf0Rh97qqpFG791fYl9TA2+++QsuSJ7Thlayr9oc37ZO1psSRsPlZiqqqSUpPwYYL93ALw9fepuNGZxT/Jler2yrpxUUkKV562roWTXtdXGu06ReXENoSCL52ZocFbqF9Cz8P8GLhwlr4ks7ApTc53jQbPiLsn6Tt3HGmmg1GwoLeudyaqoLuR1/B71EzR0xBFVsyFcba6mgeDhseDW9OaE2JJ3/rJlL94f/QlMRidhzYvHBvcWEtB4J90/vO8dqJNsgpIsehYM+sYFdmqMDQT52x6+/SO+bBwGCq8X1ebpzbpyRu5qlnKxg/9Trn+8LrDeW+7U8tgeyCDGKVWPLSbfimYskpLplzNacI9/Uy5jZAS6cgz8lsVzv95si3EkfxzkNsj2vl+Pt1DC0aDXcz2ttF54yJrZCcuGku8HVmUFKQtvgeYcVORpyCYmSzocKGFzfDbe0MW4aW9clmLp5xYR8eWFe/82/rKztFQAREYJ0JSOC7zg7IWjdH9+ic7YBkM9BUFDbmquSudSMs9RmeHlq6rhAXaE88WTkbiOZCuT7VSMNQPiUxLrr7euUEwWK7FoufdP9PevvX4hjfuY5Ykg98g6rtuTDZylD9FTwkk1haQ/7Tm0hJ/XPqPmp6sMGvLYviwnhwddDWY4kulutctOmXKye43fB0c+nkDYYjYzUllqKd+9ngvsaHVwcWRk1D5amZVB6uDrt31ZG5lR1lBu3XG+mdmmZoyEZSbgnpYTcQKyQn21BsSeSWlpIcEfzqU/10DM7MB9JKXBE7agtwTDby0cUGhldydU3NIGlTBcl6ZKcAfYz699/nxnxArpG3+wX2mE+JUhIo3piLbaSOo8cawu8/VrPZ+ZmDJPtX0oAQUhQ/bZlU7NpFTmj4OG4zu7JCB2mW5uNvcnHAQMsoIt85TXvb4NzfFGOGtktXKTiynZ1be3ivbmhF32clLpfNNZaLAIuaWsDWbQUBr2t9HQyb05NjcthSU4jedomG3s5FOWSDCIiACIjAygUk8F251UOZ0pjRebkueKKiqPxsxgMOfGdvcvZ68H47pYiD6dEFvnhaOXuhlbMP5dH6BHTqk+7/SW//OviKKKn7Ka3JhaFjXHvlNcbNETPzc2YDpV/4NQq2fYac+pfoWnpO6Zr0wJ5TTIETZpvb5kbw7lBrtOnvUBzobiZHx5hQNPN649zHMNAND7M+c6rzFGNj46CpgXtZAwkMHT+xmLFQ7HwFKjYNtNTNPPZsKb3157jQOE3Wpp1szwxFc/OJgTy27syzbggse9tP0RkKfLVkyndvJ9+pM9o1SWxuAQWLcszdW163MMsAACAASURBVDzaO8T0fJyroQVmUy8dpOq6jm4Zbp5bVLBnlVOertN3vj086A3UqZkE+Fcr8HW3cuLlVrS8PXxmfxz1b33IrRkDNWs7zx/KwBX47trILsojZuwWbaPzncWYbuXKzRKOVNZS0fE+9Sv4PhsjVzn6g6tLaMay4fHnqTUu8cbxFlyWFIotkZyiInxDdTQMmkPLKs6kVBKWub/X/O6MTrgWXzSxlCmLIiACIvCoCkjge7+OvKpQW27jC0UqBQ6YmtQ5dsNH5/w19MUV5eXZ+EKZypYkhVjmpqedafHxWo+B25I8NB3Z2eHlW3XhU5craxz8ThG8edLD349ZMpkX2YG0LI2vbdaoTFQwPAbXO3x8/5Z+Fw/YCC/bXMvNnWv/1uS59g+N65y65efNAWNFV78Xl3iXW8wA+fGfoSpshMNF44X/yPuDS5+EoSZTvOEIu/NLSHUouKZaqW98jxEjYihkvkl2UrL3s6ukkvykJGLwMDPdTVvnKS50dYdPlVRSqNnzzziQ1MB7Z5rJ2XyQjSnJ2PxTjIxc41LDSVpmFs2Nm69ppQuGoRCfcYj9FdspSIjF8AzS3X2cj5qbmFw4PwsWN9f+3aWV5CUm4cDF5EQrjS0fcnlwfPFJkhJPXukR9hVuJD1GYXaigcs33mOs4Jd4oWCSsyf/B5dC90VG6b8wVfvHvDZcwL4NW8mJdeBzDdDVfZzTLc1LtH+FKku2ZQvPPmu9QdFP1/Xv8Xpn8Bm1S+ZZ7vvjoHz7N3kq+QbnuuLZXFJIjLuJM1cvErPh02xPi2d25BTvXTkd8TCgKP1X2N31mEzNLCVe05m4/uFC0Gs21N1C9/VW8h8vISnLAWPW0/u5nqTk2PjtbRr5GHxwxcv/6jMnt97vj5P84lwcTNHSPrSCWSHRpl9Ze5X4jRx+tpaMUHxqTNH4wUlmg9m1gr18Zl/BwuiuPsDFo7ciCteZ6avn1Dtt5G7Zza7KQxzgXY598DJN1pRKMluPHKEyxU/X6Tf4uHOZqctaEmV7D1GTZWOyrQO9bBf7N1oLsizrfZx//QSt83+sgoGvz7/yY6amUFFTStxUC2c7F38fUOYCX92vz5Wp5rHns49RbLe0w/w7d+hFSkOb/N2cOdpD0ad3kxuyDe0zf/p7rGtzU5HT07BNdzMcfNSzLTYeB26MhFI25aeRnx+D7sph28FsbHY7Docdu90R+GkG5uVVRbSeagv/OxBRy8KqSkx8DP7p2bv8OxlD/vYn2JG1VOdAH7jImx82z3+PFuqVJREQAREQAQl879N3YMsWO79RpoBL50KHwZiisHObjZJl3v+QV2bn97eqOD0G13r9jKJQlqnymR12Nji9/EmLsYITsts33nBq/FKNwvSAzgejChtzVHZW2Mm3efn2dT3sqvLtS1q8N7fEzr+sUnHM6HzcOtf+8lyNL+5RKbzk5T93r8YJ6+J2zG2Zoq/3Cjb73NBJTFIFJUmhYZSl8jjI2/Q1ni1OA1cPbV1dTCtplFW+QObMUu3WSC3+Mp/bXIzd009XXx1TxJOVsYGqyhLy4r7PKw2di56iipJFbWUaowMfcbzdS0zSVraV7OeZ5BTe/fhVmkMjYUs1cQXbjNhanqxMxD1UT/1YAjlZmyjd8CKptr/l5RvtlvaopBS9yOe3lGKbbeNW+1WmSCI3p5I9O4pJr/sr3u2dsJysamSUfYXny3PwjddxvrmdaTWd4vLHiF9yVmi0/nOdUxP3cjBugLbmt7imJ5JXuJ/KjV8i3R7Z/hVgzCextsVBWtZmsuzjdPdYR5N0RqatFx6seeDO3x9Q7AWked7k3St9HNi2n/21di5f/zE/GTnIkYrHOVh0i1dahoOm0frPd+YTuKCgOcz5qzo+VyiEC3XDwOcyp9MqqIE0iwOdigKNIod5V6TC4QKFv+szbvsE3VDJ0fxU4goozrajjzXQbhnBW66MaNMvV05ou6vlOD9sAUXVGHy11TKia474OgnFmf6uM7z6yrmF/eYdrrpO849eDhW18NM/Q++1E7zfn4k2av23HExiSyI58O5chfTMNLTO/qX/vthicNphtvsiH11oZfLcUo9PUkioeJLnqheqDyypNmzm6KxvmYuNEckDq/o0PS2t+Fw3GXVmkW0boX/c8m9T09AUA78vuM0YoensR/TMPw47htyqWvKmb3CxNdhvY5YRfyJF6Iw1X+CG5XHUttQSKnJm8VqvpiixpKXH4xsZZjywXSE+KQFltp/ZxGJqKxLxuSeZ8ipohgfX1BTjbg9utxuP240vsYzt5RWUJXdwPTTqq2ay/YUvsd3SZ2N6ILBmz9vJM/vS6Dj+HnWLbw625LjdooGr+UPeuGidDq+St+ez7F+YDnC7AmSfCIiACDySAhL43ofDrjg0ni1S0Nw6/+WEl4+D53O2BI1vPmYSW//Kmo8UU/lMuUqcW+fPTng5HUyvOlV+7ZCd3eUa2zp8XLT8/b+bZsYmwdmTHt4NDWw1qvzqYTt7izR2NOp8tMxF/zvWZba/QiXe5ee7J31cDAZDSrPOLz9uZ/8WjU29Pm4uGnW8Y8l3l8A8GWp4MzjCoZK+MZfipKTly7JXUJOfhuq+yfunf8Qt19zxUeN38+m9BZYTzWARWhnbNxQTM3uFtz5+k46gmxKzmSf3f4GKov2UtXbSEBkUKvFMtP9X3u0JPr21/wbd3n/MVzZvprbgJC3NQ5HfjOXbvMQeR4JC8+n/wbWZuRNNpXkLTx/4PBvzd1PS1M6t0PE127+xlBj3NX5y+jXaQu1sa+apA1+kvGIfuf1v0xM6XloZ1cU5aK463jn/xvxrP24N1PCpx3ahEPGUtmj9Q6yOIS6ffJ3WYDtbB/owDvwMNQUR7V+i78tusrbFfLhVwiayknq5fv2N5R9uZc3DCr4/gcr7ae1uZ8A/TOP4Xh7jFjcGe5gZuUrvxg0UJWWiMTw3ohOt/7Kduz87tK3/hG/94v7l3yFrzFD3l9/iR/V3+wvIetFJIyZ/BylKEwNdo/MdsKaY3wjc7PDTlKKSh8GJDsNy8caa6l6WFRKKisnQ/Ay3dywxtTay7GjTR+Zfbl0htfIZntqcuPD7xpjh1ofHmQlmWTTii8FM04e8dWlw8QyNQB6d6cH+JSvU0rJIV2fo7XGTlVdAxpV++peKT92D1J84SiM+fKHfB0uWuMRGmw2bAl6fd/HvNcVOUlYeeQmhv4UqaXFmlOxhtLmRfiWW0oMH2BHfzsn3LhF8cDKKWSY6M/5gPsPFSM8g7pRYmJlg2htHXLlB1tQg3V0WF8fck4xdo710dc0PSUNXF22RM421VNJTDEY6RoIXA+wkJ8fB1Di9Ny/Rdqc3XdlcOJUEBq0vBr7NU529fU20Tj7Fpu2b6Hz/OqNLHYcleGWTCIiACIjAvQtI4HvvhqhxCrkaTPf6OW8ZxPBN+Tk9aqMq4imVWrxKiR2musLT6y6dk4MGuwtUyuLh4vi9NU4f1fnIMuJsuHU+GjTYW6BQEA9ETI1eaW1m+0sdMNGhUxcKoszw3qNzqt/gQKHK5gS4ObHSEtc2nRqXSYoG7v6rtASDXrMF+vQ1msafpDAjoj16J2fP/DkXfJOMh4LJwKs4btE87KI8L4VkpwqeiDNFo5eOIesrSwwmhlsZM/JJTchAZSXTLCPaYlk1xq7TGAx6zc2Gu5HGoVk25KXPnVSOz7VHjS8gyxzF6bpGh+V44WmicXCa8oJCcuMVeoLvr1Tjc8m0g6engS5rf123aBnTKY70sbQpmkX/WHNY+eYUxK4xN9V5qaTEquCN8Iym8FVPG3o6rnnfolmZPheMGHM/FfPezWAbovVf7aYbI/Vc/MhFxGxRS7Ueukfuk722ieLn/xHZnMP7F39zx185EwM+/vBdS1Pu96KaQnFxKqqvj7bO6cUBWmR90aaPzL/susHI1aMsvt3TSd5wL31uF77Oj/nhnZ5lpGax4/nDbJh/Ya2fnjM/5lSH9aKFnayiPJzuHprqxtGeqWJj4XX62yx/rKzt1H13NQVXccTgwGDaY/mlESpXiado+wGKQuvBn3pfcMGYpe3yNQqf3sbO2n7eO9czd7uPZkMzg3Brd9RMqp/ah+PyGxxvjSjwLlbVlEzStUnahoMBspZGhvnu4paRlc028PVz80rkBYdlnupstk8fpeFKC0WHN7G9vJMPbk4scyHj9p1RncmkZwSngAeSKiTFhH7r3D6v7BUBERCBR1VAAt/7ceQ1AieRLu/cfbXWIqeXOAcwb9qKMW95M9/XaE0MzAa3xWgRO+5i1eddPE0wVL7jXsoPtt98CEusHcuUOQW/D3QF4tfzN0s1T6bA63VH+Htwe5e4/G64mJqeO0lUtRjsauiBNCpq4JRFZX7mXdhx8hJZnOFqoe6WTtxMaBpsWIaoVvw+t8XezGrg8ZpfuLkph/OFaXZs5j6fH4fdaTnJUtF9poETpzlUE9Iw+wh4AvvmSzG34PZaz0Ct+6Jf1v0eS1vm8uu66W9Ob4y+vHWbI1r/Ve6I3nead185vcq1BIvXR5gemsar9Jp3gTzwj5ZeQlEieLra6Fkm7rM2Mtr01ry3X1awxyUSu8Tvyam2a1wHEpaateKbZXLGMqJqTNB+5QKjZjmOLDZV5y+qVkksZXNhDFNNrQxMzeDoq2TP1ipyes4H3zO7KEtgg+JMJSctdv4CzkIqBWeyAyViPF6JjSNWcTNsuZg4n0cf49q771qe6jw3LXef+Ycw+DEmm7lQl8uRHdup6R7mXI8bbHbs+PD6LH8pVQ2N0PRn8ze5QtzGJ3gxOEdcH73KOyduc3AdiaTYZxkL3O6gkJCZEXhYmMPpRB2fhdRsMh1u+gfnpk4radU899RtnsRsuGk9Gd3rlHwDN7jeXcieTdUUtX9EW+RdASGUZX8qOPJreWLx4Uafm1G9bE7ZIQIiIAKPssASf3YfZY416vsKTurnn/S5Rk2Kqppg+3M32PnehiVyGsbCk0qX2P3J2+QgLf8JDmyoIi/Oufj9m4ZlKt2dOuftpqGl+06pVmG/Skrpz/IL80+AsVRhLDO1wHKuaUkti3clcBf+d1XPOstk9NH9yu8T+sYv/TietWqzjaySAuJw0dbWt4LRvGjTR9OPGAp3PcPO7OhEQu+9nZ+4YbgY7mxl2Az/4jSKqyIiIS2FTbu2ku7r4dytUXTDoOt6AxufqmL3rmGOnW5lapkLEkrGJvbvL1x4uFZk93TLdCIU4lNScBhTTNz1+88Nplsvc6PoCDW1lXQMXGTQbl60MwNfS+U2W+DCmDUW9vRdn7/H1/CMM2ukWzKELyoJpex7Ip2Wn3xA44yTzKwk8OuUHXqWjLbrtCv5xLl76bG+a8pw03fzKp0RfVPiC6jakhZewYrWXHTW36Iir5Itm9LpvGK1XEkBco/vSpQkjQiIgAhECkjgGymyFusrCCgiHy68gixr0fK5OoKNGery8d87jEWjdmai0XU6zflukJxZz/FCVRX2yaucvnKTEU9oVFgho+Rz7L1PU3/vpm0rz2Mw2fMWH3SNhsZ1LVl9TC9+DHTgvc6WRIFFZV1fkYls7Xpavwv/VWq+mrOXJ/aUEHwW3OJaDA/dZ1/lWt8yEdHiHBFb7vzb6s4pIoq8H6uOXEryYmCmiTbLA4+WLTra9MsWtPwOf/cZfvxRx8LUYiWeiic+ReXsaV493W353Rp83c3yRS3e40ijYs8BqtK9dJ25REfwHlR9vJFzdZk8uX0nTxyI4fT5BoaWGqU1SzRHat+xjtRaq1FI3voML1amBC8GGsx2nqHbeq+rNflKlo1Jmusayak0J64ozE2f9uAx3+EU/CgOBw5UEjNSUbvMO6INfIvu8b1N4BvI78Vtlmm46Lh8Fq9jjIn4zeyuraXWDq6WbsJfCOBloredNmswbF5sSEtk0+a7CXzBGG+mviGWuN5J9MWXU0PdlZ8iIAIiIAL3UUAC3/uB6Sdw4hKrmZOuwj9LTln2E7h/Kcm+OL05ddgswx2Krcw/634D8wHAKXZzEuhcXaFa4syzV8MIvPsxtC3003zKsfl8VevF8lD587FbKHE0P4Ptt7kNGobNd0t+wj66P9Bmhxb59dewme+mCPvYyM2pIJ4hLl57k7oJazCgQc6D671miwl8HxZaoOCwm5OUZ8MfTOP3Br4DqnuQ3hHryXRYRxdW/O7AJMaEmPhA+fM9VuKIu6c58gtVPFJL0fqvMo6SVsmuQ3d4uFXTa3cZ+Br4PeZ4pIrNaT5edn5sMjAl1eaMQ8FAD6RZ5Y5GFB+bX0KO+WyC5jYi4peIlHOr0aZfspA7bFRsThISExd+hypxmH8zFFssiYmJlsA3Bqf5y3/+H+NtCjYfJFWwmW01FeTEuum5dJJznbOWC146k82nOaHt5bHqap54toDOhjquNA6wXPy7dG0GE60XOD0Rj6roeGcnGB2ZDHsV39L5br/VP3Kd4yfMNApxzhgU3RW4LSiUS3E4cSgKsfnFZF27Edoc/tM/93CuhNhYNCy3hCh20rLTsc/2MRX4xWngHe+iw8w9eJGLSRk8uSkRZ1E1NX0TXOk2n0J+N58Y0vKLKAo8uV8hLsX8Sxz58dBz7WJwY/SPYpZ7fCM9ZV0EREAE7iwQeeZ/5xySYpGAPmPQ44dt6Sqlms6tYCSiOFRqUhclxz+t0+bVOJCpscuphz3V+WCm+VhMP82WmU/6tEGTG4ozNPbH6XwQfOynFq9xKNN8qJHOrdCjQC3VaWkqB+L9C091jlHZb5bv1+mylL+QxcDlA8WpkGJ+M5a6P9l8DeK0TovHbL9KkabTGoq8FIV91TaeTTQ4et7H2ShmAC+0wbrkweMzUJyJxN2mPdYcK1nWZwYY80NRWilZWit9ofbbSykKdDy8lLkTH2XxVQo1jewk8x4468l9eN7VXFNTq6iIu7HwVGdHOeXpsSj+LkZmFs6Q9ekuBrxQnlFORlM3A6H+Kols3Pp5qhMGqbt8lObg8dKnexnyQmr6NiriGrgeLMuWtJ3NqZEXBlazh/datnnyax498x7miBjsXouOIn+0/lEUfVdJ/fV/wb/7nb+4q7wryaQPtjHtryJp6yGSGt5gIjRa5yghv7I08P2cGFjm34xN5cgmNfD+1eE+P28NLvV6sZW0IiKNEk9BSSY2fZT29vE7BzPRpo+obqWravY2nvnUtiWSb+fZ3MWb5x8GtWiXRnxWJvGKip6RhnMqnSR/L3XHL9E46Fqiv15GG0/xzvAGqrdtJNY/Q+gwLSr6NhuM2RG6u0YsKRRSy6rI9nTQ3DW+3J8QS/rbLSrExceBayQsILfFx+PEh99RxLbqEbojrzabReqjDI3oFFY+wxfN0eOwj85UYzeRb7JSk8qp3pDAbGc9nc4NVOx7HNuZD7i4xN/WsOKWWlGTKK7dQ7Fln7Hk31xLgqgW5R7fqLgksQiIgAgEBSTwvQ9fBcPj5+0OjZoyjW/shaOdOmOqQnWhSp55fhd5sden8/otndqtKr9y2MH+QZ2x4Ht8Cx0GN+r91FmHaXWdt27q7KpV+blDDmr7dUZQqMhWKbAZnL/qp2EhzpnvkXca9u93sHVAZ9BQ2JCtstEJfS1+Li4V1BoGl/oNPr1R5ecP2qkdNRZOhgyD96/6aTPjCJ/OG406tVUav3tI4dyAEXj/YVa6yq5UhbEuLw33HPSaQ92DtA0Ms62sgsN7v0bx+CSht1pg9HK9/iKDBjjS9rAvL3N+slhMkvmKEDvZxZ/miezg9XpLeryN1HWPUFi8h2d22qjr7mZGTaUwv4wUjy/iePno7b3BZO42qqtewN18lT6XD3tsHiWFVWSrS51Uzh+CVV3wz2iU7/kF8gfbmTDiyc7aRI5TZ6z9HG3W4+tv4VJTK8Vb9vPC/ixaBvuZMWJITttEaUo8Mz3n6LUeL38LdR39lG0s5bF9v0B+fwdTShoFydN0DbjIyA7vVtT+4dlXb82YondkCH9aCbt3fZmciZm5ATNjio6W47QEp2Suevuj9V89kTUp2Rj9iLa6nVRuf5rqr5Uw1NaOhxQSS6pJTtKZvvg6faH3nUa0yJai8lOlGikY/Kjdt0TAFpFhhatKUjElaRr+obZF92kuVUS06ZcqYyXb7stUZyWW7Mq97N2cgTExgVqyi+qWK5w61sbYMtcX5tpm4B5u4vz7Tbdv6lKB5bI57CTnlVNpm6Wje3zhfblqClXPfYmqiHzLB/LmgK+TlNRYjKlJy33IKkkpySiTTZxrTmF7bS0Vuop74U1Zwa5N03TqHcayUom3q8zfomGYMxLGGewfCxs8V5w51O6vJMPTwceXr9Pt68Fz8AA58Q6Uuwl89UEuvfUhTTPBvz8R/b631VmaP3yZ5nsrRHKLgAiIwCMpIIHvfTrsN254+Z7fxhcKNb60TWNmSufjWz6OZjv41YTFlfS0ePlDl40vlqlsydWIxWB4QueNaz5e6zEWpr4Fsw51eflDr8aXNmpU5mnEYTA07ueHt/y8ObD0qIg+7ee/3VL56iaVpxIUdI/BxVs+/qZRZ7lnXjY3ePlTzH6o7Cmcm1odaIKuc/VaMPAFetu8/D9uG1/coLKzRMV8m8b4lM7x6z5+3KqzzOOSFkPcdoufgaYf8J7yDLvyitmQb0MNTSbXHXTcmAt8bfEb2FRQuughLMkZNSSHyrekN6df9jT8LW/7jrA7v4Y9VbV4pju41XyUusx/zJGI4+UefJvXL0+zt6ySHTWVOPAwNdlBc9vrnE35Ms9HpA9Vudo/9ekLHGvOYX/5NioTnBjuIVqbj/NRc3vESIvOWMfL/MhzgN0llZQWleFQPMxM99Bw88dcaG+ff3foXJv9DDX/PUf1I+wp2kBxQTquiQYuX/+A6eKt1ER0LHr/iAJWbVVnuOVHfGB/jp15ZZQnBV8xZIzg6joxH/iufvuj9V81kDUqeJaxj77HldFnKaqqIW2r+W/TjXukge5zb9NxozPs9gtro/LSVRLNSS8jfk5GvC7ami66ZZXU4iKSVS+9bV3cORaJNn10rbGmVuyxJCUlLXgocYHZCYo9LrB9/nqm4px7AnRkIGvPYMuB/VRm2ZhsPcPJiz2oRTs4ULuLI8VbGe7vY3h8mhmXB5+um3fFBD5mIKgoKqqqomoamuplqLWFIesFMJ8PnxJLanoiMVOTuOevOlp7YFlWNGLTyynLVHG1jYeN0mJM03n1Gt0R+IZrZKHvOEjNzyNJ8+PXDbT4AsrTYfza0MKcGiWBzMxYfCND9DTdZFrZzb7qfOJK9/F04hCjE1PMuj14/TqGbgQe5mVp4dx0e3smhRtSGO1sZ8hlXjgtY/uebRQ6x7hx4iLdgT+Oo9w8+TZNfi9+c9aWkkDFUy9SEV7Y3JrhZsiy3ZgZoK3VwYT16VuW/UsuKjbsgVkpS/8tXzLPCjaaxzfwWY34ewX1SxIREAERWG8CSmVl5T39SkxISGBqyvqu0vXWRWmPCKxnAZWY2FTM19be9qPPMDE7GzZKcdv0q7JTo3Tbb/NcziBnTv4Vl6bv6VfHClv4SfJZYZdum+xR668VQ+Gp/Q5+LgPqLnv4fzvvUxCgZbHjU4cp0zr5+K0zdFtnQ1irDy1Hmz6UL6qfTsoOv3DvT3VWktj0xGNk9ZzlTMPwfICoOtMpLC0mPyeDlIQ4YmPsy7xyzZxZY+CfbOCDd64S9vpmeza1Tz0WuGAUTdcMdz+XPzhJU/B5CIHXAT2RQ3vY64yWKlElreZZntpkztgx2+Vlsqees+caGQkeMzWtmmefLGXk47c42zO3UYvLoKC4kNzMNJIT43A6HNg0BfU2D+Izpho59pMrDOsx5O8+wr7cGW5+fIrrg5FXFswHWFXz3JMlTN24QnvwXeeh1isJRWyrTKc3ytcZmffAp9c8w+Pl8QF/A/P5EgYTN4/xztWRsN/zSnw5T3yqBt/F1znRar0yEWrF4p/O0oN8emcOmmng6eLM0Y/pXFnWxYXJFhEQARF4iARkxPchOpjSlU+ggJLClm2/zL6U20e++tj7/N2Z04Ep5Q+sl0oiiWaErs8y612LoNccafkE+dyPA/Oo9ddqZlPYZE7R8Ogc77tPQS9gzy6hIBZcrW303SnovYv01i6sfNnP1EAn7X3NXGgcXjTDZ3E5NlKLy8kxxsLTGhPcOv42jX5/2LRw3TVM+w3zv1BJSmB0dyEWNAKjv4axMAocSjn/09vP5XfeoCU9jeQ4ZyCYvO2sZ0PH55lmdHCIScsNw8bINd7+0fXACOx82Usu6IzU/YQf1pvvIVfQfd7gPfoLifXxVq5cncTdv3Ag/TNDtN8w/1tIt/IlNz11pzhWP8nIdOjhBxG5Z3q5WTfFdFcng5FPrHZM4ptOwD0e7e9DnZGWq1zzJqMZBuY7zWcnhugbmAgLes2WGJ5hWq5fRx+13v8U0caIVVf3Nc4aXdh8LiaGBhmVoDdCSFZFQAQeVQEZ8X1Uj7z0e50IOEhOKyXdcdtTSgzPAF0jIxFTmFezC3EUlD3OxrhQQK5gjyuiOC0Zb9+P+YfL1yOmR69WW9arj/T3fgtoaTb+3QENpd3L/3lVnx+9vN/1SHkiIAIiIAIiIAKPpoCM+D6ax116vW4EPIyPNNyne6LvY6cUB2mZNWxONd+hYn7M0ZxR+jvf4nTDWgW9Zr3r1GcOZRX+/6j1d4EwK00hFYO3OiXoXVCRJREQAREQAREQgfslICO+90tSyhEBERABERABERABERABERABEViXAqF5jOuycdIoERABERABERABERABERABERABEbhXAQl871VQ8ouACIiACIiACIiACIiACIiACKxrAQl81/XhkcaJgAiIgAiIgAiIgAiIgAiIgAjcq4AEvvcqKPlFQAREQAREQAREQAREQAREQATWtYAEvuv68EjjREAEREAEREAEREAEREAEREAE7lVAAt97FZT8ukKFdQAAIABJREFUIiACIiACIiACIiACIiACIiAC61pAAt91fXikcSIgAiIgAiIgAiIgAiIgAiIgAvcqIIHvvQpKfhEQAREQAREQAREQAREQAREQgXUtIIHvuj480jgREAEREAEREAEREAEREAEREIF7FZDA914FJb8IiIAIiIAIPEgB1Y5du30DYjJK2bwpn0Tl9umse5XEQrZWlpObsPhUQYnNY0vNJnLiV1qgQlxWEblJdhbnUHBmlVFRmkPCHfphbd+Sy2oyhVu2siHLuUQ9S+a4i4120kqrqCpNw7ZUbsVOrPNeO7JUwbJNBERABETgXgSW/J19LwVKXhEQAREQARFY/wIKzswyyjIdTPfeon3Ud4cmR5t++eLU7J28cKgM5+IIcPlM5h5jlqbjb3JpQF9Ipzgp2P00u9NGqT9/kcZBF8bC3uCSQmx2OZXlY4zf6mZycYJFOcwNMZmlbNnsoL6zid6IFPasUjaXx3GzrZG+iH1LripJlGzbzRb9Ou+8f5MJaxvUZDbUbmezcYP+thWVtmQVgY1aCkVbtpLQ2EPLgGv5dPe0x0Zq0SY2GTM0tY4Q/s3RSKt8kidKZ6k7/hFN435QYskozCFxJbGw4WGsp5tRzz01UDKLgAiIgAgsISCB7xIoskkEREAEROAhF1DiKa6upTJ1hCsdN+/c2WjT36ZEfaSBU8faURcFvk4Kd+yl1FXPifrBxQGs4Wd2whL0mnUYLnrr62jbs4Pqx4+QVfcRpxtH8EbUr2oq+P1E5I5IZV21kZaRCmMNdC2KlG1kZKejzrQxMGWNYK35w5e19BKKk/30X2gPD3pRiCuuYmMSTLTMEJeTS1woqwKesX6GZ1be6lDWlf5U8/byuceKFo3cGtONfHD0CkNRV+1npPEyzbkHqT24C/f7Z+l0J1O6fScljkUHfHEzjXHq3+1h1LMy18UFyBYREAEREIHlBCTwXU5Gtn8yBZQ4snKrKYhx0dd7lR5X1Gctn8x+PyqtluP7qBzpVe+nklxMcZqKb6Cdzuk7BxnRpr9tB7xTjAxPLU6ixJPmBcMzwfDQ0IqDVP9kJ5c+GGN010F2VtVS1neMhrAhVQVV1QKBr39xreFb7ElkZSZgUxIpybLhGvKTlJtHohlju8foH55Bt2dTmOPAP6GQVFQS2LdQiIFnrJeeMeuQZQz55SXEz7RzvmN2ISmgxBVRW5WDQ1FwbNjNwQ1hu/EPXOTo8WZm7nyIwjNGs6ZP0Ha5nr5AkxXiCqqpSo2mgIi0ngGunr5KytPbqNnSSs/FPs69+gPORSSLXNUK9/O5vaa0fERABERABFZDQALf1VC1lLl9ewy/mWfww+Mefjxp2bGKi2qixrcP28jq8fKNS3rENKzwirUUG390UCPHciFan/Xzb9/zcXM1TzTCmzG/piY/xVf27SPF0h7DdZ7XPnybnhW0R009xHPVO4lXDDxJLv76SsNt+z9fcWBBo6Tmm3wqd4xzp/6CCyscyQgv42Feu88+Shq1e3+FfUkNvP3uK7Ss4BrFvR3fh/nYRNk3JY6Ezc9SVFVNUnoKNly4h1sYvvY2HTc6o/g3E2W96ya5SnpxEUmKl562Lmbv+Lsl2vTLd9RZdpgXdmaz+K5Za54DvFhoXbcu6wxcepPjTbPhI8L+SdrOHWeq2WAkLOidy6upKuh+9Dv0VUksZseBzQv3AhfWciDYFr3vHK+daIOcInIcCvbMCnZlWttmLuuMXX+X3jHPfPvUlA1sylMYuNzIkDXy1pKp2LOdPCdMNR/n3Yv9wZFqhbiSAzyzK5Wexo7VDXoDzXcz2ttFZyC6VkhO3DQX+DozKClIwxHZRcVORpyCYmSzocKGFzfDbe0MW2J9fbKZi2dc2IcHsHY5sihZFwEREAERWDsBCXzXznpd1qR7dM52QLIZaCoKG3NVch9gSw1PDy1dV4gLtCeerJwNRHPhXZ9qpGEon5IYF919vXLC8QCP5WpULcf3fqjGknzgG1Rtz4XJVobqr+AhmcTSGvKf3kRK6p9T91HTwx382rIoLowHVwdtPZZoZTneaNMvV05wu+Hp5tLJGwxHXuxRYinauZ8N7mt8eHVg8Yivmknl4Wqst4o6Mreyo8yg/XojvVPTDA3ZSMotIT3sBmKF5GQbii2J3NJSkiOCX32qn47BmflAFX2M+vff58Z8AK2Rt/sF9pgRoJJA8cZcbCN1HD3WEH6/sJrNzs8cJNlvCfUUJ4Vby0kcb+Rc6zSGkkj5wb1k9DcwmFFDVbqb7tZhMkq3U9X1HpcGvCixhWyrzsXoPc+1vshJ23OISvJmHj9UxuSFo1zojYS8wwFY4W4lLpfNNZaLAIvyFbB1WwGm17W+DobN6ckxOWypKURvu0RDb+eiHLJBBERABETgwQlI4Pvg7NdFzcaMzst1wZMGReVnMx5w4Dt7k7PXg/fbKUUcTI8u8MXTytkLrZxdF7rSiPsuIMf3nkmV1P2U1uTC0DGuvfIa4+5gFHRmA6Vf+DUKtn2GnPqX6BpbnWDinjtwHwqw5xRT4ITZ5jb6w59MtGTp0aZfshDrRt3N5OgYE4pmXm+c+xgGuuFh1mdOdZ5ibGwcNHXhycSGjp9YzNgqdr4sFZsGWupmHnu2lN76c1xonCZr0062Zy41ppzH1p1587lDC972U3RaA19z3FbX0S3Dw3OLCvascsrTdfrOt4cHvYHCNLPJ+C2BryO3mqpcD60nGjG/Us7CKrZkxzLmKWVzrkLf5VP/P3vvAR3XdR74/96bGWDQe++9EgTYSbFKJGVJcZdt2Y7t9J6NE59ks5v809bZrOPsycZ2uhPHURy3yFYXLbFXECQAohFE7733wZT3/ucBGGAagBkQpEjpzjlz5r17v/vd7/5emfvdSkW7hUT9U+zbt5eJK00E7NpFktpHRVXX+r3xsh5/oxGTYyuAvUDb9KuO13Hmv+o8aAsg69izlKrVvHG5HccltCR9CPGpqVhHa2ka0W4uGWNoBMHrzO/VrvXEtMm9kcNDriJIEBAEBAFB4P4ICMf3/vitpZYlSnP0fDRVJtkPZmcULjRa6VlrQ1+TXTlKTNTz0UyZglCJAJaHp91st/Jav8qig7R9OLKx28KXap2HLheV+PG7qfDmVTM/mHRItDTgDCJjdbyQr6MoREI1qzR0W/lui7KFBTucdWtnCQnL9heGLds/OqVwrcXGm8Pqw+0t0hzkY5+l2KmHw0Rz5d9wfsSh58GxCHIYaVkn2ZuUToSfhGm2g7vN5xhXXbpCVtMYCI87yJ70IpJCQ/HHzPxcH50916js7XOunEnhlOz7ZQ6FNnHuZhvx+YfJDg9Db5tlfLye6qartM97UdtezdvTwbI9ezOKSAwJxQ8TM9MdNLdf4s7IlFMlSgp+go8/cZTQgVd5bSyZA1mFxAf4YTUN09t3mfL2NmZcfRyf+Xiy0UOYx2tVwOnTBQ7CNnobvsHrPXPLYR7TrHd9/cgp+yJPhjVyqzeI/PQU/BdbuVlXhX/WM5RFBrEwfo1zNeUMO10C73k6GPpYHsoxGQTpFKYbLq05vVpJFtvpa+gg6Vg6obF+MOlYnV8uani8nt/ZqSMJlYs1Fv5jUN3gDfeo4jGSlJaAH7O0d416MSrEV3nvyi0FZXP0dCnRdv9UnaX54lXsM2B1yfv5qQPJa727yjBVZ1pclCvMD97l2judJBTsZU/REQ5xlgsXX6LVUVIKo/DkSYrCbfSWv8GNHs+9qI5JPB7L4eSWZBA4205Fj/v9gbTs+Co2Zem+kILS2bs7jQDLBMb0PTyRH0hoRCRqXwW3KvqQG42YpueWrkFP5U0ijh9h98kEJGWKpqu36d58DLpHM7VAv8g0cnNj3e9PdYaB1gEPTvt6qmT8g/yxzS1s8X/Nn6Sy4+yKtV9o53yU4SrevNS2et2dY8WZICAICAKCwHYSEI7vNtEsKDDwm5kSmBQqu1UmJYndO/Wkr9TdXbNJzDTwh4UyRrNK/YCNCSQyY2R+apeBLKOFv2pXvaiQuWp1PleNOn6hRGJuWOHihER2vMzuXANJegt/0qA4tVI7p9z8LCHdwB8Uy/jNK9zoWLY/J0HHx/bJpFRb+Lu+h1khnmVwoAa9YbnrxD80l/RQezeKp7L4kZj3AqfTIsHUT2dvL3NSJJlFzxEz78luHRFpn+DD+WkYzEP0DtYySxCx0VkUF6WTGPhdftzU47aKKlIspUWRTAxf53KXBf/QQnamH+RUWDhnb7xCm72nzZOJG4bJhKd+nI8UZKBf6KSlq45ZQkmIL2LfrjSiar/N2YFptwqfHLKfw4HDdLa9Rb0SQmLKQYqynyfK8D1eauxysN9XPhsa6xLpeK38iIzNJ9YwRV+/Y++Rwvico1fqmAY2v74gGZKJNL/J2ZpBDu08yMFSA3caXuUn44c5mXuMw6kt/Lh9bIXR1ni6FOwxOZXQ+WnjVRWsJruLZTddxWrShrtKyEsy7o5NbrKOVD+QkDiaLPH9QRUvBgrbM3gkfqXAZNLiDCiTTXRNuLb4uJvoq7y7BucQU/tlftQOkqxj5JUOhx5drcfXSPaKuK33Jq/8+NZaPCqqotD28kvOCrUz2zwD9Vc4PxSDbsL92UcfStjSXrwSUTGR6HqGtvb/oszR396B1XSPCWMscfpxhqYcnlWdDp2kYrMuh6lmKzbVzNyCDb1exhAaSZA6wO07PSxojYzTa3+QemMAelVBkg1gNmNRl3u712uKdIfgGCJhjMulJM4xbOXY1st8m4vjK8dQ9tzzlDmIq3PDS2eGxN2cOhBJ9+Vz1I46lNVBdvNDFVPbJd6ochy+LpO470McXOu+31yNkBAEBAFBQBC4LwLC8b0vfMuJJT8dp1MldIsK/3jFwo2V+qI+WMcXn9AQu/x162V+KkcmcFHhH65YKF+Rl40yv3rEwN4cHTu7rVRt9T92pUwBoVBx1cxZe8dZs8yvHDWwP1XHrmaF61ts9EezP1cmyGTj61etVK3UfKU2hV88ZuBggY68ASv3Nq9TbgN9De84rU1vrvRwyERlJ5AWGrq+bkMuJUmRyIv3OF/+Mi2m5esjB+3lmf3JDhXNFRW6TMqy0vBfqOGtG2/SvcJN8s/nxMGPkpt6kMyOHppcPQApiOmuf+Zs/8rqrUON9Fk+xyfz8ylNvkp726jrnbG+zY4xmj3ZGfgv1vOT8tfotOfb2caThz5GTu4BEobept+Fv85vlDtXX6djxf6O4UHUQ5+lJHkv6a1dtNjvB1/5ONq22bHjtdIWtwrOIzZ0gIaGN9Zf3MoxDV5c3yUbhujo62LYNkbz1H6eoIXGkX7mx+sYyM4iNTQGHWPLPThb5LlZUbcaryv8Ob70swfX3+NVnaf2W1/i5btbfUE4Ngrp8E/aRbjUynDvxKrJjhKrgcC9bhut4TKJqFzpVh0aSxylHuVjieDUNKJ1Nsa6ur3o9fNV3tuyS0QUneLJ/JC19406T8uly8yvqHDr8UVlvvUSb1WPOI3oWMtRYW5kaO3U4UgXGUuUPM9A/yKxiclE1wwxtM5gmKVkkoHQ2EQSg+3/XTKRgdoYZjMTbc0MSQFkHD7ErqAurp6rZsj+TtTr0aMwb1tJZ+nj5hu9aD6uIbaMp44sMlBZTZdjT67kR0TGTvbuTCNkcYD68j4CckspPnaSmLu3uNU0rLUn+/hRmW48y9v1k969YzdY1dky2ErHzJPkleXRc76BiY24+WilEBcEBAFBQBB4uASE47sNvOVAiQQdzA3YuO3QSWKdtVE+oafYZdVLXZBMugFme53lFZPC1RGVvckymUFQNXV/xikTCtfXGtRRFxWuj6jsT5ZIDgJchkZ7m5tmf4YfTHcr1NqdLs3/NCtcG1I5lCKTHwz3pr3V+HDl5MAYwnWwOFRH+4rTq1mgzNXTOnWClGgXe5QeKm7+E5XWGabszuHS1h4ttI2ZyEkMJ8wog9mldqYO0D3quGWJyvRYB5NqEhHB0ch4M8zSxRZtxlhQMrEGWOitp9uBP+ZWmkfmyElOISFIot9l703bZBu9DvZj66d3cpEdiRGEB8hgWbbfZz7uJj4CIfbVa7V5ipo5yrKzoC7/StrcyhUrt8rzQRVSHb9L1XUThnUzMNM37nKvrSu7SYQuj7RnP0Mct7D8639u+kqYHrby5bOb6HyUo+Vw0tIikK2DdPbMbe4U+SrvddlVxuvO4D591Eji2ACDiyasPTf40WZrI8mx7Hr2KFkB9rvZRv/NV7nW7dgoYiA2NRHjYj+ttVPoThWTndLAUKfDn5Wr3VIQqWWHSHUJVwZXAtQFOu/Uk/LUTnaXDnHuVv/y9BydHh1WVjp8lxp9l2aP+Cewc08GdFzndufKIlqSP+EpORTkZ5EUpme+v46Lt5sZ00bCDIwzsesgZcVHeSZ9kLZ7jTR3jW3BAXYpwLqn66zqrMkrEzTVtJN6NI+ynB4u3ptep+FhXeVLEbIxjKjo5SHgy5ISof7267ZxWhErCAgCgoAgsD0EhOO7HRx1LFVSTRateu38mXN0NOxROvDXptRp+zXaw1Z+F1bC/LdhwQ6rxX0Yol2/3/3oX7FfW4QlwIDDkDkJmxUUCYIe5TtL1ipnYLEsuvA3s2jx0JyvmpidW64kyjp/DLJ9QRoZeemKy8ge6y8WXNWppnZqWxQC5+3DbF1uAG9OdQb0qJitNvwMRod7TkaxamUyYtRrBjnfXYrN7CC7nJGiaOXVhic6ZOwrH4ekj+XhFnk+qLIqg+Wc/XH5g1LvrFcZZ250Dos08ACdCucs380zXVQ6qSFg7u2kfwO/z26jr/L2dJv/ShgCQwjw8J6c7aynAQj2NGrFusDMvGXtyVan6aqpZELT4xdL3o4kt6ylkAzyU/yZbe1geHYev8Ei9hUWE99/e2XfWrcky6sUnz3rsKrz8rDcA9of18pHnWmjsjaBk7vKKOkb41b/IugNGLBisTq8e3Rh5OzfS7Kpkcv1E+jCoogLDsJfNpJckkfMYi8N1+7SOmogPi6S+b4xFqzTdFacY7Qnm+Id+eTuKGRu9BptbosR2K15sL/W4UYa+lLYl7eD1K7rdLrOEtg0ewm/pFKOu18elOUR1ZtqEAKCgCAgCAgC90/Aw9/u/SsVGjYh4OhkrCO6utLnOvHvavCK/QlZBr6R5cESVV1bqdRD9OMX5Edk0nEOZRWTGGh0339TdVyKbJPSWfpoau/bRMibaJnwjJ/mZzI8yKr3OVTAg8r3ftD7lKc6SN+P/xD7Hel5+Z33ytXXE5ueTCAmOjsHvZib7Ku8L5z8Sdlzit1xvhG376O7OtBDNTHW08GYtstQoI60YhfPShdO3p5Coqz93GqZQFFVehuayH6ymL17xrhQ3sGsa2ut18VQmeu4Q2PqSUpKi+germLEoDXKaY7vihJ9BLmHnqAkzh/FksfxDxUvN7KpNqYaL3Lp/BnUhTnMqkRQ6l6KdqcSWDJKZ1M9d9tHmR24R/lgByFBMLN1Q70u0fqCJnrutpCbWERBXhQ9NQ5DqdZP5BAj5vg6wBCHgoAgIAi8awSE4/tuoHdoDF8v+6XhYQ6RXiRxkH7AhyvGjPZa+Zdu1a0XUct94hEd5rwVMsbYp3muuBjDTB3lNfcYN9t7hSWi0z/Mfteh0VvJxOc0KjP9b3Gxd2Kt92dVh5W5d6lnZNWEx+7g0eEpx+/n+L50VtZqcyepmumreIX6wa16LJu/TTaXcDfrkQ/xSyA90R/mW+l0XtLbs+m+ynvWsmGore8mr17vXlstWAoi9/gHKFoo55XyPod368r2ORtqc4n0iyR33yGKoyz03qxeXSFZ0fbTrY3hRNlujh/yp/x2E6MOUz5ctGx8qs7QVttMfBGgl5D8/PHDjFnbc0n7KBL+/jA90sfE5BRTUyvf6VlMjr3CqMx1V/CToRZS83ZQXHKclPRWKq7WMGBaZMZxxsjGFj2wWHWqjbtNAQQOzKC4N38+sHyFYkFAEBAEBIHtIyAc3+1gaWOp4hKg01Y7df54HLJsY2k+VKjBXV4bOqzpWLT7VtqAVZuKNu0p3KANSl3Oy55LoFY7VtWlvR/tYfZfbZVjbf1We+O7Fm7Xv+q72YV9+V2xX7+o0jSm7S35mH0U25LNfjrX21+HXtuE0umjJyE+lyBGqap/k9ppR2dDB/HvQultlqVrKi+OMDDuWDl2MnzrJz7x2Xo2j0zKB83Tx4JKkUXsObLJ4latr23R8VWxmbX+QhltFV2c+j0l9MZAJFSUJRkfDX/ExQOS0onX1iZo62TM8TFex25f5ddRs2GwpDcSHBKy9g6VAtH+MyR9ACEhIQ6Orz9G7eXvhd1oC1Ml57OzJJf4gEX6q69yq2fBoYFMYaatnCu6/TyxYwfHTyfT01RLTfMwW/F/beMNXL6iFVMi0OiPpJiWpvEsFVwZp/7s69R52ZKiLk7QVXuZvq408pOtTG555fsNsXuI9CcyKZXUpfwkAsO1f07Xj5n++qqVQN+XYhZzfF15inNBQBAQBB4+Adea/8O34D2QozKv0m+DnVEyGTqFlhVfSPKTKYlwL6BtTqHTouNQjI49RsVpVefDMRLaxNA2h5FUypxK6yKkRes4GKhwcWXZT12QjiMxLC1a1WJfCtQhO12kzKEg29qqzv4yBzX9NoVeB/1rSVRMVpCMEuHaneFpfrK2c8acQrtZs18mVafQYff9JIkDO/ScDlE5c9tKhQ8jgNdscDwyY7aqSMYQAjewxzGFN8fK/DCTNkiNzCBW18Gg3X5DBqlLBXfWslxnk9xbKeRI4kIDkJycB+e0D+JMmetl2AI50TlEt/YxbLdfCiG78CPsCB6h9s4Z2rbI31c+Wy+jFaui0dXmJLv4YFtX6nPKB83TV4Nsd/+Vv/zdf/U1mdfyykgnc7ZiQguPENr0BtP23jm/dJKKMpBsvUwPrw6mddarlzmZJ5Mgw9igjbdGPG3/5ZzkkTiTgkhOj0GvTNDVNeXgBK5jna/y66jZLFiO28mpD+z0IFbG6QT34NXFpdyidATFxhAkySjRkRhnowi1DVB7uZrmEZOH8lqYaL7GO2NZ7NiZTYBtHvtt4Kba6wCJwKBAMI07OdCuo5dkw/JevhFBFoY6h7DFFVOWKjPW30ff4BjaFufWqS7qH+aMDTmUtNJ9pDmUVfX4H+kg4NOhmOPrEy4hLAgIAoLAAyIgHN9tAKuabbzdraMkU8dv7IczPQqTssSOFJlErf7o2nhsVXi9RaG0UOaXjvpxcERhcmUf3xQ/lca7Nmodu2kVhbfuKewplfn8ET9KhxTGkciNk0nWq9yus9HkoSfAMgcHD/pROKwwokpkxclkG2Gw3UaVJ6dWVakeUnkmW+YLhw2UTqhrlSFV5XydjU7NT7EqvNGsUFqs4/eOSNwaVplSITZKZk+ExGSvhaYtOl1Ol0MdoXN4jJ2ZuRzd/wJpUzPYd8lAHaDhbhUjKvhF7uNAYszq4DP/UG2LEANxac9wPG6lq8FBHksztX3jpKTt49RuPbV9fczLEaQkZRJutrpcLysDA43MJOxkR/FzLLbVMWiyYghIJD2lmDjZU6XSqRTbf2Jrp7q1g7SCgzx3MJb2kSHmVX/CIvPICA9ivv8WA/fD3yc+91E8dZaB8VFskens3fMJ4qfnlzu01Fm62y/TvrLlic/X11eTHjRPX+15wPLqxHU6a3dTVPYUO15IZ7SzCzPhhKTvICxUYa7qdQYnPbxQtNGs4TIfzNARjsrLXVYPDtUDNn6L6qXQNNIjddhGO+mZXXknbKDLV/kNVG0YtS1DnaUA4or2sz8/GnV6Gjl9Dzvaa7h2oZPJddovlo1SWRxr5fb5Vncb5XCKn36eYpeY9R1vrcPXSHhEAOrszNq8YV0gETFRRISHEx4eTkREBGFB/kvzfJX5Vq50jWH2l1ADkyg6kMdO6wzDPV10dHTQN27yqoPbxcStnSojVL91idb5ze8N3zNYoO3SS7T5nlCkEAQEAUFAENhmAsLx3SagjY0WvmHT89EUHc/v1DE/q3CjxcqZOD9+Jdg9k/52C1826flYpkxBgo4AVMamFd6ot/Jav7o29G0l6WivhS9bdDyfraMoUUcgKqNTNn7UYuPNYc+9LsqcjW+2yHwqT+bJYAnFrFLVYuU/mxXWW9C0rcnC36OVQ2ZfyvLQ6iUTFIW6+hXHFxjotPDni3o+liWzO11G201jalbhcoOVVzsUtqex3sZw639xTjrFnsQ0spL0yPbB5Iof3Y3Ljq8+KIu85IylYeCOpMOiSwizBzjIa8M7+5u+x9vWk+xNKmFfcSnmuW5a2s5QG/M5Trpcr8WRt3n9zhz7M4vYVVK0NIdtdqabts7XqQj/BM+6yNuzfHC/CpPdL/Gy+RB704vISM3ETzIzP9dP071XqezqWt0LdGs2+MZna3loqRTG2l/mouFpdidmkhO6ssWQOo6p98qq4+v79fXVogfN01d7HrT8ApPXv0HNxGlSi0uILNSenUUWx5vou/U23Y09TtMjHK1JjJIJ0QaljNu4OuMY8ygfy0SkpRImWxjo7GVz38ZX+a2XXTIEEBoausZbClwa/SBpvaKhoWuOn2RcXgHa1ZE1RFNw6CBFsXpmOm5ytaofOXUXh0r3cDKtkLGhQcam5pg3mbEqytJ+upq1kiQhSTKyLCPrdOhkC6Md7YzaG8zUOXrq6ulzgaWaxtdsxY+IpERCdTZsioouKJmcKJiqH10dAyMFJFP2xE6isDA/PcH4cAc9Y2OMj48zMWNabsjsquNmVx26gCiS0jPIyMhnf2YBC6PdtDY10dY/s5anHM/eDx4m3W9tUlHowY+T4ukSFJzi+QJPEaDONXPxTA2jCqjzw3R2+DHtNOfYc7rVUEmPYWmUiuf/3lU5Hw+067H0eRD+t4+2CHFBQBAQBN6LBKSioqL7esUGBwczO/sIrDzxXrw6okzvAwIDCWoDAAAgAElEQVQy/gERaNvobvhR5pleWFirCG8o/DAjH3f7fWX1fiuvIx+JJw/68floqL1j5q97trfS75jTth7rYtn1gaNk6nq48dZN+jyNdnHM0Fd5x7ReHxvJPPrc/a/qLIWSd/wJYvsruNk0tupwysYoUjLSSIqPJjw4kAB/wzpbrmmLSKjYZpq4+E4d2vbQUuQOnj4eT5fTdkaeCiYTWXKaJ/O0ETaaHgsz/XepuNXMuJ2xZCQs0o/FqRmXxaw86VsJk/yJSM4iLz+b5HA9kw3nOX93cvndJwWRkJ1MmNP+axvoWidKNY/T3THMyqCSdaQcg2WiSk5xLCdoiZeKth6EyvS9C7xTN+70XpaCcjj+gRKsVa9zpcPekuCoy/3YmHGYZ3bHo9O2czD3cvPMDXq8S+quTIQIAoKAICAIrEtAOL7rohERgsBDICBFUrr/lzgQvrHnq0ye5/s3y5eGlD8Eq7zP4nG33/uSLku+38rryEcv86snDexXFb5x3sJtu3PjKPMIHhsS9/HMoVSUjiu8VTnkNprG1WRf5V3Te3duIDa/jHSljcrmsU1tAj0RaTnEqwM0d086yWs9tqrNtsmwc2mpd3dtmzx1qfdXVdd6gdfs1mQlVK2HeC1wnSMJWa9HL0soVsvKnP11RH0NlgyEJcWjH+5hzLWn21dd2yAvBSeSkxKGTlXR9kRfmB5lcHh6bTqQPQ9DJGlZsSiDLfRoi0l48/ELJykxHL3VxPToCBMmL9N5o1vICAKCgCAgCKwSEI7vKgpxIAi8GwT8CIvMIMph6J4nK1TzML3j4+utN+YpyUMKe9zt9xXT+628a3x0kXr+8pAOqcvC79cpq72LaxLiSBAQBAQBQUAQEAQEgUeXgJjj++heG2HZ+4KAmanxpm2aE/1uAHvc7feV2futvGt8YiMlIlB5q0c4vWtUxJEgIAgIAoKAICAIPC4EhOP7uFwpYacgIAgIAu8igYFWCz/nYQHgd9EkkbUgIAgIAoKAICAICAJeE9h4YqHXaoSgICAICAKCgCAgCAgCgoAgIAgIAoKAIPBoEhCO76N5XYRVgoAgIAgIAoKAICAICAKCgCAgCAgC20RAOL7bBFKoEQQEAUFAEBAEBAFBQBAQBAQBQUAQeDQJCMf30bwuwipBQBAQBAQBQUAQEAQEAUFAEBAEBIFtIiAc320CKdQIAoKAICAICAKCgCAgCAgCgoAgIAg8mgSE4/toXhdhlSAgCAgCgoAgIAgIAoKAICAICAKCwDYREI7vNoEUagQBQUAQEAQEAUFAEBAEBAFBQBAQBB5NAsLxfTSvi7BKEBAEBAFBQBAQBAQBQUAQEAQEAUFgmwgIx3ebQAo1goAgIAgIAoKAICAICAKCgCAgCAgCjyYB4fg+mtdFWCUICAKCgCAgCHhHQDZg0G0s6h+dQX5eEiHSxnIbxkpBJOQWkZcQxP2o2TAPESkICAKCgCAgCDwgAvoHpFeoFQQEAUFAEBAEHmECEsaYTDJj/JgbaKFrwrqJrb7Kr69OjtvNc0cyMfrqPaoLtF5+k+phZU25ZCR571PsjZzg7u0qmkdMqGuxK0cSAXE5FOVMMtXSx4y7gFsKjwFSIPE5+ST2D9MyMOchH4+pRKAgIAgIAoKAIPBIEBCO7yNxGYQRgoAgIAgIAg+VgBRE2o5SiiLGqem+t3nWvspvoFEZb+LahS5kN8fXSMqu/WSY7nLl7oi7Y6naWJh2cHq1PFQTA3dr6dy3ix3HThJbe53y5nEsLvnLOhlsNlxSu0h5cyqhD00gPSPY3b4lexYZ7+tnyskAmcR9H+KJNIM3GazKKKM1nLnYzNxWHfVVTeJAEBAEBAFBQBAA4fiKu0AQeD8RkMJILTtJdugsndXnaJ/arJfr/QTnIZRVCiQ2YQfJ/iYGB+roN92/G/IQrH5PZiGFpZEWKWMd7qLHC8/KV/kNoVlmGR+bdReRgoi0gGqeZmx01Gsn1TbTQ/XFSSb2HGZ3cSmZgxdomnb0FiVkWbfk+Nrcc/U5xC82j92x6yRTxqkbG2DK4pi/ykx/E3fndT4NkVbnx3BSs06WIlgQEAQEAUFAEPCGgHB8vaH0oGTkJI7/+j/ybOINXvz//pw6n30QA4Wf/j5f2DnA2//vNzk3+D6vRN83zwd1oR8dvbrMn+Zzn/ogYbKKKXGG//Wf1916hrZsrbf89Uf46f/1B5Ss8/axNn+N//3NN5ldqTfL8Z/mN7/4BZJW5jCqqg3rwgiDHTeouPA9bnVNee0gbLlsKwnlsCf55IEDhDv01Kmm27x26W36Hev562QkRxzh6R27CZJUzKEm/r2mCe8fex3pJV/kAwmT3Lr2r1TaAa2TlwjeiIBMVFoqoZKF/s5eFja9dr7Kr5+3MfMoz+2OY+MFNg7x8ZT1dCgMV7/J5dYF5x5X2wydty4z26Yy7uT0LuvRyTIoNpRNy7pevvZwlfnWS7xVPeLDc6cy09tIQ69dh/gVBAQBQUAQEAQePoF1qp4P3xCRoyAgCDx4AspgOZXNBRSGztJa1+qD07WNtimDtN76CSaXxXj04cXsyElEtSx6qFCr2IZvcrNpEEXS4R+eQ07eR/hY/n5SX/wS/9Uw4ewEbKO5jqpUcz/tvTUEao6vFERsfBYRjgKbHCuzzTSNJpHub6JvcIDt6H3bJEsR7YmAPpa0lCAwddPZb/Yk4Rzmq7xzarcz1dxH9dVGxlzbKqUAUncfJGuxnkt1w+7PgRxD0dEdOD46fjGF7MpU6WpoZmB2jtFRPaEJ6UQ5TSCWCAvTI+lDScjIIMzF+VVmh+gemX8oz5AbDBEgCAgCgoAgIAg8JALC8X1IoEU2gsASAcmfyPwDxE1eoXHAtdb74Bmpc5Wc+ZdKzjz4rNbPQWmh/Ed/7RAvYUz+CJ/+maew9r7Ed350gXmXirkmbOk9w+uvlq846xL+yS/wc7/yeXZ/8JPcbvpHOla6TuWE3ZSF91B3bxizBz0OGft8qC7co6JhZT6olMrhKN8cX8wdVFR2UOFzziLBdhIwxKeRbISFtk6GvOhy91V+U1uVRWYmJpmWdEj20QOqiqKaWbBqQ51nmZycAp28NjRYVbARsHRPB6xmIKPXgS4inydOZzBw9xaVzXPE5u2mLMZTn3IihbsTV1PbDyxd1+gRjq8dh/gVBAQBQUAQeI8SEI7vdl1Yv1RKT/0MR0qKiQ8PQS/ZWJzuov3OS5x5+wKD9hq4bgcf/v2v8ES4Y6XkCJ/7C0dXxELLS5/nm+UOvVi6OApO/hKn95YRFywxP1RF+Zv/zIC6kfMkEVz0GT7zqcPE0E/V97/GmYapDVr1vZEPoPCFf+MLZTNc+sYv82aPc5+VnPjT/NZvfZbQ6j/lL75Xzlpfij8xOz7F6aPHyU6Mxcgs431VVJ3/NhfvDXno+dLkP8mpI8vyAbpFZoYbabz5Pd4pb2DWXuyt8sRI3M4XOHXkGFkJMRiZZ3KghporL3K+ptvBbq1nL56jv/ZNnku4yvf+oZL0n/o0O9Ni8bOMM9h2gQtvfIe60bWSerylJCPRRU9y5ORJCpN0NHzr2qrjuzyU9/NE1fwf/v5uLs+cepLM6GDU2W5ab7/Ia++UM+6MGXyx3xMjdZbKb32a7zc6rUCzZPqaPV/hn1qKeO6pY6RFBGCZ7qDl1ou8cf4WE3Z7POnGi/t5FZJMWP4v8IXPfoiQjm/yT995hb5Fb7xVlcXel7na+DzpJaVkx+ro6F82SorYyVM/+4uc6LtF+dk3udUwgFcqV23a5gPNQT72WYqdeuBMNFf+DedH7CBd8pTDSMs6yd6kdCL8JEyzHdxtPse4uh4bA+FxB9mTXkRSaCj+mJmf66Oz5xqVvX3OQ3mlcEr2/TKHQps4d7ON+PzDZIeHobfNMj5eT3XTVdrnvfAGXUz2dBoer+d3dupIQuVijYX/GFQ3eP940vAgwowkpSXgxyztXaMe3j2uefoq75re87kUlM3R06VE2/8K1FmaL15lYUVcl7yfnzqQvNa7qwxTdabFRZnC/OBdrr3TSULBXvYUHeEQZ7lw8SVaHSWlMApPnqQo3EZv+Rvc6HF/7h3FYZPFqLKP8/Fs5xTambXnOq+U97n3VLuLihBBQBAQBAQBQeChExCO73Ygl0Ip/vhf8OmyCBYGK6mrGMSEkbCk3eQd/V1So3V87dvvMKnVWdVxuu78BEOgDFIgCQWHSQkcorWqhnG7M4eN4WFHRyqArOf+nM8fTkKdbqLh5l2mdYns+PjvkDy6mshDSfxI3X2IuEA9EimU7s7hbMPtDeZ0eiO/QFtdJfO7jlFQlMGZnlaHSo5MdP4+YqUZaupqHJxHHTGH/ohf+8guDOPVVF87xxTRZJQ8yemfLSHhe7/Nd6odVzDVE/vEH/NrHy7DaOqh7e45xm2hxGfv5sBHSsmO+xP+9uXK5V7BLfHUE3f4T/jVD+3Ef66D5rp3mCaK1LyDnPhsKakhX+Jfrna7V4h1mRz/eDJDDd/nR9dMBCYd5+jRT/LZlDi++7WvUONhXp12jWN3PMWRk09SkBCEbeIeVT9+g+vN7o6FLuHjfCyml6ar/0y1LYK03R9l/5N/SKz/H/C1V2pYXL3CPtrvyAgITDpEUaK9m2lVqduBZs+Hozq4e+7rXLNFkbn/Exw69cckBPxPvvZq7bI9jrq9vp/tWemI3vP7/MLH92Kp/Ap//+MrHhx8u6ynXwuzM7OoBBLgv1YeW9sbvPymypGj+zjxhX0cHLjNzbNvUlHXh2k9v9GT+m0Lm2VwoAa9YdlG/9Bc0kPX7HXPxo/EvBc4nRYJpn46e3uZkyLJLHqOmHlPjqOOiLRP8OH8NAzmIXoHa5kliNjoLIqL0kkM/C4/bupxf+6lWEqLIpkYvs7lLgv+oYXsTD/IqbBwzt54hbZtaC3ITdaR6gcSEkeTJb4/qDq8F9xL/jBCpMBk0uIMKJNNdE1s9P5ctsZX+c3KYGq/zI/aQZJ1jLzS4dCjq/X4GrH7k7bem7zy41tr8aioikLbyy+5Z2GbZ6D+CueHYtBNTLs3LuhDCQvWPGyJqJhIdD2eGhvd1aqzPdQ3ezFyQgoksSCfGDcV/sRkZRMXsNH97pbILUA1DdPWNvwuPb9u5ogAQUAQEAQEgceUgHB8t+PC6XdQUhSJOv4K//71f6Dd3pguRVH83K+zNyqZhECJSW3lUKWPO2/8DXe0fJcWAzpIirGFGy/99bqLW0mBBzm8Lwl59irf+/r/pnpqufaui/0wP/trhRuUwEzXrUv0ph4imgFqbjW7V36dUnsnv9h2leaFE+wsOEDc262sjtiV4sgvyEReuEJ9m73fAvDbw5OndhEwdY4Xv/5/aVhZQVW6dItP/fYfUvrMJ8is+zva7L6g3x5OnCojYO4mL33jy1SMLUdIxkKe+dWvcGz/59l3tZqLI8qWeGr2nDi5k4CZK3z3a/+HO1PLlV857Dif/m//nZKTnyK/4qs0OLY9aFVGXQTjV3+Z71aOL1cs667QtvBVfvu5wxzb+5/UneteawSQg4nfeZIjT50gLy4Ay2gt5T94k/KqdmbX6eTTBfVy6f9+lfqVcb7Vd+5i+eJfcXTvRyh6p5Yq+/hfX+13vOfQkXAqh8LE9ZZkXbshdEE9XPqHv161p76hFfWLX+Hwvo9QeLaOas0eR91e3s9rOQSQtmM/kToDStlv8kvxR6m+9G3O1/Vucp+uaVh+EiStPr/2WRyi+cK3aL76OlkHPsCR4wc59rk9HBi6w61zb1Be083C5v7Omr77PVLHaW16c6UHTiYqO4G00ND1tRpyKUmKRF68x/nyl2lZ8dbloL08sz/ZqahLSnSZlGWl4b9Qw1s33qR75f0j+edz4uBHyU09SGZHD00u97M2R3m6658527+yuvBQI32Wz/HJ/HxKk6/S3jbq7kCtb7XHmHvdNlrDZRJRudKten1dPSrblkCJ4NQ0onU2xrq6vdjP1ld5b42UiCg6xZP5IWvXU52n5dJl5ldUuPX4stmiUgpzI0MeDdBFxhIlzzPQv0hsYjLRNUMMrfMeclSgLozS3d7uceqBoxxSOAFZHhxfyZ+ojHwKIuzd2k6pvD5Rp1T6NMfX6xRCUBAQBAQBQUAQcCcgHF93JlsIWZmHZV3E4lihVseof/3PqN+CRsckUlQ6sQZYqDtL3YrTq8XbRs5T3f3z5OQ6Sjseq8w1/oBvffkHjoEbHHspb6qhvnmW0h37KYj+TwaGlwsthe2lIFnHQv01Wh1qKHJsAcmBMFtxjnsO24aocxVUNk5StreIjGiZtpVVqeXYfJIDYKHqTapWnF7NaNXUyPVzrxCxMxKrUatIOcLeoFguUZr+pACYr3yH+hWnVxNRpq5R2TRDye4cUmJ1NPS61AxtzTTecxh+jsJYczUjzxYSm5CKzLLjK8Ud4eNf+AQFMf6YBiq58p23qKjt2dTZsnXdpNnu3GoGWVpobp/m6L4U4qNkmF+2Z8v2u3DY7NTWXUGLoz3mJlo65zi8O4lYrSK7Ys9metaPNzNQ9xIXhwzog1PIKjzEk58rIflHv8O3tmO4pGWEtisv0nbjDdL3Pc3h44c5/Jky9p2q5J1v/zNVQ1u7f9Yvz/bEyIExhOtgcaiOdocuamWuntapE6REu+Sj9FBx85+otM447Z2qLrbQNmYiJzGcMO15MbuUVx2ge9RxSx2V6bEOJtUkIoKjkfFmGLCLLS6n08NWvnzWJfDdPJXDSUuLQLYO0tkzt7lj76u812VTGa87w3/VuSYwkjg2wOCiCWvPDX7U4xrvci7HsuvZo2St9qja6L/5Kte67a2ImryB2NREjIv9tNZOoTtVTHZKA0OdDi9pF7XbdqpOc+/sS7jtkixHsfPpE+Tou7l+poJ+e2PxtmUsFAkCgoAgIAgIAu4EhOPrzsT3EGs99fcmKSn5OF/49QTq7t1jcKiHwYFW+kYmsN7n8ErJ4I8elcUFbVinw0c1saCthPLQP3O01lVj2nmIwsIELg5rc7okQrQVdnVz3K2749QyLxmM+KFgWrRiDAh2cFdlbItzqFIwgQFrjuyyvFZe14qpymTtN/lO7f0V2K7fbHJdxVTFZNK2CDHitzIs1TknE2aXTSXVydtc+YmNkNGe1WsjR+WQGW2j9+I3eOmtOqZd/A1nnWtnNg+rGVssZlT8VofJatJbt38tL2+ObGaTy3BvFZtVu9/02po72/Ax03/72/SvaJIjTvO53/ptCk9/kpzKv6ZpuyrD1nE6r3+Xzps/IfeZX+LDRwtJjZIfWccXWb80r9NiWVy9p5YRmVm0uDTGaBGqidm5ZSdG1vljkO0LJsnIS0+bjOzYI7565Sy4qlNN7dS2KATOj7nkvZrosT7QRaWTGgLm3k76vfD7fJX3Ho6EITCEAA//wLOd9TQAwZ5GBVgXmJm3rF0bdZqumkomND1+seTtSHIzQQrJID/Fn9nWDoZn5/EbLGJfYTHx/bcZdB0F4Jb6wQTIkckkBsF8awdD2/WcPxhThVZBQBAQBASB9xABD3+776HSPayiqBPU/vB/IE98nqO79nHw5NHliqaqsDh2m8s//n+cbV4ZHvuwbHrA+ZhatF7dIxQW7iP80o8ZJ5TcwiL0plvUt8w55760bKmO2GNf5Y+POUctnSnDzkNVV5c59SC7HUHe6PfoKLhnrq3ye/u8c3+GOt5B98Ruco7/Br9aWMOt829ys7qTOS8dYPdcXEK20X4Xze/qqTJxicrmX6awJIeUKJmm7dqXemkl7WM88dQpStLCUMZr6VubUP+ulnl7MvcjMuk4h7KKSQw0uu8Pq67NDt80P0sfTe19m4o9ngJ6YtOTCcREZ+egF3ONfZX3hYo/KXtOsTvOtxYkZfAWr13pXLNdNTHW08GY1iAWqCOt2MXx1YWTt6eQKGs/t1omUFSV3oYmsp8sZu+eMS6Ud6wtFOjBfDmmjOeeL/MQ4znIOu053DlUR3RqMkHqFI2dzqMKpOAUSvfmY+y8wc2OWYdGUmcN4kwQEAQEAUFAENgKAeH4boWahzTqYifVb/wZ1W/o8AuJJyY2jZS8pzl2ZB8nP/vrjH71y1TPOvXXetDy+ASppirqWucpLjhAftjL3DCXUZjhz2LLtdU5iaulWVqJVmGi8uv88FbfWm+FXUA1M7myIu9S0Lor19oT3OevN/rv41Ipgxf43l9Wkbz7NEeePMYTL5Sy71QDVRfe4EZlKzP320n/gO2/T7qbJpdkAzpZRbFZUZw421g0LYLkt06Pu7vq5fYJFfebSptDH0hs8QkOP/UUBYnB2Mbqqfjh33Ojcv151u45PPohxtinea64GMNMHeU19xg323uFJaLTP8x+16HRj36RHoyFfgmkJ/pr3Yx0DnvxEPoqvwWrbX03efV699p+2lIQucc/QNFCucvqyAFkHXuWUl/y8Iskd98hiqMs9N6spnth+WFTppq5VRvDibLdHD/kT/ntJkYdhtQvZ6Ey2XmHylHfHHN1dtLjo+hktj6OtKQAlLEmOh2m7mgy6sI082oQWWWH2DF3kRqnRR6dtIgTQUAQEAQEAUHAZwLC8fUZ2WYJbJhn+ujTvm23GfH7Jr94qJDMRB3VHlby3UybFq9azFiRMBr8XcT1+Bl0LmEP6VTbeqO+hsXi3RTmR1I9d4As/wXa6quct05Zst+01EOhm+2ko63RZfisu72qRZOXCAkIWlv4ZUlMInznL/Kh0kg6L/wVl53msbnrWS/Erj/YGOim32gMQGLSbUjzerrWDbdN0VvxQ757+wyJu05x5MRx9j3/e+w52UzNpTe4drORSZchfvqAEPwkHIbGywQEaPZMY3UYYv1Q7F+3YPcboSf12X/iV48aufXNz/GS0zNhwBhoBHWCRYfyrp+jgeDQYCR1kHnH1ap0ISSWnuTwiePkxhmxDNdR/v3XKa/axl739Y26/xjFtvSM+OlcX8869G5jzPUkxOcSxChV9W9S6zSuXgfxdif4/s163DUEJKUT7wfTbZ2MeTH6wlf5rfCR9EaCQ0LW3olSIP46kPQBhISEOPR4+mPUXvVe2I1kIDQ5n50lucQHLNJffZVbPdoUDvtHYaatnCu6/TyxYwfHTyfT01RLTbPjqskq5rkJRqdmmF70KlP0wdFE6rSpGRt9JAJSskj2X6S3qguHJR+WE9mmaL5ZScRT+8nZW8bY+Qp6Vxz2jbSKOEFAEBAEBAFBwBsCrjUrb9IIGRcCcvzH+MJnThPY9m/826vla3/mUiAhoUYkdRatI8vto5oxLzk/QQRqi5PMeK4yqGMdDFugIHMXyYYqulYcJimwjPw0g5vatQCJwLyP8cnnl/fxrf7hP3C2eWYt2u3IF3mVhabrtJsPkl14kMK5nfiba6hrmnGr+CjDjfTMS5Tl7ifR0MjqFpJSNKUf+30Ox3Vx5cVvULNSfmX4Hr0LsCvvaXZGVFK5smms5J/HgRMfpCi+je43PVTGvOSpDDfRtwBleacoDqt0WNX5CXbnhcDCLbqHt8lhUGbov/0jvl/19uoqz2Uf/hUM41/i5bvOvU5S2nF2xVzkqnaxtaGLoQcoyw0BSz2DDjX1h2q/2z2yQYBX/K0MdTaycPQEhQdPcKHtndUtjAzxz3IoLwB1up7ODbfpWqKDMeVjHM0PRJ2spdVBXpf3PD/9wgEYusO1/3yd8prNFxbboFQbRJkxW1UkYwiB2pvUpSFjg4QbRinzw0zaIDUyg1hdB4P2W9GQQWq4+yt7+a3hsrK1loMcSVyo1nDyLk3k1GzQy5zMk0mQYWzQxlsjnrZj2hDH9kRKQSSnx6BXJujq2mgv85XsfJXfopVy3E5OfWCnh9RlnE5wD1YG3cOWQ3QExcYQJMko0ZEYZ6MItQ1Qe7ma5hGT2ztZu1knmq/xzlgWO3ZmE2Cbx77V/JI+KZiMfU9RomvknXONzASksedgFot1F6nVFjOUoyg6cYi4/ktcaJxGlQJJ2/UEpcE9XDtbuf7cYSmMjOxY5Ol7NA94fmDUhR6qq+KJOpTG7j0jTF5t5z00WGq9CyjCBQFBQBAQBB4CAfda1EPI9L2WhTJSRYf5czzzxP/gi6mVtPSPYVb9CEnQHNMQrH2vcKfX2clZYqCO09HWhTWzlA/8/B+T3j+FTavFquM0nf936saXq7Tq/A2uVvSRf/gjfO7n/bh8+y4z+kTy9uwhZs4CQesR9SN9/5OkRPghkcPeA3lcat54H19f5NX5W9S1myjIeoGnLWFY26/T5LgKsN0s820uvFNFwUc+xS/8ViZ199qYUYKIyjxEcWo4M1Uv0+5Ys1mSv0PBhw/xiS/+LaX3GpmwhRCfvZe0cBi98SIVDo6OPRuNmzc8Md/iwtka8j90hE99MYmypqalfXxT8naTEDRL26vfd9/6ZTWTLR4oswxWv8wP77xN7I4niJ10d9wX+63s+MWvkd10h1FbBKmFh0gLsTF67RUaHLn6ZL+EMfOjPLs7bXXuZ2BSDBL+pB3+TZ4vXmlssTVT/vIb9Lqb5X2BveRvuvsdftK0i48U/Ta/9TsnaOoYxGxMITu/mAj9MNU//AHtHh4XQ8pzfOiju1HQ4R+WTXZeDqH0c+u1H9DlIK9ONnD5xbe586D37VVH6BweY2dmLkf3v0Da1Mzy86sRUwdouFvFiAp+kfs4kBizyt8/VNvCxkBc2jMcj1vh7yCPpZnavnFS0vZxaree2r4+5uUIUpIyCTdbwc/xklgZGGhkJmEnO4qfY7GtjkGTFUNAIukpxcTJnpwex/QP9lgfLvPBDB3hqLzcZfXggD3Y/O3apdA00iN12EY76XF819gFXH59lXdJ7vXptgx1lgKIK9rP/vxo1Olp5PQ97Giv4dqFTiY3bPNQWRxr5fb5Vjd7/RIKyYuy0l/RwdL25GYFfWgEIeGBSMOzqMokoxMK+RlZRGsr29vmaK+qJ6O/9MMAACAASURBVPlkKbt3DnD2Vr/DvuN29RKG+GwywxRGtMYovwACdTp0Hr56/STDM6mkx+1gV+YwV9pcFna0qxS/goAgIAgIAoKADwSE4+sDrHVFbZ1c+tb/ZPHpn+ZgUSmlyQHosGGe7afr1j9z9szL9Nl7bZyU2Bi48Bf8MOg3OFm2m12JBpbWLVL6mL/5H9SN2xMt0PbGH/Di4i9zau8pnvnE0yyM1FN99hvcK/grPr3ulqxmeqpuMJzzxNI+vrVVrWtzyZzssJ/4KK9O01RXhyV/H+EGE411t9fZ79HGyPU/4+9nX+DU0eMUH9qFUTIxPXyP26/9kHPXa1w6u60MX/sT/m76U5w8epyc4lPkyIvMaENWL32Xd240rJuPdzytDF39U/5+5gVOHz1KVslp/JlnauAGF15+kfM13WtDD+1otutXnWe49h2GPembPMMPLmXzU888w4G4UJjr4u75F3ntnRqXSqRv9hti97JnXxmuD3t07mlWp39aA2l69T4dX7y8n5U+yr/9RaaOfoYjZbvI212C3jzOcPtrXLn4PW60e1oITkIXs5cDMaCqNqwLIww1vcLZC9+lwqUHT+mvoNy+VLQnztsWZmO49b84J51iT2IaWUl6VjY2A8WP7sZlx1cflEVecsbSSs2OWYdFlxBmD3CQBzP9Td/jbetJ9iaVsK+4FPNcNy1tZ6iN+Rwng+2Jln8XR97m9Ttz7M8sYldJEX6YmZ3ppq3zdSrCP8GzLvLOqR/sWWKUTIgElnEbVzcabPJAzZCJSEslTLYw0Nm7zrvD0QBf5R3T+nYsGQIIDQ1dey9LgRj12srtgUvhq+1QknF5BWhXR9YQTcGhgxTF6pnpuMnVqn7k1F0cKt3DybRCxoYGGZuaY95kxqoo2JcHkCQJSZKRZRlZczxlC6Md7YxqU+wDUigrS8UwVktDz8rS17Y5tIXDo4K16SGaE2pjpKuH+Yx0MuLqGOm3os62UXU3hZMlOynsGqZ6aR61TMzOpzmSHYQsS6tTSwJKn+ZDXk1Y9iO2uJT0gWt0ODb++YZZSAsCgoAgIAgIAksEpKKiopUuh60RCQ4OZnbWcS/IrekRqQSB9ysBOf7T/OYXP09UzZ/yZ98tX6sEv1+BiHI/QgRk/AMiWNptbCOrlHmmFxZcpqBKPHnQj89HQ+0dM3/d8y4Nc9bFsusDR8nU9XDjrZv0eR5hu1Y6X+XXUvpwZCTz6HP3v6qzFEre8SeI7a/gZtPY6qB22RhFSkYaSfHRhAcHEuBvWGdLK210goptpomL79QxThi5x05QEjJK1flrayNxpBDynzxN4XwFr97oWX5HyTGUPnOMlKGrvHl7cLmxUBdD6eljZMxWceZqOwuqRGBCPrlxfig2BUWbv26zYrVqv47Hy2FWq3VpyzTtV/vq4vdw8mAqascVflI5JN6NPtxhQlQQEAQEAUHAnYBrJ5C7hAgRBAQBQUAQeH8SkMIp2PmLHAjfeHVfZfI8379ZjtMivXqJPK1L26xwefBdcnoBQ1w6yQFg6uhkcDOndwvyW7sxbMwO99A12EZl85gXI0z0RKTlEK9OOsuq07Rcfptmm81pGLliGqOrUfvarZOWenfXdkJTl3p/VXWtF3hZcpquO5Us6ofpchwSri7QV1fOhNnBVmWM5mvnaJlzsMk2SuP187TOT6wscqgyP9DInQG7Hb79WvobqLozjKlnWDi9vqET0oKAICAICAIeCAjH1wMUESQICAKCgCCg9QbO0tH8Y6a15cY3+KjmYbchxLpQmWw9jHfZqPXC4dxA/X1FWforePW/KrzW4au814qdBC0M36vwPOXBSc5+YmWiq5EJ+6nDr2KzT4lxCHQ7VJd6W92C3QJUFid66HILtzIz3IfzaHWF+UlXi1QWp8Zdpma4KfM+QJ2jv9VlX3jvUwtJQUAQEAQEAUHAiYBwfJ1wiBNBQBAQBASBNQJmpsabmFoL8PooNlIiApW3epTVIbheJxaCgoAgIAgIAoKAICAIbDMBMcd3m4EKdYKAICAICAKCgCAgCAgCgoAgIAgIAo8WgY0nbj1atgprBAFBQBAQBAQBQUAQEAQEAUFAEBAEBAGfCQjH12dkIoEgIAgIAoKAICAICAKCgCAgCAgCgsDjREA4vo/T1RK2CgKCgCAgCAgCgoAgIAgIAoKAICAI+ExAOL4+IxMJBAFBQBAQBAQBQUAQEAQEAUFAEBAEHicCen9///u2dzt03LcRQoEgIAgIAoKAICAICAKCgCAgCAgCgoAg4IGA6PH1AEUECQKCgCAgCAgCgoAgIAgIAoKAICAIvHcICMf3vXMtRUkEAUFAEBAEBAFBQBAQBAQBQUAQEAQ8EBCOrwcoIkgQEAQEAUFAEBAEBAFBQBAQBAQBQeC9Q0A4vu+daylKIggIAoKAICAICAKCgCAgCAgCgoAg4IGAcHw9QBFBgoAgIAgIAoLAwyagCwgnJiacAN3Dzvl+89MTkZZPfmo4+vtVtZR+u/XZjZKQZRnJfvoY/0rBCWRlJBLuv/XSSMGJ5OVlEhfkXhWUjPHkFGYTG7h1/Y82XgPhSRmkxwZtej9IsswSISmElB2l5MWuLAqr98OwikciMCGXwtwEglfDHm0C77Z1kn84Sdm5JL3LwPzC44gOfLAvXe1Zy85Kvq/n9d2+Xvb8t/95kDBGJpEcG8yDvQrLJdie/yg7DfErCAgCgoAgIAg8FgQk/KPTSI/yY26ond5J6yZW+yq/iTq3aAljYjH7C+Du+Wu0z6tuEo9ugJ6wpGyy1QU6uifZjOTm5fBWn0RAxkGeKrJQ/dYt+mwba5YiCzlxKJ7B6+dpGNf4+hEaG0mgu9/nokhhYWKEqUXnayKF5nLkcBqTt85RO6K4pHE/lQLCiQ0zbuho2ebGGJmxuCd2CpEIScqjMMdG48gAk4tOkV6f+EelkZNjoKm/gyGXVProVHIyA2jtaWPYJe5RP/WLKaAocpj6pjHWJSkZickqInfORPfwHM5Xdq2EkjGFvceymbt9mYYJfyISkgmdb6F52EZM0VH2BHdw+Xobs6qeiOQcsoLb6W8ZWFMgjtYnIIeTmptHWPgco7f78OY21pzluJhglwY2hYWxQcYWNn8G3YyRw0jbsZv8MBuTvc00NHYyvvKc+6cd5NTOmOVGD5eEymAVP6noXf/+cpKXCEvJoyDTRG1fH5NOcY/XyYN5HiRCU4opDW5mbGSWBe1hlAOIiA7Fb9NGJJXF6VEmfbj2wvF9vO45Ya0gIAgIAoLAdhCQAkkuKCYvbJKG3pbNNfoqv7nGR1JCjt/FB/Ylu1QsQZ1v49q5Bpb8RR8s3259PmS9uagcSnrpXtKNm9SuVDPdN9/mzrCre6T1IOuQ7cmlEHKPHiM/zN2TVkZquNATx95d8R4r0svGqsy3X+Nc/fi6jtiSnBRCQnww6tQ9Budcbdq82MsSesKjwmCqlYFZVx16omIjkRe6GXGL81b/uyWnJzgqhoScDIJ1Fdy8O4p5yRQDQRGhGO2XRgokUC8h+YcQFWVm1WWyzjM5tYC9DUU1DdI1lM+egnQ6b0ytFkoOy6IgWaW3opslRFIwYaEy1okJZlxxrqYSB44E1IVe2vtz2ZecSUpwP63e3GvByRSXZeI6EEGZuMuFq33EHnqKHVH2i+yY2/Kx23tMmaLl2gUmMgoozivmidhYaq9X0GW3RZmm+24HE/YbQvIjOiufBHfV64dIYUvPqzLWxqDp8b45HtbzIPnHU7BvB9HrX8oV3grDd96mvHv5KV//IqzFCMd3jYU4EgQEgfccAT9C4xKJ8LcyNdTHpEuPzXuuuKJAXhOQQpNJCZexjfbQ50Xvqq/yXhvyKAoqM3TXNzOy0l0WkFBAfvh9GLpd+qQodpw8REaA3dNcs2n3cx9i9+qpwnjDJVqCD7E3tI0LV1vx6B8qo9S+/Rq1WroVpzVXbeLilZZlZ2ZVnxYfTsGJwySNXF/fMVVNDDXXsegHUmACudkRzLY30qdVok3jWA1xoAxR/ZOb9Lh2RS6V7SBxjnkiERSTQrRLLV/yjyE5VGJxWE90ahpRTmk8nCyM0jM8t+zcGUKIjgpCLwWTEq3HNKYQEhdPMKAuTjEysYCijyYx1oAyIxGanLIUt6ZVxTI1xOC0awHWJN7dIyvj925wkwPsy9nLfuUm5ffGsUihZO7xcO8E53Mwes3iZQfK8X6xMNzRzmCWimG1Ei4REGJktvUOd1ceEikggogAlan2qTUnek3t+/ZICsri8IkiIlbZeUJhpPDJD1LoKUqZ4t6lyzQ7tiaoMzRfvsi9KRUpIJ0DTxYj9/Uzr1oYbaujpteTopUw6zRzrtHKAqNtVVwZHqEo28DE0v+B1qilvWfmGOnqWhtNIgUgJ+Wt4/jKJO55lj2J6xQ2pJSnP1TqmrvbudZI9s6NLvcecMmPiKQUoo0Wxvt6GFvqGnVL/oADHubzoDBYdYaK3nXGEOmT2feB0g0aEj2jEI6vZy4PJ1RO5MgvfZ3T8Tf53pf/koZ1ru36xhjIf/7f+cyOQc7/3Ze4OLTaZrl+kgca86jZ80ALu75yXR4f/O+/x6Fwzy8/ZfIs3/zKd+hYakGUiX3qj/hvp1ORzbW89JW/odLe0hj0BJ///Z8n309h4O0/4m/P9S/9ocopn+C3f/0Z/Cv+iq/86O5qyzToyf7YV/m5fSau/O0f8FbP8v0gx3+QX/+tj5HoMHlCVa2YZ0cZaL3JtXNvUT/sYZCRHM/RX/syzyRW8Z0/+jvqfb4/10f0sGKk8GyKClLRpsFZgy1cvzskKiUPC/4jnY9MRHIyIZKFwZ4BNm+E91X+kS68F8YtMjXUT99SxUoiNDhnyfGVjFGkJoZjcNOgJzJAQlJjSM/SY2WR8Z5eJlYb4bdJn2WWnvo7TK7UXHRhaRRkhGPuv0ez0ztMZVEb/6t5c15+pMBYYkNUxup7l5xkQ3gqWdEmOlqH3Sug6+q0MDXQhdYvKIUFkJEVwsxQF12jy708+mTHhBJ+IeEEqXNMzprX6eHVEZ5ews4Ez/8lxOVS4uwpO2aweqwNy+xfcXyloBRK9mavzUNNKmZv0rKoMvz/s/ce0JEkx533r9qiG941Gg3vPWbgxvs1JEUunUhJpAyl08kfddLJnr7TSU+O7yTxnSTyJIriiaIkShRPdMvd1c5yZnZ2PAYDP/Deo2EaDY+29b1qdAOFhu0ZzOwst/AeXmdlRUZG/qsyKyMzIrKJN+4NQ1IqJq2AJj6HI9u0ai/znW9hXXCty7zHYoTEVVwd4M6VVmZ9EAhE5p/jfGE0KreVxqu1jAQ+Pbo0jj1fgVmzzv9G96KPvxBTzMWzOWiG7nGlZVo2fqtILH+eExlu+m6+SbtdvpPmYrbzHvc5QU1KKrF9NqZcs7R+77u0BlARIsk7e5785Xr+o35CxjdAAPgm1pWY/fCnBJ5fySUu+cgySCkQWey+yd2VRGJUKtRlL/BSmYyHlPTaePiOc18IasNjXXqxD7YxNB/aHFUdm0VxAPMd6xcIM1uIE6dpHV/xvS+Lk0Ms7ki7f6ZncYSWxk06rU4HrmWc8ldr8/Z6ShVOTKSL+XmpD4vYh1ponpYtzAl6TLkFmAUrPT3WdTPeYB7B19IiWXCeNKbEF1BdkYW07ueOdnG5fkI2/9uhwGFnHXZ/cIRjSo5FL0jfGDXoY7GkunGKq9hshy38Jj9F8d3EQkkpCBwOAuIcAw+uIUir9EIc2VVHMTFOR30n86JkMtjFQtBAKs5NMhtVQFlhJPUPFqQhDmN+BdmaGWbnHmerJdAkEc9UM/e7/RMHQYMxsYDCIx/kk4XFXP7in/HW2LO6gh9oQ+i/4vIUk7YYEvQu5qaVlfjQEfw+LaFOIC3FCI5RRiY3tLPdGxsq/e6c3tF3BEMSucUypWlbaywUlFhA2qWZGmNuzxkjhM7PgX1iZN1HThVNflY0qoU+Gpt7sW2bKaowbZNvtwyBMJOZaM8UzeOrvgm0x6MlPq+YWM8tageWdlaMdmN3oHwNpqLTHBUbeb1ubMeJLrgZq3uFMRk/n1/xuXzU/bd5q33u0eQS5+m6cYuejV00FUkVL1IlrWgI4aRmJqGxt3PtVu/WnW9VIkdeOE6UR67ArDE7MohvNUQwEJ9mJooFJkdm1yf5rlnWZPL7kitLLIfFY0nSMzK8rvlqTWYSVCssrYQFUz/itaT83uVqnweXS0AfnUiM3KRdMBChFRDCYjAledeVeF9NXhwLNuyrHvBM0X77Fr0+PUZDXF4FRUl6PIujdLYPYvd/Mj2rDuJL4lC5ZunrGPVjpiImo4R0wyx9nQPM7NMXHrGR75BiIsvTQwxNQLg5jailUSaW/LbDguRjm0WErZf20SXZcwCNJ4niVMPubRSMWFJicU/WM7HtJdu92IHuCGHEx4fDkt+UfbdCmgQKT2diu3WD7gWRlelhhmS0qphCssJE5jra6Rrc2j4Z2YGS4sIko9NxJOmdzIzbH63vH6imXYgOuT8IukRyj8rNmVMpqUgF7ySNb037hNBHm0hyBezMg+RSRyOFmQt15qoovkE4KpcKAqEhoCe2oAaT/Q5dgR137xQP3/gqDyVG6iI+VCIpvl3cefmf6dul/+IZYHAonvLyo0Q+uMEiRnJLilCPNzKirQkyfwtNwgC1e/QGr73cKJtgqYmt+gV+4YcqufiekzT8vVTvk/9TJVVQHjNKe9e03/fqCdbpmmGgZYaBJ1iFwvqdh4DWlEayHlYHR5japjBtb0+o9Ns5fH/kSGag177bvkNjwsg89TylYuvOJno7lJCyHomf5FMrQnT+UfLC7XTd7lpXelUxFJ46SsRIPfVD67uFu1S7PXtjAv2AwDqId7Gfpo5EzpZUUTB/m4657cWefk4YKQXZREu7pX1BSq8uleoLxQidN6gb3l8LEL1evN7NFVjRn9QkZJMdJ/nNjWxVen2NVaNWg8crU3zFZcY7WxmX7qsSKDcnEYmN/oetzMjItmDltTNrSybFkoR+eBgHWkzmBFQLk9hVFiK3ED/OhRuXb1asIjanmmOpO0x5w/M4tmVX28tc+3Vu9S4hik6W5qStJwFjaiWZiVpECaiwJArLNHQ3NtM360DUp1No0iKovCxNDDEk6fJCOJr0EsSFCfqHJrcr/4/TrHdqWXUUltwiCqNzmexsoKlvDpcqAlN6GpGuQXYaWfZqqhCZSmrMKqNtUyErPz6+Qhgp5RUkrw3TMzDOvGxxQmcqICceZluDLIJEEV9fUWtQC+AxGgkTPLh3+o5I/PMziXSN82D48ZRen7zOaTruvUXHXqA8yXuH3R/cA9x5RZqdqTAdeYFjEd1cvTPgWzATDFmksd5vj+fs1ShvyMH3dhgF9qpAubcrAro0yi/+GKdKSzBFR6ARPDgWhhls/TZXrt3AGuhQ6lLe/6t/yIktZrCn+ZHf/46MtYu+7/wM/1An+9KqTRRc+E9cqjyCKULF6lQjdW/8A5Pibl8WiZ1ARNHH+dhHT5HABM3f/BuudCxsWVGTVRoafcjy6Eko/kEunTlHtjmRMJaZG2+k6cZXudU9td1cYwt/NWuzbTS/+RXGCj/Dx0u3mnarUj/Fp3/2I+gf/B6ffblZxktDzge/xKeqV7n1xf/CG6NyrTNEebYCBdJqYNF5Tl64SJFFRfs/39tUfINpD3AthIuM3OnmyPtqKIy6SZ2ziOJcHWM3+vCcPn4ADo9C4mGu6Spt76vkeHouFvUNutjJTLuGH/2TL8sqcNP7zV/n/97zB/oQEjnzC3/CDyTX8/W/bSXj/R+kPCMencuOte8e1197mYczm7tqQmwp53/sJzk73sCD65dp6JjkUF1vhTjyTtSQIl/dx8Vky5t0zgb3FzVJZc9RGDnB4Lgec1osWuc0/R3DaDJLSY/V4Zrro6N9gAX/h02IKqCmMhPN+APuds/K+pOK2PzzlFvcjDTcoj94W1+G4EGT0Ynw6VKwADcfwtemkdV3UC4K3VYEpOechI5lhkZmD7BqHir91tpCvlLFUfr8S5TuWPCAwY92LHtYmQJ6ox73yppsrH0c3qHw05N85CxlUS68kTqsjffpW5D6tJqYvHJyokV6W3eP0LtNSsFAQnoyMYZ4MmIF1IYinz+iRiMpeBp8vyqBnCMFWG/J9123cXoqGfrkYorMauY6OhkLmAgHahbUaHQ6VGrBFzV6U6UNEBzgVxVNTnEGhuVBGseDK5CmCGrUKvB6PI83DulE5gZspBRbMIcNM+RJxJygxi4p89l+u+sDiBtMss2fdMMXVPIVfI2XG0ClViMG5NeGExulxTFvZ8UNQmwxF08nMDkpe4cELTGZR6gqSWStp5PZjELC++/TG1ZCxclzJHQ30uVJJ1GaTYuRREeqwOH1Kb6RRgHH+FIIpvLBLXrnX4vLfdx8pc/fEDs9d95iobCayuKTHOMGd0Y0qBFxu+Xzs3Vy9+h9XtnVX1dAFx2NUXSw5pLe9nWrheNpuv1Bc41y/3IDk4IWwasiLq+Kc9l5jHY20zY4jyapiKqKNPQLPdSPrFuAbDJ1Mm9fgdxyXnyp3JftXezGtoO/rT65hKIkHYKQSs379rTZlpYBdw7StKMrgYuR2ss0BjZbNoTTkFrzXipixugc1pOeHY/OYaWjcRBN/hHyEnQ4Z3poqO9lLjCfCdWV4Kn2hyAfX8FIzulLFKw84PWGyQN8uzeA2ZJQFN8tcDzqRRTFH/wDPnYkxqeQttVbcaAnylJJ3ulfJS1ezd/8yzWfmSuijZHWK2h9wSqMJBWeItUwRX9TC3MbXyoP0zPyj46BrPf+Pp84YUFc7KbjQSeL6mSKP/RpLOuOM7sIriX16AmSjNJjTqXsaC7XOxr2WBk7KH2o8qhJOP7f+ZkPHEUz10zLvTdZIIH00vM892NlmL/xm3y9eUb2IQ3wN7MydJmrVzt87c09/Quc1sgcVXdp9f7Zocoj4ygYSSyRFN4LFJiNeOzdNH33MrW9Oy33ycrtl9RFIvbXM8AnKC2KpmWpklzdAG91u8h+XuYvsh+fx70vzjPcdBOdz0zbQFJRNWnGGXobOrBv6IxerFObiuxGleo0zn3UzFT7q3z79hrGlBOcOfcDfCItgX/73N/S4lcEPf2XefUNOHmqinOfrKJmspH665epbxs/gK/lRm17JBzMT42i8h+wqI1IIn6fLQRBG0u46yEd7QnkFGeRU6JiuLuZNnsuRdl55FqmaByWTYb2qP0wb+VZIE0rLWHBaQt8Y5onv0t+mA14BnkJBgtpiRq8C6OMSr4H+/yFSr8Pu/1viytY+4eZ29F+S8Q1t7o/j8elUCVQ9sJLyF0VxZV10zOt+Sjnq2MYvXODdtv2yeqOVR8aPyezQwPYK4tI8s4z5livX59USmVeBAvdt+kJyY/QgCkrD4uwytrMFAsOBw6nE2fg3+XC5Y0mpyKHovQ5ZEvROzZT6qmxJZc4k7N5NmzkqZfIws3o/dfXg2jJSoYysgthKZSWpaCb7+J+f4g72rI690x6V5gcGsLt6MGuTyBRY2c6sOInFVSrfYFkPJ4DPvfdKtPoYXacWUpJTgpjzGH21dUz7SWhYLdC++eLzln629uQ1jwFg4mczCCzaVU0eaePk7TQTWv7EPNR2VSfSGDkphQoSSA2xYLB3s9YIBKaNpaciiqKkrTM9z3gfo9IYYak4K5hfXiXu2tVlEUnkxsXCws25owxREaFIcysQHg0UVqRxfkn9Kz2h+OZotBGx2NcsTHvWsXafpe7y+noJpdAk+SLIO/ecct0ryaIOEbb6Ew7R1F5JpN3B1kYaaPZtukP7/MRTlMz2dnHdGDzSWIpLq/Px72LjLbeZmIgmYIj5WQXl7Aw04wnM5UoxyhNdV2b0Zw3RPEy13GDa+MxhEtzDK+Tpfn5bb67QpiF0hILYYKIa7qH1uE93gNNAnllaRs1bE04sI0No/af66ONNmOO3nvkEHRxRDmbaWiYp6Qql+JqNb0tDdTN5FNVXEhp5uS6RcPWiva/epr9QRB8Y40os0rZX8CDUSiK78Fw2ptKW0JpUSzi3Cv86xe+xGBgwiLEUfyen6MyPhWzUWBeGky947Rc/j/rH0ApuFXScVL1vdx/+fO7B7cyHudkpQXV8h3+/Qt/tqFAqBM/wI/+TOEesrl8O0+jaSdIYJLWhp49lF6JzQHpQ5VHV8m5S0cJW7jO1/72L+kIfFRu1/ODv/hblL/wUTLbvshAQHeU+FdZEGZf5mtf+XuG/Xg2tw3xsU//lm/3a49G738rVHkkjqpwkkovcvLCefJNYThnH1L3zcvUNQ+y/JhzAJ/AQgRGTzOtAz/CS0VHKVosQj/6Oh2OSEr3HuP2b++uFGpijz5HSSS4unoZ97VjkubX/oFmX5ul4FaVpIUNUvvNL+8b3EpQRzN363/wtQb/KXUPH9C3+tv81/dXc67mZR76g3PhnKL3xj/Re/c/yKp5gVNnjnHmRyqonmqh4frrPHg4SghHsm1vnbjMVF+b3/xFICIzmvjIoAlQcClxgelJGwueZayLmUQyzcTsPE77GPOZicRFRiLw9BXf7jHoi8YXQfLOWOi+LMHNVK4FwlPTiFN7mRsJ+OLthUqo9HvxOuA9cY3pgZ6DneOrTeP4eypI2pzrHbCSILLg4Dt7RGF2TfUztHiWvLI8xm92yhbEgnjKLw+Nn4jT1kfdDTv51TXkHz9NWM8U4TlpqCebuNcToh+/aKP9+mWZiaVAdN5pjiXP8OBmr38x2sqqZw5xzkFqurxRO6dXxjpoXtT4ojoX5MWx1N/O6KKXFWmRZYtJrYCgAtHl3X/nQhNLfs0RUsJEpjoHCUm331FMLREJZszhgYUfFbFSxByPi/nBVqYFAxnHaygzjlJ7s3UjuregVqPGg8sTKLcj8wNkatGKU4zPQmlSEmZHAhp7H5Nu3eN93112d/o6CgAAIABJREFUxvrXvz9CtJa0TNmhM0IY4foluu/V4Sw9yolzJrr6HLIzlbWoHTP09Y6xEeTd7UIUHIw21tI6ugiGVPzrqb75kr33Pi2F5zhrcTLR1sJsxjkKY6JQs4IQHUski/RsRng7AC7fpySqWPIqT5KtmaW3pYku6yr2oX5fY6XnpBFElp3+YGmhQCAuM9w1QvbJHLLjh2mdGWFoZpPBuo+wDtvYEEMbD3XzfiDlWZqg/Y6daZMO2+Ii3tYW1GYd6oQ09uryAi7mrTOsBuauAYbqGPKqj2LROXG4dYjLM4yPzezez/Ua0nZTfMUlxtqb/X7+AlEFMZij9/B79skwz8TwDHOeJUbmcihDOpJrDsfMCLOFSSTFRKFiKXSLnSfeHwTU+mhMsRoWl1RIqm9y9fv5YADXwG/cMT4g30D3TtNy5S6D+3t4+Dgoim8AyMf6FRAk5cTtwLWxKyatKtlof/0zso/qo1WiiksnUQur7W/SLjOf9Exfp3XkU+Tm7sZXZLnrm3z1T7+5G0FQ/sHoQ5VHlVBAigGW69+kO6D0SjUvP6Cpe54jlcVkxqsY8JttqOIyfGZDKwMNbIm3tNJE14iL8sdYEZaqDVUewXSaD37yIxQk6FibbOTOv73Bg7Yx1uTPOgjJkC8FIwb9IvXNXbz04ffzwpqR0bcasOvP+1avg8fVkPlLASrTLvCBD5esD75ScKuEfPJzzIQ5+vjeG/ce37/XM0Bn1+Y5h5Lpjq2njWkxl0SzBRXrUak3ZJf8b+/8KwP3Xye96nlOnj3JqR86QtWlJt78ly/TPHWYAG/UukvC77cjxWX0VSvFZ5T68PqvoFo3H9yl8BPLXpiBP73xxNi/+xgL0aSlShFlpxgZW48CuicIodLvyewJ3PQuMz0ygvOxFd8lFt1yZWbnKMy+Fnjn6WsbIvVkDmXZY9zq3WMnY6PJh8tP2tnrqr2D+9hpiguzcdu6uNs0yoooYMyo4XjaIg9ruzZqDyUhaHTo9VrZERleFqasvuOM9ucjRZMeZ9guRXU2kp0bxaJ1mOFAVGc5A0GLTgvubbNmORGgjSGn6hj5sdJ0zbvuY7rDzvJGqaCowuLaIHevtGz1t5XOpC6rQT53lMp7p/xcxFWGH3ZiOVvCkZJpbjRNrlua+BXfkDfnNoTzJ6S2qx2MjM9QWpZHoUuLvXeCVU0GGmkTLZj+EK4ln82TlQks9rfS0nSLuRQzGnecNMj7uTuY7mli3a7BnyUu0V97c/1CMJBZcQTzYhvX+gOLoF4WR3oZNWrpnVhEFbmEJl2K7jyDRjoH2TGGTT7nOYR2vCNZeOfovFeHWHGUvGNniWmvpa5v3qd4CQYjBhzMSMHEHuHPYxtnci0Tc1I0wsx+518Lvm/6jtWIq0xb161pBHUUacUFRO276eDG2nSNWrlPvSaa7KpjFMQ6GWt8yFpeNelhMSQk7P5eC9oIJAPtHezodhR138yAH7JvvJCoZfMZEQRBUiof4e+J9AfJxSSGaKPa52pw4QUVKvcoD+4to8bJZHsjgxt6j57kkiOkOnp40Du30XMRnSyGAJ6i+D7Cs99WxNVOe9c8JaUf5kd/xkxbTzfWqVGmJvsYn7bLggltK3mgDEGjR4OIczUw2AaKOVjd76MZID3E31DlEXRh6PCy5vCgDwuXfdTUeBzLiEI4Btm5jNLEQ2qv2xX8JntwOR9tcJQ3P1R5VHHZZMa7Gbv5ZV7+XhuLT+KrjA6dTmSp4w6t5z9KptBCw8MZxLgwX9S6x1d8BdSJ5RxPXEdCFD24lmeYaH2FO1depcUajLUcsYOmHTh9vjab9F77Q25f9hIxM7E5SG3eXk+55xiu/X8MP7hC7gs/xQ+cLiA1TvWUFd9goZTr70cEVHFppESAc3yECbk3yS6NDZV+FzZPLttjo7/5CZ77sIvk7pluOidSqMwtInW0jpEDrrTvwo7Q+akwmjJIjdHgsvXw4H43dslHMzydsiIT6on1iLuxu1UoyxcM8VjiDf6JoIAxUoOgjiAxNRWDXycSV2cZP2yYBSNGA6xM7LEAo4mn6NRx8qI8TPUOoc3eNIdcGe+kZUk2hdPEk12cgjDeSf+M7Hgkz+L2IFXiPJ3X5WejqjBXvpdqmXukuDRIc3sS58rLKJm00ShF/dJo0eLGvWWRRAbmgZNq1BoRx+QoEzmFxAlTjEyuIho1PrPXw/gaBYvitLbw1p10SiuqOBvbzp3aIRaTEtHgYQf30vXi6jCioow+ZVwyNc+ME1gcWMUQG8fmntsKg10SxiKq2VkceSaSEmbRJWpxTEwy90TmC8Gte/avvatWOu7dYuFIJSket38eKPW3CNTiMouPukAgLrG4BFkR4WiwIaTWcD5vjZabrczKYNGaj3CuRODhW01Yd5tQaaOIDVtmbqGL69/tJiLrBKdzVmh8q5mpgCWnxFNaBDlxkTJfbBDZ4KeKIf/kSQqiXVhb79M8piI/T0BnLuaEWSbMjsnQgzTtyOZJZh5yfxAi0zl6tABLjMEXKEx0zjHS28fwmJX5iBLKWGNiaoqpgOIrGIl0SZ4G80xPTcl0idAaLRs1QyuoUMsRsNP67d9FsP8op49Wc+zCGXznXoteHLYG7nz387wpX52QF31XpKW1JTWJZ/6Y/35mhwZvLDPvcO+JZIUmjzg3xKi9gtyzP8dPFz6k4a3XedAyzMphftAEDWopROByLf/+2dqNVqsT1yMHbmQ8ckLE0fA5/uhr8qjOj8zs4AVX+6h/MxDYYrdiUmTsM5w4f5GS9Gi8cw+ZUGYLu4Gl5D8yAhoS0yy+3YWREes+bh9SJaHSP7Jg78CCDsa7+8kxF5CfG8d42/JjtiEEfpooUouOUJoZjcf6kLsNA8xLE1lNDPmVJSS6R6hrl6K8HmwbXFrYrKhMDqIOI7/Cv0oo7YSOP2DCtvKYbQTvkpWBQYElX+yjWGJ1ArqkAopXu2gfXz8WyDkvm0h7llleWWZ8sJGmqXiOZQdEEHHMjTEkdzrWQ3KRBZVtlKGh4IA8gXKh/IqsDD+kJ/UcxaWFjM60MKvRIp3SvNvpIgfnrkIlmck5x2h8czNomCpcFfQcDs5xT0rBQKwpGr3gYKJvACFeR3SSmXhztM90OywmCbP8zGf3MrMzi7gNaRw9XcSWWKQ5xzizJcqsyNrgXa60zOC1jTG+mkFqeTFq3Rqj47bQzUn3bMg776YmPJ64CM3GDqN7oodhMQJTkgS4mvikKASXFU1sEkmBzfegZnpX55he2GU5RFChkrq6V4UgaIgzxaN3925zQXPb7Szri0k3t2Md3YmXQGTmEU5lLfLgmqQciyxPTbJYVEJx7jCzHXP+ZykQZikhPwFmH3ZvPRXAu8DE0BCs9tMzvYYoSEdRyt6PoHZtXOozOPGCPKLCxp1nKiEcdn9wq9Hp1rD297MalU+WapTuvnGfv7QmPgwtThw7ParHREVRfB8TwI3ijmFaLn+GlstqdBFJJCSmk5L3PGdOVXPhh3+O2b/4XzQ/6orWRiXv1IQ0mnmxN/0N36of32Hnz8X85ONokbuMlhtwBd8PTR6v9Qbf+IsmLEef49T5M5z4WBlVlzpovnmZusY+FndbPdyo/yAJYX2xJJj0UU1Sgvk8i9cqI4lF5zhx4QKFyeG4be3Uf+tL3G86JL/pJ9bm4PfpiVWkMD5MBLRJpCXrYHWAkZkDWI6ESn+Ysr4DeIkLg3T3hmGwLuI9BHXlQPyEMFIrTlJh8mDtuEtz3+x6RHhVBBkVx8iPWKDz7kOs8t2ZfbD0jNXxyobuJRBTdJEzqdPcvdLKltiRvknsPsz2uC35x2Ifos3ngioQZbEQ6V1m2WAhOXaQ9jEb452+Q/A2uYhrjDy4wbAoIu1MP/U/cYmB9n5MknuRFC1ap0OLC6c8UNAjCeV3DwsuKzwhlxJNAvk1W33h5f7a2ZXH2FhTkFSVxR5uXu/AvtTDjVd6ECLzOHM+F2fLde4PS4sKYWSceI4SsYUrtSObJqreOcbGl8nOi0Sc62Bg9gDjTDAG31fX0jFQZRwviNpQfHduXjIlx2T+2FuIRBxDtXyvOWiHT9ASERdFeLiF9FgBx/ASbk0iFpOGxX4r0nRbHgpVXBtnZKqYo+kpGMcGNv24A3Vpk8jNisFj69uIeCwuD9HWl8aZvKMUz9ymddqJOiqbirJk1LZ2Hg4FW2F6WRxuf3y3sYBMz9iveMj9QVwdoPZq4DijXLI2Fp8EDIYwcM2zllDF+ystW54lW3x8ZcePHRAvRfE9IFAHJ/PgXBpnXPofaGBG99f85PFCMpPVND9i5F/R7cSNQJhWZofkE0iNVifv2geX8nEoQ5VHdK75PgzqpWGGBjr3XQEV3Q5fe40GY9Bgqcdg2P7Kis5VpO9wpCHc1zk2PzUawqTOI9pwyM7LCVUeH1aeBcbrv8W/N14h+chFTp0/S/WHfoWKC7203nqd2gddzIcw2Xoc/HE7fbtVEfow33Rzs70q9HrpOO9FnIeijD+WlLsXVkeSXHaRE+fPkpeoxznTxv1vvE5d89Dh7qLvLsHj3fG48SCg02qC8BfQaNUIOPA8y/g/XuvfsaXDLGmYtLA4MILtAOtsodK/Y4HZUXA9MckppPpX2w1R2h2onEx2tvjz9wkexyHxE9cYa73Pmm6JmQX/gKuOIrPqOGVJKqxN9fTaAyOiyPxQMw3apcM5Lk1cYaKzmfm1UHa3NUSnllBVkESiYYoH1/xn2+qSycuMxDHegTWmcEtAJyEsDpNhhem5NZ8pn+/c2B3Qf1pZ3rlO7t6TahMw6PUI3rWn+33xevAioNZIY6v8T/AdNyXgxLNXfxbURCbpGL76XWplR85oE8s5fyKVxeZr1E+48bjcOyzKS/XpMOdlE+OeodG65qMRjMmkxMNc23SQ5YiA6JWOehJxLi4c0ikF8ja/09IiC13X+e5O7vbSIlb1eSpMS7Rfv8e4NgoW5zi4q69IZFYN1RYVDvswbX1z6JJrMKvn6Bzd6cxcF9ZRK57qNFIjBulelC9gC0RIRzrqlhjo9fuz+6D2Mt/TSGfCGYqranB1TBFdUEiCZ5zGhn58J6nt+0gEwjJP8YHM/QjfJlNnjwu3KOkXm7vy65IKaKU8cS3IwuNp9Ac1kdERsDTKkjcW3NN0PujZ/t0WosiqKGa/r08w8tu1iGAK5XpfBFRJH+KTH38Ow8A/8dVX69g0iDIQGRmGIC6xJlO8NhiKTpy+b3c4Bin+/pK8I25Q4bUN+aIqFmQeJUXbtBHlGONR8qWzTnb9EzDmfZCPfPgU8UzQ8q0vcb13aVdq6cN2EPpQ5fHOdDG2KlCeW41Z27kZsEqIp/yDv84J0zB3/vULPPS33zu73t7C3IsURdbT6h+g1AkXKEvbbr4m2joYWRRJznmO8thaHsytT3zUceepzA1DXOxgSGY6G6o8WwDzLjLR+DLfaL6KqfQipy6c5+j7fxrt3O/waufT0Xa8s8NMrII57xSlMU00+s8ZUsVUU5EXBqsjjG87r3ZLKw52ITpx+Xx2jRj3eD8PxmyTSp33YX7oYzUw1cLdrx9CFOdN1k8lJa7aWXCIRMSmYgqbYmJtvd9Kx96YY9WIjjnm/XmPLZAGLuaCWQDbFLwxuxmK5bF5v5sYCEYsqQlovHZGR/c6y9wPSqj0329YqiJJK61k06MUxM0PW+itPUR+4tocM35rYHVECiVV5WRIkek9GhJycjFNP8Tq639SoKlJxkOXdpcSTuwTI6zHDN6FBA3G2ERMpkRMSWbCVVpUaRmszk8zPjS1vsskhGEpLSZZPcPD3il0VUEnM4RbKDum46F0zuheCt1uIjzBfIPklOyYO9zAjvvIK67MM+8SiUxMI9lgZdSvvAqGZFITNYiuBeZ3jdirITbnOBmWSGyNo0yMrjv2S2N12ZEMwhZ7abBbOPZcDt7+Bhp7/BYEMpmE6CwKLBo83iQqLl3AMjTEfEQecc4x6sbWFeF1coH1Y7Wi8bo86FOLKRi18XDmaa2Iy4R+5pNa4guqKTNrmO9uY9BtpuJsJcksYh0ZoLdvBNt+0UNFNxP1r/NKvT9wkzqW4pxEPJMNjO7yPrhnxplyV5NsiaSnS/Yd0JrIzY7FO91Mf3DIdO8ifQ+aiTlfRf6ReETnFA9vN268h/tDLeK0dtI4ML/LwooUwM5EYcW+mvH+VT0Chbg8x9yaSHRiOqnGyY3o10J4KmmJaqTxVh6g7an0B1U08bEq1ibmWRNjQXSwMDOzNUCf1FbBS5IXRfF9hOf+2EW8M00MuT7JCyd+k19Ka6BvwoZT1BFhPkJ+WgTuie/Sun5WzNa6xDmG+kdwZ5bz/Kd+h4zx9Sh3iHZ63voqbYGDfVdqudswTv6Jl/iRn9Bxu3H9HN+8ykoSl11g3Mp280pLevV5UmOkneIcKmvyud279zm+B6IPVR5nAzeuNVHwgY/xk7+QRVv3AIteI/GZJyhKi2ap+bsMypX+1fv+9p7moz+fQFFnF4tqM9k54dgljS94fHC3cetKLcUfPcFLP/9ZCro6WCCR9MJKkvQ22l/5NkNynTRUeTYB3Ux5l5lqeYVvt14lofgkJvlgqUqi/MUXyTaqfJFA148SLOD0hz9FmShNIDu4/cb97Z14k/veKWcrN9/qpeR9lfzgL/8e5V39LBBLWkEp5nAHI6+/Tvdh+EWIdgb6xnFnF/HiT3+ajPFFfEeqifN0vfktHtp2XqjZW3gQ5zu4869XaWkfP5ydmKAKNTGZZJsjNnYHtBHSeqDat/NSkOiX2TvPeM8IWxZ9g/jseumdY2RgioTCJPKrT5IwY2dNCCM6PpEIjRQZdOBgR7zsWsHmDU0UvC8NJE+h744qSu8mMqGlhIhU0mJVeGZHNs/o3INFqPR7sHpn3vLO0Hr1LgOyHbLHashh80NNREoxleWZRHtm6LzbwKA3g2PHC6g5paHxXhNju0x+d2+HgFpnxKhXIWiiSS0oIcVoJDw8nHBjGLaWN2iY2EcTlY5tOVZNukaaqFnpaZ7Eap3BvhbYhdaRUFTD0RQNMy0tDC2ryAsSSKXVoXU5fFZMQbcO71KIpvDiSwSp3JtRnXeqSRrjYsJgeclnRrpBIoSTUphDvLQGL4QRr5XMlePJLivHIg23rln6Ose2ltkofICEe4q+3jmSi5M5eu4cKVN21ggjxpRItN7DXEfvVj9LP0ufWbZgINIiYG2/R6Nf6VVHpFJ+7AgpWhsddd3YFqC1PYbqspOcjemgvrFvyxna4nwvtbcmEJfcRGaUUF5UilklKTN2ljdeBwGDuZRjlRkYl/qprZsh5eQxsiqPsnC7nuFNwgM0+PubRGVIJLu0nAKzgbWxRh502/GIdurfXMKSkUNOdhlnsvKZHeqmvXuYuZ02jTYg8iu9qIjKKSPLuEB3/cSm6fkGnT/hnsU668WSlER494J/r0lFdHYhqfol+rtHg3bpVYTFpZFXVEByGLhdbtS6eLIKc1hpH8C6LJ9YBle2ee3zUZ7a6zgjwxZT+82SoI3PoSgtcsOZRBu9Pp+Jyy7naMA63GtnsHUQ+6NMybyz9HZOklyRTPm5cyRNzrEmGIhLMhGldTD+sHfLTuvT6A9CdBKJehfTU3a8T8CoVdnxlb9hj5r2DHHrn34Px/M/wrGicsosBl/ABOfyBCMNf8+b33vFf0ZqcAUeJm/+Gd8K/zkulldwxKxdPxbJO87Kg3+lzb9zCasMvP77fM3x01yqvMQLH36BtZk2mq9/gdsFf8LHN2NwBFXgYrT5PlM5J4jHSltz3z4Rpg9KH6o8HmZqP8OXlj7GpdPnKDp+lDDBweJMF43/8U2u17aydR9azv8IxdWZrEw3Uffy55gs+3O2n2YkYm/6LH+3+lGeP3eR3LIX0bOMffwmV9/6Kre6p4NW2kKVJwhW+aW4ykzbNWRHx/mU3YzKCxzfEhEjhaLjKb6SXrublu/d31pGznPftJvJ6/+bLy59mOdPVZFZfhadsMai9SF3Xv82V++P7GtOvm8V65Iyef1v+Eb4j/NcRRkVFo3//Zxk5f63H1nx9U48oG7iYBI8CpXKmIg5OX7jQxHgYYhL2YzE6dVg631ExVcKVjHZTJMrm6wMC7GmNOJwsbY0wcBQD8OzsuA0gcof8dcci+9IBdcc3F18RCbv+mIqYtJSiVK5sY5M+AJn7A1JqPR7c9tyV4in7PlTZMmi2G+5778off4lSne64c/b8YiaPehDuSVFMB4Z1gQdb7QPB0GDRpqguAIT0U36w+UnoItJo6CkgIz4MNy2Pu7Xd2D1Kejd1N4TOXaikIoTIp47zUwGWV6o1BqfO4wYmCBqEyk4kktihJFwowG9JmBRZCQ9N5I1SclbXmBqdoypwCqZFJTJz0DQSPwCR6FJoSzm6K29SffiPKtBZ90K2hgyyysptuiZ77lPveQfKETg9YLGEEG4YQU3GmJMsQhLPXsqioIxgdSEIFcgTRwGyUc21kK6Z+uZqNIzGJte3oyCKq4w3t7BRNBQJe3ubE7ltUQnm4lUeXwyqsItZMfCfKctyLw3jLjUDDK3vNORmKVteMlfdlVkTFJ8N1+JEFNeFnprue3IpyArmXhLGmrBg2Nxmv6OLrqGFzbbFeAsGEjJTEYvnR/dVEvL2ApelYHErGJKCyxESIsltQ/onV9fkFgcbuDWgp2KmmJOng6nsbaViY1FHw9rS27iktPJSEvAKJ0TP7ZCRHIZ5y8k0tXaz2piIaXZ8WgWB6m/187Mmoi9vpuok/kcOV2D9kEj/TZZpO2AnO+WX5WeqAQzltQ00i1xhInLTHTcpSXgoy+9J455xrobGOvvxpxdSFFuOWdSsxjrbOHhoLSZtBdYkm9tGy1LbsYDEYCloyt9Ua/kBd3MDLbToZvb4CcY0ynOjsI92UCfzzJQQBsRT5J0vrQlBXNsGILTzkhLHe0jDmLzj1CeU8TxpGzmJ0cYGhllYnoBx8YiyF5yyu9JC0Tr46XgH5c2+94mnSrCRHp64rb5THhiOuEBMq+GqYePqPgisjpazy1XHkV5qSSmpPsC2K3Oj9HZ00mvNThQ3pPoDwIqKbir71GpSUhLIdw9TbvNA5J+I+iIiIsjLhhjIYqwwJAdwOIAv0JlZaX8rThAka0kWq0Wl0sx5diKinL1ZBDQUvixf+STZZNc++tf47r/3N8nU5fCVUHgMBAQ0IQZ0e03OHudrK5tnaxKtZ+vhk/GwcM2+PyYsuP7SE9EnUD5pZNkqMd4cLWBif0+V6HShyKUYCAxM5VY7VZvxVBYSLSi287YgN90NtTCh0KvIq74PCezw9eVQEGFWiWy2HOL6x32oIXGg1R4MH7SkTKV5ySTSBtDnW10jdg3JrCBWrTxRZysNjHbcJe2aSdCTBEXzuQSIUjnVwqIzgka36zDtwGoSqTkTBExjhWWfUruMkvLyywvLbG86iRId/VVoU8/wfNHTaikgFOSEuyZofXNuwzsscMsGFKpOnOUZO0yow/raR1e8CuYKqKyqqkpNGHUSmdrinidCww13aN1cut5W4Ihi5PPleBpvkydu5z31aRsDfgSAGCHX+9kA5fvj/oUViGmmItnEhl9S36c0Q6FpLOCiy9yJtdvPSO6WJrspqGxz3d01E4lnpk8VSTZNWUY+utpn3aAMY2q00ewGLwsTfTQ0trrU06D5RWMFo4cryBV7OPWjU7sYiRZ1TUUJEnnrDqwTwzS093HxKIbTVQapRV5JEhWAgaR5fF26psHsMvGF11CIceq84gVx6m/Xs/41kcaXP3357XeQuX5KlLDBN+7PT06SF/fyL7n9qrCEsgqKfOZmY/XvknT1LpaKMSX8tzJREZvXqdzfgf1RTCSc/oSxbFSADWpv49Sd6WByZ20SsnKOL6QE9WJTN65Rc8iGDNPcKFcOubKi2N+ivHRYQaGJlmSlVeHm8nKyyErJR6DWjpeZ5yGG/WMBS20IcRQdOEMabP31qN+y56wb1w6m0cE/nHEu0zf7Wublp4y2mcmKRx2f9BgrnyemlSdb+xbHbzHm73h1Fwowzh0mzfbbJBctc9YF3pwK0XxfWbeKEWQ/RFQFN/9MVIonikEhHDSK8+QHbW3oiMudFHXEBRpUg3/+TzUeOELt6BR9uF9ptr4jAujMVfyXE0K3qF7XGuZ3tcaIlT6Z7z5T0w8IdxMdkoUatGLx+NibdHG9MziNkX0oAIclJ82Mgb9qn3LRHRrHVLQIxXuwOGsghFTRjKRKi9u5yoLs9PMHTyCzlbW0pUunsysBPTiOr/FWSvTi9sXrbYWVBNlSSXMPsrUSsDseSvFvld6C+XVWXh6a2nb9SDSfbn4glQJ0kKcd/vu/PbS0k6MdNSetNjixu3zddlO9UzmyHbmpaPJ4rNyiFgYYmR2PWjYbjILBhMpkYuMTUk7XQJGczbJmgWmpmZYDN52FATUURbSDXaGJ5d3HFtURhNmwzzjs+9GrVdCWSDclEaMd45p2yLO4F273R6EL19NRGw4zrmFDfNlwWgmNyOc+YF+poIVTV8ZAYMpm/RYNW7HCvNTE8zs0+dUWi2Cy7X+/DSxpGWEszJpxba8d78WtBHEJyUR7Z6gf3KH87gFPXGpKUSuTTA8HbRzKhhJTDcRLoh43Q5W7LPMLu1d355QPZWbh98f1JEmkqO1uNcWsM0u4pTcJdKTUU8MMOUAIb6A47leuu/3sM27ToggrbSAiOk2Oifl/vZ7g6Eovnvjo9x9phBQFN9n6nEowhwAATXG2ATCNXsrvrgXsc1tnTipY+CPakAYhd/tIMi88ABVKyQKAgoCCgIKAgoCCgIKAgoCGwgoPr4bUCgJBQEFAQWBw0bAw8qcVRbp/eD8E2PXg1q9MaYovQdHTaFUEFAQUBBQEFAQUBBQENgZAWXHd2dclFwFAQUBBQEFAQUBBQEFAQUBBQEFAQUBBYHvEwTQTPW3AAAgAElEQVT2C7nyfdJMpRkKAgoCCgIKAgoCCgIKAgoCCgIKAgoCCgLvVgQUxffd+uSVdisIKAgoCCgIKAgoCCgIKAgoCCgIKAi8SxBQFN93yYNWmqkgoCCgIKAgoCCgIKAgoCCgIKAgoCDwbkVAUXzfrU9eabeCgIKAgoCCgIKAgoCCgIKAgoCCgILAuwQBjcPxeGeLabVaHpfHuwRrpZkKAgoCCgIKAgoCCgIKAgoCCgIKAgoCCgJvAwLKju/bALpSpYKAgoCCgIKAgoCCgIKAgoCCgIKAgoCCwNNDQFF8nx7WSk0KAgoCCgIKAgoCCgIKAgoCCgIKAgoCCgJvAwKK4vs2gK5UqSCgIKAgoCCgIKAgoCCgIKAgoCCgIKAg8PQQUBTfp4e1UpOCgIKAgoCCgIKAgoCCgIKAgoCCgIKAgsDbgICi+L4NoCtVKggoCCgIKAgoCDxxBAQD6dWXuFSZij7kygTCkzJJTYxAu2NZNbFZ5RwpTMYo7EjwTGUK0RmUHcnHtAUIFfoYE7FhOzVAQ1x6NpZoPftPlLQkFlRRWZpBjOaZarYijIKAgoCCgIKADAFliJaBoSQVBBQEFAQUBN4tCAiEJWaTnahjeaKHoTn3Pg0PlX4fdk/ltoqwyFhivQdR3oIF0pMkKXPGHq5dbsEmBt9XEWXJJS9CZLhrgpXg2/tea4lMjCdCs5PSKS8ssjpnxb62TQA50b5pIdxMbm4Erv4ephx+XloTZafPkDxby/fujbAm56K3UFhZSdzYKpfrJvDK721JC4SlVFBTmoKjY4Cl/V6jLWWVCwUBBQEFAQWBp4mAovg+TbSVuhQEFAQUBBQEng0EhHAyyo5SEmujebhzf5lCpd+LoyqBI++9QH74fkrfdiae0bt85+4onu23DjdHFUl0pIB71sbCo+qc2gxOv3QMizpINHGe9qt1UHGG4uj9MHAzfPs71I4/qhBBdcsvXVbaO6ZIrSyjKHGcxukAqgIR6TmY1fN09UzikpcJSusSSzldk0G4CsJLnuMjJUEEgOicpe3mW3TYAvy30yg5CgIKAgoCCgJPHgFF8X3yGCs1KAgoCLxdCAg6opPTide7sE+MYFvbfd/m7RJRqfftQUAyfc2IU+GeGmJkeX+lKlT6g7TKOd1D++gSm7ULRGeUkWWYorNzcusOJDpM+cWYgxkLcZS/9xIFEXspkJV84OOVwSXXrz2j3P32XUaDuoZgiCEmDFyqSFIzM/1lBXAvMDUxy8pBdDjPLH2N9UwIAhGpJeTH2OlqG2VZdDK3Cha8LHRc442HdkQEjHkXeG+mlatX2pkXQQjP48J7S3eW+1ByRVaGOhkqPEdGfhod04PrmGtM5OfF4x6vpde++XS2VqnCmHKU08dyiBHs9D1oZzKwkxxAS2eisCKPWIeNmYWDALa1BuVKQUBBQEFAQeBwEVAU38PFMzRuqhQu/NLf8gOWu/zT7/4xrSGbSGkp/sS/8akjE7zxF5/m6mTQzCU0aQ6B+lmT5xCa9Cgs1EV85Hf/P87G7uwZ5p27zN/84Vfo882DVCS9+If8+g9konI28rU/+Cx1S+sTLSH8LP/p936eYp2Xsdd+m794Y8xnbqfK+AS/9SsfQH/3M/zh1x/Kdn405P/QX/FzJ1d58y9+k1eG1idaquSP8Ku/8XFSZLsuoujGuTTNWPddblz+Li1Wx/aWqpK59Ct/ygcsD/jKb/8lzSG/n9tZPu0cIbaQo2VZSC587ign15snZHg9bWne4fUJEWQdv0h+1CRNV+qwvt3DzWPBqSI+I50owcX44Ciru+k2G3WESr9RcI+EiHt+jL7eaZkZrQpLXAmZKhsjfb0+5W+DgRCOKq1ou+LLCmNtjazoJMVXQECUKdLryrLFO0pb74xs51KNRuPF7RbBu8ROup02wUSMSkCTUkpNyoYU4LXRcvkaXUuyvN2S3iUmByRCFfER+eSF2xnr7183mxZisOxWbo98IbKQSy+WEScbXkWPk9VFGxMDHbT3zbBpFa0jJsVCrE5AiIlAEPTEpmaRteZiwTqHOjEBoyDgts9iXdJi9iv46tgcMowubKMakjMzWLONMbkgGwDVEaSU1FCVH4d3apTp6BRS08Lpv9ONPUCmjiLnZBWxgp2uB21MB/L3aJtyS0FAQUBBQEHgySKgKL5PFl+F+7sRAdFG//3vIUgRX4R4co5VYmaUtvsdvgmmuNK5dUIrmcLZJpiJLuZoSRQPaud9ux+GwmpyNNPM2GIPAUURj7WRu51T65NsQUO4qYiiio/wqeISXv38n3BtdC+DvkMQ4W1gIS5NMj4Ti0nvYnbSLlMw3gZhlCqfHQQ0JjLSwmFtmMFx5/5yhUq/P8fDoxDXmB3uY1afQtXFoxi63uT2wMq68utXlpO90wz29rHqr1UVW8oLFzKZr79C7fCaTFEOiKUmISke9WofN/6jAat/kS6+/D1czF5iSb5SoI0hxRzB/MTSI/QvAbUhhoQEjU+GsHANaIzExCesB9QKC98lsBZ4FicYtC77xkqV1khsUhI5FSZMkbe41mjF91QFA5biKkpiNrXk1NIqUsUVem63EV5VIzPDTiA10Hz/r6mgGhNeZptnsS6s78yrIjOpOV1BWoSXud673G0ZxxVbwrlz5Zw/F8b9ew+Z9CRQdOI4xYlexh7cpW3m+29sDYJKuVQQUBBQEHhHIKAovu+Ix6QI+cwiIOiJKzxBkv0mHRP+LTCvlebXvkKzJLS6hI+VSYpvFze/+Q/07Gbt5umjfzCeiqMVRNy/ziJG8stL0IzVM6w5TtIhAOAaeZOXv1nP5saDmrhjv8wvf7KaF95/mgdfvP7ovnwhyKdKrqIiZoTWzimc++60hcB4J1LnFD31U/TsdE/Je9cioDVnkBoGq32DWDc7xK54hEq/K6MtNwQ0UclkZkXIFE+BmAgVgi6WlKws4rb0Dz1xkunClghMMoaOGabsKo6XlJI8dp/d9XkdyXlZRLqnaLPupPRK41YCySYdzqlJZjfGLA0RkQZYWWJZttsvGMwUnTyF+tZ1mqcOsIggE1naoQ7PrOFCwJLady+GYxezZFRu5mVXgaRnto+mxs2gU4LeTOWlM2RnF5HeNUXvigiSL/H3vkG7VE/+Bd5bpqb9e1fpCDgtf3MwwM63Wx5X9h4uZk5z69X6XS0avEtWxsaHmbe2021dXVf2Z9u4edPLyZMlnH7OzLw3kmj9MsN1t6kfepQFAZlYSlJBQEFAQUBB4NAQUBTfw4JSl87RF36Ss+WlmGMi0QgeHAtD9Dd9g9ffeJPJwAxfXcaHfvt/cVq2Ag1n+fHPvC6TxEXPN36CL92b25wQqZMoev5nebGmgqQIgRVrA/de+zsmRNkMRMZhPSkQUfJJPvnDZ0hknIZ/+yteb5N2E3f7C4E+ZHn0JJb9MC+eu0CuxUQYS9jGGmi49hWud1q3m59u4a9mbaaVhu/9X0aKP8sng0y7VWk/za/9l4+hr/0dPvPNRhkvDXkf/Uf+8/FV3vr8z/LayMYMDghRnmDIhDASSi5x9vnnKU5R0/bl25uKbzDtAa6FCBi+2UXFSycoiXyLe85SyvK1jF7rwX3u5AE4PAqJB1v9Gzz8QDUnMwpIUV1ngZ3MtI/zqc/+i6wCF91f/6/87W3JL0+aL5o4/8t/zgdT6viXzzWT9eGPcDQjAZ17jsme21x5+Vu0TG9OiIXYIzz3Uz/DxbE67l15jbq2CYJc42R1PUJSSKDo/CnStxxR4mK8/nVap4P7i4bkivdSFj1O76ielMx4tA4rPa0DaHKOkh2nw2nrpqW5l3m/giREF3P6RC6a0bvcaNtqphpf8gJVqW4G712jW3JSfOQ/NeFJeeRkphAfZUQrjSdLNqZGu+kbse2wYKAmwpzvo4+LNKDBzdriDJODnfRPLsr6BAgR+Zw4XYRxop662TgKclKIMWjwri0wM9ZJd7+V1QBMO2Jp4eiLH5K1zMts2xs8GNluLh9j1vDfjqhJQeR6s4t/npSb4cpYPNVkGCkZyehYon9oZgs2O4sRKv3OXHbK1ZkKqDLtdMdCSdXOhsAe+070Up6D0fYe8l8ooSi7k4nOhR3HelV0DoWpGmxtHYxtf2Q+5lpzJilhAhq9HmmS4Hv1VZHERKtwzdrxe2P4aMWlMYZWEsk7XsPCtTsMHMBferMFh+fjKzqmGBxfISsvnEgpaJik+G786UhMjEGlUpOZl0Rf/eT6jvDG/RAS4iqjLfXbCnjX5piaWyUxOZoYwLMwh90hqfbKn4KAgoCCgILAs4KAovgexpMQoij9wc/wiYpYVifrab0vBSUJIzqlioJzv0F6gpq/+sr31v2oRBtDTZfRGlUgGEkuOkOa0UpvQzO2wGQTD1NbVs4N5Lz/j/mJMymIC1201bazoLZQ9oP/jdSZjUI7tERHetUpkowaBNI4WpXHlbYHMj+v4CIHpQ9VHjWJp/4nv/jhSrS2RhpvX2WeBLLKL/HiT5WT/LVf5auN07JJWoB/MssDr3H5cpuvvQXnPs05rcxRNVj8A1+HKo+MsWDEVPYcZ5+/RFFyOJ65Thq+9Sp3ug+wbSRjsy2pi0TsvU8/P055SQxNS1Xkawe42uUi9z1Pceok2hlquI7OF23WSHLJMdLDZ+ipeyg7zsTLpHVTkd1oizqdiz9kZvLhd/h/NxwYU09x4eIH+YkME//855+nyb/L4ul7lW+/JnL23DEufuoYJyceUHvlNe63jsl88za4PkJiDfvEMCrf4aMC2igzpqi9MRS0cUQ4m2hptlN4JI+CoyoG2uppshVQnl9EUfoktf3yIESPINaBi6gITz/O8aJENO5FbFMjrHp1RMSbSC9OJD6iltr2KVk/VhGRcYJjhQloXPPMWEdwSONPgpnsIwnE6G/xYGhR1r/WBREicygyLjDV18ywN4zYtDzSc48Rqb3LvY4Zv2WAHEstkaZkorWrzI5Py/xiRZblW4CyduanqknXrXuenksV+LdJ8dEVDhnfx0kKxlQykrR47V0Mze01fvpxCpH+4LKJrPS+xX80bl08sRz7ICeju7niD/C0wU8IJ//Ce9kr1JO4MMjAVBFHLclEdC2wuFE4kNCTWpxH9GIP13t3VowhjJTMZPQCiPFJJGgHkLwgBGM88QYR+4xt62KBd5G+uhHUl45TcbKY+ett2ALDoRBF4XMvULYR76CA5z5WgLjUxbU3hgNCHdKvCr1eA+IKa8EraVoT5gRpuuPBkF5J2dgV6iedqCKSSEswbCin4dFaBHUkSRmZGPx6s+i0MzFu3/m9VemIMqWRmZVNpiUGvXeJ8Y46hlZjySnM4sjZNIqXZhgfHWFs3Mr03BLO/V+5Q8JDYaMgoCCgIKAgEIyAovgGI/Io15oyykviEG3f4R8/9wX6A+48Qjyl7/8lauJTSTYK2KWVcO8YTa/+JU1SPb7gVidJC+vh7jf+967BrQTjSc4cS0G1dIuvfe5PaPTvJKlNH+KnfrF4D4mdDNW9xWj6KRKYoLmuWzZZ3qnYwehDlkdXzaUXKjHMX+WfPvdZ2vw7AsJbdfzwr/4Pjr7v42S3/jV9gR01f3uFmW/xz1/6IoN+PJtaBvnhX/sf2/ywdmrJnnkhyuPjpYrAfOR5zj53kYIkA66ZFu59/TXuNfSzJN9I3rPiPW4KkRg9TTT3/TgfLq2keLEE/cirtK1FcmTTPW0PBo9yS01c1YuURoGzo4sxaUImTtDw8pdokNj5gltVkx7Wz52v/92+wa0EdTSzN36Tr9b5d4Kba+ld+Z/8xoeOcemEhRZ/cC4cVrrf/DLdt14h58R7OXvhJOd/vJoT1ibqrr7KvebhzR3HR2mWuMREVxMTvrICkbnnMUUZ9+E0z9TYDPOeJcbncynEyuj0HA7bCHO5SSRERSHwlBRftYnsXEmJnaT9Xh2jK/6ZsiaO/GOnyUotJHVoenNnTW0iKycejXOM1rv1TPgj+whhqZSfrCQpJ4/E0Qamgt5TlW6JwVuNWP39yzo1j3jqNJmp2ST2zjAh5cuxlIJbRZiJjrIz0ta0qymoHOjOYQ+9MSosiNwcFvcZf+Qln1RaOqYmgwS1h9mhYRblm4I7Vhkq/Y5Mdsz0LcXsW/+ORWWZWmJS0ojTB7IEtPYButbcJGZlkyjoiQ8TEMQEMnJEnKKAemGM4WUnMRnZvp1JX0nnHKOjcz7lTp1QQKFZYKarC29OBknxakYnPegSTESzSPfsdvNocXWEhroEYs4UcqxshquN1vVnLa4y2V6PQ68iPLWUwpg5OttGWXLOs/4ZENBEJJKcbPAtzOijdAjaSBKTkzFK2IRFoYN9zwgWNEbiM8ooT9PhmGhmKOjB6sypJGml7+8CQ4Nu0ipKGb3SiD0xn+pqM1uH2DAKqhMDgCLOt3Nlwu63shDQRZlINpswmZIwJcZg1Ah4HXbGux/Q0zvEjM9cYpDRwU4SpEBaWZmkFlSSUQiie5UFu5356QEeto35MdioSkkoCCgIKAgoCDxhBBTF91AAVq2vGLsduOSrueIsD1/5Ax4+Zh1CfCYmLay2XqFVZj7pmb5G4/BPk5e/WwUiyx1f58t/9PXdCILyD0YfqjwqUxGpRli6f5VOmRmcuHyf+g47FTUlZCWo6PNHpRbis3ztXe57wEhgEUGag6800jnkouL/b+9OYOM88/uOf9+Z4U2K932K5iGRoiWKsmgd1mV5bafd7q7Xu9mkSYxie6RImhZJUWxaoCmCFFtsgjRItkmBFMjhHLtQnXo3tuW1bNmyLIsSKUqkDlISj+F93zfneIsZXkNyeAxF2pb8I0Dwnfd9rvczQ3L+81zrxfor7sjfw4Dbk/wc33ztW+xNDGG66waX//Y812s9vXD+St/iOSOc8JBRKm/W8fVX/xkvT0fQ9kEVQ6GnvSsS+zBssQIIynqer79asri4VXjiHvbmpxI6/ZDz73z66PN7XU3U1fkOpXczcP82vWY+SWnpWJhblXrxBhx9NF5+ncarb5Nz+EWOnzrO8V8s5fALN7jwV39O9We6bLAbtzcIceP2Pq/uuR5S0+31Moz53/HFxu/cgRERy64gcHba6VwIej3VOYdobWoiLCUEt80TNs1FTQvpHZ1t9CwtZ4s53UlnfwnJaTFERxj0LsxrnG+6e7iHAd8XlmuIwWEH2WmRRIQZ4HjkqIzRXie/9/7OWQVcsiWG7OxYLM5u7G2ehZE2+Ao0/QbFLV22YLGAy+XauA1LmVYfGWGk7C316VFdnWTuTBYlB7OWXfSdResJ7gY7hpg1Q0gvyCFioomqew+Jjs2jKDOZ2p5+UtITsU400OXzP8i3wNme29xoSOJEfhklnReo9n6i4mC4086wZ1XnqEIKI0fobG5eXNXZMxYgPPMAxzJ9S9pF6THftjrxN7o7OOc431w2N9jFeNsNLlW2LB/lTChp2YlMDAxhjYMJex2tqYfIiK+lp/kybzQv1G2wmTm+Qcl7KdufgHtikF77Xe51d9HVO8y054MlT6/86ZfYN1PJTz9tpb/lnve7OjSGxJQUkhPjiYvbhW1qeEUbF9qgnxKQgAQksJMCCny3Q9d5hzv1wzz99Dd57ddSuV1fT3dPG91dDXT0DeHZMeJRvowgzzwrk5mpFT1O5jRTUwtjyh6lhsDyBtoeIyiUYNxMzzgJDYv0WfnTgmtmAtOIJDzM85n7XCRpBAV779fpWDkBzcmsY0W3VWBN96YOtD2W+HxyE1y0f/RD3jh/m9HtDHgX2x9CcLDJ+N3L1Jz5NrnGLSpr+zDjwvB05vjGJ4tZAjowsCYd4Oj8fELTdOHwbGdU8xMuv/tTarr9DF0OqHxPHDbDzMJc9vm85nANl95xs6uvc+03+M5B7J/+PfZrP6Pg5X/N104UkRVv+YwD30BvdgfTW214BvQ7Hc4VZibT3Xep6V5R93x616r0c2WAFat1KVBeyG26nD6/i3Nn3d6o38Cy/sjwhSIeu5/W+ByyomC23U7nWotE+dxVoOl9sm5wOPec2KLTyM2N8XmeLcREzS1ulZGbS7zv/4753ttli1uZo9S//wb1fmqzxhZx6lQRsTZPj6+J6Rrk7keXqBta72/oDK1VHzMTNUm/c5bJjgH2l+SR1RRGepKV8YYOv1sfzVXvpO/eLRp27WbKuYkXkDnM3ff+L3cX227Bu2r07n4++cdKNtqdzzXSTkPX3P9EwxZKdHI6yRn7OTw1xeWabhb+exi7cngqcZS2O9MUxUWAs4/6K5dxLkzaX6x/MwcmE82VfNDtYGxsdtXvz1oluKaH6bZ7vtdKofMSkIAEJPBZCCjw3Q5lc4jac7+NZehXOHHwMEfOnph742i6mRmo4uP/90e8/2DQ583NdlT6GJVheN4EWUk6+fv8zkk/7Xb3frYrgATYHnOwmdahMvJP/Tr/tqiGyovvcO2mfdnKpn7uKrBThmdfTQNz/Co/+v7VxbzWJBvemGXxzFYPTKar/pD/+rrvqs5bLWvz+czJBiovNKyfwbsy9kmOPf8CT2dH4x6spWNpwvv6eXVVApsWsJGUk0E409jtm1ncKND0m24IWIMJsRqEpe7lYKq/fGkUHQx0caulcoywdA4+u5eIgQc0B+WT427kviuLomcPMvpRFR2+2xEtZZs7mh2iZ2DucLK1gfa9z1J0JJoQY5Db9qH1gz1HDzWXe1aWuCOPXUN27txeWtUZSx25R89wML+M4q53qfaO7Q8mtTCPXYN1dEwmMDdYyGRyZHRrbfLMWT7lO2d5rWLK+ca3yte6iHvoNhc+qH/0UTZr1qALEpCABCTgT0CBrz+VLZwzZ+zcfPt3ufm2leCoFBKTssksfJGTzx3m7D//Nfp///e46bsU5hbqeGyzmJ5uCzdDN/6Ec5Udqz8AMGcZ7lyvF2KjO/ftFvGXdsX1ANvj7v6QH/2gmoyyr/DcmZMc+84BDr9wl+oP3+bqjQbGtqXT3YI3Hl/ZfMOyYv7ZygSP8WNLOEn7TnP8+efZmxaJa+AO18/9GVdvbNO86ceYRk3fAYHgVHLSQmCyAXvvJn5pA00fQJONiEjCjRmaL79F1bKuTQuPsriVpwlGWBqlz5WTZbRwtbKJyGfzwbMA1fUqQs8c4fBzTiou36JrveB34V5mO7nfOEpmcTSO9lvYV8ydXUgWyE/DEkRkbDTGTAxlXyklcfkEWyCS55aNYTaZaf6Et6q61w+63ePYH3ZQnLKbpORojN5B2PUURZnQUdHKFAlLzTTCyTv5MqWrKweiOPHN3KW0nsEsnsW43q1l0Jyko7aC8eDVPdqhKUU8neNZC8DAgmf1cidDDbXc7189msacHdFQ52XCeiABCUjgsxFQ4Lvtzi5mxzro8Hw3VtEX/H/4V0eLyE2zcnOLK/+ajlmcGIQGLa5gMt9qG8HbsspxYAiBtsd0TM8tmjJup7mxbvmKoH6qNh0z3vuNCItYXG3Tm8wIJSzMz0t2dtK7HU5UeIR3iOhSCG0jNDwMzIFlq3wG2h5v3a4R2q+f4++r3iXt4As8d/oUh1/9Txw6+4CaS29z5Vodw48+HtmPhp9Tjlnv0Oeo0FBvULx0vxZCQj1LwYzg2Ib5mX5q3p5T1ijSDpzl+OlTFCSH4ui9TcWP36Kiept70bentatLcTlxYRBiC1r++sTAZvOsoD6Nc+lJWZ1/ozPe8iEkyFPWwkxeTyaD0JRi9qSGMtxcjX14fsz9fPrgVenBFuT5fZnB5Vrx4c9GbXgCr4el55ASDKONdgY2MV0h0PSBkAVFxxDBGM0r5l0HUoa/tNbIbMqOl5Fl66H645t0ToeyuATEdCc3P7lFyIlSjpy0Unm5mrY1VuNeLNsIJTo61BvM2WLTSYnsoGV8E3iLBSw/MMKyefaf5BEePEH9pQrqqyqxL8aQBhGZ+9ibMM7DW80sTSU2cY35rh2wvMxlj9xzc/It1rk5+e7xLjpaXXR0OTB9e9bNWXrv36CqZbFy7+9XREYxe+LHeFjbsqw31nQsLMblZKy3Y8Vq2RYiMw9yLDOSieYauqKfJm+2jlr3bvbn5JLQ+ym1nZPrB+3LbkIPJCABCUhgpwT8RBE7VdWTW64l5RVe+8WvEN74l/zlTyuWVmo0wonaFYphjjO9MOHIl8GcZdYbLEUQ7llMZo1P082BZnodsDf3IBlB1bTMB1hGeCl7sr17tviW6nNsEF74Ct9+dW4f35vn/jfvP1i9wcVShs2lD7Q97t462iYNSgvKSQuqW1qwykjgwCvf43hyC5df/yE18/dvDti991tU8Dz7dlUuboNjTThDadaq7gHcA/doHTVJz/8KpXFXuTY4F3VY48/wTH4o5ug97D5DZwNtz5KPp+N6jM6qf+DH1e8trvJc+rVfJWjwt3jz3iZ6kZYVtrUH7gHPokeQWvAc+2OqqZoPgCwx5ZQVhMFUK+2beWe/UfXe16fp3XZrvdfnRsWsvG4tfJVf+s6z0HOLK3/3FhU127xQ2MoKt/mxOTnI8LRJVEIWqWFdtM/3nBnhmaQnWDGnBxletodoYA0wJ4YYdUBqQjYpYb10LvTM2WLIzN1NcuQIIw+WAtml9Jkkh/b6rOqcRlpCEDh6GPFZVC6w1vimduHyxjxBeOPp1R1Zvonnjm0WzhZaSLXAQLeL832f0z6+RgQZOYnY3EO0tGwiiAo0/eo7X+eMjYTkeCwTzQwsPLfrpN7cJSuRGSWUl+UR6+rm5uUKmkZdq6aQuEYbqbhscPTEAcqfjyK26hp31gzKrETnPUNpejDjnW04EjI4dNLA+kklTfPzY12zU0zNONYO6qxhxKdmkJ6RQWZqBIbVINQ5TFdjCz3jo/T2jfjcnoX4XXvYGzdOT4t9wzm+PhnnDi0RZOWlE2a46Boam2uTe5j6GyN4Bvks/8/hZLTLzvIBzwZxkQUUxozRbW/e1KrlWCPJKCmnLC+KycYKrtSMkB7tQ3kAAA8wSURBVHHyafD0Pl/7GEfZMcqOvkBcQzWVt9sYe5QPxFbdsE5IQAISkECgAgp8AxXzk97dV03z7C/z8rHf5j9k3eBh5wCzZjBRqZ7ANApnx0+41e4nKDIHaW5swZl7gJe++zvkdI7g7ZgxB7l/8a+5PTj35tacvMon1zvYc/zr/PJ3g/m46h5jtjQKDx0iccIBEX4a5T0VTE75GTJjgzHI55lnC7n0YP19fDeTPuD2zFbx4YVq9n795/mX/z6X2/WNjLkjiM89yr6sGMaq36TJZxj4Uvkn+PZvJFJ0t54xayp5BREMeSK+5aPQwHmbSz+7yr5vH+Ubv/HH7L13jxEjiZyiQ6SEDnDnJ2/Q7MsfYHv86rrH6b75JuduvUdSyTGSFnrfPIktKRz4uZ8jP9wASyy7wzwn93DiW9/lgNuzOvU9Lr1zlb6tdpzM1PDRxYfs++ohfv4//ncO1DcyQgxZe/aTFjlDy1vvUO/vgxa/N7LOSXOYpocdOJ8q5uVf/U12t4/O9dabI9RdOEftwFLwtU4pqy6Zw3f5+PX3uLVt+/Yur8IW9xQFaVHzvbGefXw9T4CVmOz9FCfPt9kcpu2efVmvzvJS1nnkHsD+sJvkklSKjpwkqW+QKcKITUomyjZDT10Dm9gedu0KXL00NfSTuDeVfUdPkdo3xJQ7iKj4ZGLCYKK1nnbfQNbVS3PjAIl70ik5GulN793HNzGJqCAHg/UP6duON9zmNEODY7jjEsg/VE7s6MxccGHO0N9UT4+fIM4WY+Gru614lm96s2XlYl1rE2z3FWNXNjlxVlz9dtp8/tasVU+g6dcqx+/5kDSyU4OZbu1eZ6Eovzn9nrSEJfHUvv0UZUdjDDdw9WotHev05LpGGrjy4QylRw9RcPQsic13uHW3mQGfFcE9vy+7css5vj8JY/Au1yrqGI8u5MjxEsrOJpBjr+fufTsdledp99uquZNGSAYl5QdIcE/Q31FPXWsr7b2j27KXrS0+j9Ky+XnQlmCiElJIiLThGrxLXfvSH0DTO7VlnUZu6ZKVyNQCSvbvIT18ho6bH1HVOIzD8Pln7Bqj5fpFxocP82xJOWdTc2i8e5v6toWtkbZUsTJJQAISkMAjCCjwfQS8xawuO5f+4j8z8+IvcaT4AAcywrDiYna8k5bKP+f9d9+kw+8bTxddH36fcxG/ztnSMg6mBc3N83R3MHntb7g933MJUzS+/V94febf8MIzL/Dyt15kqu8ON9//IfV7/4BfmF+pd7E9iweztFVfpTf/mHcf39rqBnzjv8VkiwebTR9oe1z0ffq7/Nn4d3jhxCn2HT1IqDHNaG89Vf94jg8+rVnR2e1bfikl5blM9FRz7Y0/pPPAn7B3sb0LByZDN/4Hfzr5bV468zz5+18mlAmGOi7x3sW/4qP63hXzigNtz0I9fn6ak/TWXqDX95IRy+5DZzgS69vHkEHxkQxvKveQk5vnr9LnmyegYyedF3/A/xp/hZeeO8zuAycJYZrRnhouv/UP/Oxay4bDyTdXnYvOD/6YH0X8C14se5qy9IXXZxcTV9+gdsDvi3rDot2d16no3DDZlhNYI5JJz0hc0cMD4QlZLO7m6w6iv26LgS8mU51VXHPkk5+bSXxKNgk4mBpt52FTPfa+qRWvt0Bvxc1E6zWuzeTz1O4M4pMziTdczEwM0HbvAQ1tAytW+XYz3nKN67P55GWnE5eShQ0n02PdNLXU09Q19ojtWWi/yVhTFXeCnuaptCRSd81v8WSO42j3BL4L6ZZ+psVbiPLsjDTo4pP1BpssZdmBIwux2VlEWxx02ds3Mbcy0PSBNNlKbH4habYR6pr61+4pXSjSmF+R2fPYmO9p9/28KSiF0tPHyQ13MNhcSVVNC5tZrNg93saND8cZLn2Gkt1lnE6J48qFKro8vfi2KDL3HeZgXhyWkQd8eqUe70LQg/e5cnGMguJiCnYf4ETufpyTIwwMjjA5M4vD4Zz74NbTVnOCrgeeHu0Obl8ZYKpvkMnFPxcGYfHpJEb4/n303iBRu2xgiSApK4vgZR8Muhjv7WTQJzi3RKWQGzUPZbqYnRyh80Ej9+7ZGV6sa/76dv2whBKXkUteXi4Z8aE4B5u4cfE2zWvOc5ll4MEVLvTlsO9gCQXlZ8kt7qWtuYH7Dzu3Zw/47bo3lSMBCUjgSyBgFBcX+/4bDfiWIyMjGR8fDzifMkggcIEgin7hR7y2v5v3/ujf8cGyRWECL005JLDzAhaCwsIJXvkef2XF7lkmp2a3KUBdWfjn9djgzJFgfiUBam/N8j/bPqdhztYkDr50glxrG1fPX6Njo7n4gaYPgNcI282xF8uI6arg/Wvty3Ymmitm+eJWY/H7efFUARGeV4YnCMbJQO0HfHh/dPG1EpKUS7q7k+b+6cVzi03y7Ct76iVK3Ld451Ijqz+bsBCekk+WtY37HZOYtgRKTp9gTwyMt9dSUdXA0CovzyiKZDLSkklIiCduVzghQUHe+eQLK9C7+2/x7kcPl6b9LDbIc2Ah9ZmvcjzHsx7BJr/MKRo+foebvcui4U1mnktmSSvna0ciqXvvIvV+pxVtYh9fI4Ldx86wP3KI5vt13LcP4BOLz+3je2ppH99lHzQbIcRm5lFYkEvM8A0+rOpc3HIpoBtRYglIQAIS2LKAeny3TKeMn4+A72Ikn08LVKsENi1ghJOx/zQFMetHvubwPa5cWytQ2HRtX6yENoPCaPCMa/24+3MKeoGg5BwywmC62U73qiBuNVmg6VeXsPYZc8rOjasOIof9Bb2efCaDDdepsI15e6bdAw1U3xgn0mLidjqYHh+kb2BiWYA709tE01pVmg6G2ht46B5ZY7SPm8nu+0v7ADv7qau6wVT4IPaOsTXymDhGu2n2fK9V77rn3XRV/oRzlesm2vaL5ngXDx+EMLhir3Hfiqb7m3ngmlh7VIA5QXPFu7S7HPhdP9B0MNzRSKNjfo6xb+HmDEOtd6lorcNizC3C5XtZxxKQgAQksPMC6vHdeWPVsG0Cnh7fH/Pa/i71+G6bqQraWQEbEXGJRPrZ/mRZvbOj9A+Ob9MQ9WUlf24PrHE2fnDUitHi4Hu33d6V3T+3xqhiCUhAAhKQgAS+9ALq8f3SvwQEIAEJ7JyAk4nBLiZ2roIvbMlJcQaxmJxvU9D7hX2S1DAJSEACEpDAl0hAPb5foidbtyoBCUhAAhKQgAQkIAEJSODLKLD+xLMvo4juWQISkIAEJCABCUhAAhKQgASeKAEFvk/U06mbkYAEJCABCUhAAhKQgAQkIIGVAgp8V4rosQQkIAEJSEACEpCABCQgAQk8UQIKfJ+op1M3IwEJSEACEpCABCQgAQlIQAIrBR458B0fH19Zph5LQAISkIAEJCABCUhAAhKQgAS+MAKPHPh+Ye5EDZGABCQgAQlIQAISkIAEJCABCfgRUODrB0WnJCABCUhAAhKQgAQkIAEJSODJEVDg++Q8l7oTCUhAAhKQgAQkIAEJSEACEvAjoMDXD4pOSUACEpCABCQgAQlIQAISkMCTI6DA98l5LnUnEpCABCQgAQlIQAISkIAEJOBHwObn3COfsqSUc+qZTMyJfroeVPOwfRTXI5eqAiQgAQlIQAISkIAEJCABCUhAAoEL7Ejga8QVc+jEEUINMF/+Bh3v/5C/e+8h02bgDVQOCUhAAhKQgAQkIAEJSEACEpDAowhYk5KS/tujFOAvr9l3kyvvn+d6bTcRBYfI35vG1K1PaZ9U5OvPS+ckIAEJSEACEpCABCQgAQlIYOcEdm6Or+lkqruSypoeTGsyiQk7V9XO8ahkCUhAAhKQgAQkIAEJSEACEnjcBXY4GjWwBnlGUztwONXb+7i/WNR+CUhAAhKQgAQkIAEJSEACj6PAjge+oWFhGOYU01MKfB/HF4jaLAEJSEACEpCABCQgAQlI4HEX2JHFrZZQLASHhoDZx/TM0tn1jmJSbPzmfivpmHxU4+Bvuk0UMq8npmsSkIAEJCABCUhAAhKQgAQksJ7Ajvf4Goanejeme3Pha0GGlaxgsAUbnMgwCFqv9bomAQlIQAISkIAEJCABCUhAAhLYQGCHA99ZOhuacFjSKSx7iqigjaurb3XRMGUyMeXmYquJY4Mb0GUJSEACEpCABCQgAQlIQAISkMB6AkZxcfHmumLXK2W9a5ZYnnrhNf7p6SKibd7uXzAnqf2L3+LNe871cuqaBCQgAQlIQAISkIAEJCABCUjgkQV2eI4vGLGFHDiYT+RUG/fvNzM64wZm6Rj0/NSXBCQgAQlIQAISkIAEJCABCUhgZwV2OPC1kX3yFYpih6j40+9zwa4e3p19OlW6BCQgAQlIQAISkIAEJCABCawU2HjS7cocAT22ERUdiWGOMjriCiinEktAAhKQgAQkIAEJSEACEpCABLZDYIcDXyezM05MQggOmZ/fux2tVhkSkIAEJCABCUhAAhKQgAQkIIFNCuzwUGeTmalpTCOM0M0GvjYLZwstpFpgoNvF+T7t47vJ51LJJCABCUhAAhKQgAQkIAEJSMCPwA73+HoC3ykwQgkN3VyPry3Gwld3WzmbbSFkRkGvn+dMpyQgAQlIQAISkIAEJCABCUggAIGdDXyNUKLjojBMBw7H5nZNSou3EGWAY8jFJ2MB3ImSSkACEpCABCQgAQlIQAISkIAE/AjsyFBnS0o5p8rz2JW8h8L8SNy973G3bTOLWxnkxRl4ovE7rW76Nxcr+7ktnZKABCQgAQlIQAISkIAEJCABCcwJ7Ejga8QVc+h4OdaJPrpuvsnld35Gm2MT5DaDwmjPNr9uPu7WMOdNiCmJBCQgAQlIQAISkIAEJCABCWwgYBQXF39h+lWtcTZ+cNSK0eLge7fdzG7QeF2WgAQkIAEJSEACEpCABCQgAQlsJLCzc3w3qn3F9aQ4g1hMrrYp6F1Bo4cSkIAEJCABCUhAAhKQgAQksEWBL1SP7xbvQdkkIAEJSEACEpCABCQgAQlIQAJrCnyhenzXbKUuSEACEpCABCQgAQlIQAISkIAEtiigwHeLcMomAQlIQAISkIAEJCABCUhAAo+HgALfx+N5UislIAEJSEACEpCABCQgAQlIYIsCCny3CKdsEpCABCQgAQlIQAISkIAEJPB4CCjwfTyeJ7VSAhKQgAQkIAEJSEACEpCABLYo8P8B6mAn/mfXn5MAAAAASUVORK5CYII=;" vertex="1" parent="WIyWlLk6GJQsqaUBKTNV-1">
          <mxGeometry x="-210" y="450" width="231.33" height="88.21" as="geometry" />
        </mxCell>
        <mxCell id="-YqU8lc6YnFRLqplRP0o-30" style="edgeStyle=orthogonalEdgeStyle;rounded=0;orthogonalLoop=1;jettySize=auto;html=1;exitX=0.5;exitY=1;exitDx=0;exitDy=0;" edge="1" parent="WIyWlLk6GJQsqaUBKTNV-1" source="-YqU8lc6YnFRLqplRP0o-29">
          <mxGeometry relative="1" as="geometry">
            <mxPoint x="730" y="530" as="targetPoint" />
          </mxGeometry>
        </mxCell>
        <mxCell id="-YqU8lc6YnFRLqplRP0o-29" value="函数入口" style="whiteSpace=wrap;html=1;" vertex="1" parent="WIyWlLk6GJQsqaUBKTNV-1">
          <mxGeometry x="690" y="470" width="80" height="30" as="geometry" />
        </mxCell>
        <mxCell id="-YqU8lc6YnFRLqplRP0o-33" style="edgeStyle=orthogonalEdgeStyle;rounded=0;orthogonalLoop=1;jettySize=auto;html=1;exitX=0.5;exitY=1;exitDx=0;exitDy=0;" edge="1" parent="WIyWlLk6GJQsqaUBKTNV-1" source="-YqU8lc6YnFRLqplRP0o-31">
          <mxGeometry relative="1" as="geometry">
            <mxPoint x="730" y="590" as="targetPoint" />
          </mxGeometry>
        </mxCell>
        <mxCell id="-YqU8lc6YnFRLqplRP0o-31" value="lidarodom类初始化&lt;br&gt;lio-&amp;gt;init()" style="whiteSpace=wrap;html=1;" vertex="1" parent="WIyWlLk6GJQsqaUBKTNV-1">
          <mxGeometry x="675" y="530" width="110" height="30" as="geometry" />
        </mxCell>
        <mxCell id="-YqU8lc6YnFRLqplRP0o-32" style="edgeStyle=orthogonalEdgeStyle;rounded=0;orthogonalLoop=1;jettySize=auto;html=1;exitX=1;exitY=0.5;exitDx=0;exitDy=0;entryX=0;entryY=0.5;entryDx=0;entryDy=0;" edge="1" parent="WIyWlLk6GJQsqaUBKTNV-1" source="zkfFHV4jXpPFQw0GAbJ--5" target="-YqU8lc6YnFRLqplRP0o-31">
          <mxGeometry relative="1" as="geometry" />
        </mxCell>
        <mxCell id="-YqU8lc6YnFRLqplRP0o-39" style="edgeStyle=orthogonalEdgeStyle;rounded=0;orthogonalLoop=1;jettySize=auto;html=1;exitX=0.5;exitY=1;exitDx=0;exitDy=0;" edge="1" parent="WIyWlLk6GJQsqaUBKTNV-1" source="-YqU8lc6YnFRLqplRP0o-36">
          <mxGeometry relative="1" as="geometry">
            <mxPoint x="730" y="670" as="targetPoint" />
          </mxGeometry>
        </mxCell>
        <mxCell id="-YqU8lc6YnFRLqplRP0o-36" value="创建发布点云、位姿、运动状态消息的函数对象，传入lidarodom中操作,&lt;br&gt;lio-&amp;gt;setFunc()" style="whiteSpace=wrap;html=1;" vertex="1" parent="WIyWlLk6GJQsqaUBKTNV-1">
          <mxGeometry x="655" y="590" width="145" height="60" as="geometry" />
        </mxCell>
        <mxCell id="-YqU8lc6YnFRLqplRP0o-75" value="" style="edgeStyle=orthogonalEdgeStyle;rounded=0;orthogonalLoop=1;jettySize=auto;html=1;" edge="1" parent="WIyWlLk6GJQsqaUBKTNV-1" source="-YqU8lc6YnFRLqplRP0o-42" target="-YqU8lc6YnFRLqplRP0o-74">
          <mxGeometry relative="1" as="geometry" />
        </mxCell>
        <mxCell id="-YqU8lc6YnFRLqplRP0o-42" value="CloudConvert类初始化&lt;br&gt;convert-&amp;gt;LoadFromYAML" style="whiteSpace=wrap;html=1;" vertex="1" parent="WIyWlLk6GJQsqaUBKTNV-1">
          <mxGeometry x="652.5" y="670" width="155" height="60" as="geometry" />
        </mxCell>
        <mxCell id="-YqU8lc6YnFRLqplRP0o-43" style="edgeStyle=orthogonalEdgeStyle;rounded=0;orthogonalLoop=1;jettySize=auto;html=1;exitX=1;exitY=0.5;exitDx=0;exitDy=0;entryX=0;entryY=0.5;entryDx=0;entryDy=0;" edge="1" parent="WIyWlLk6GJQsqaUBKTNV-1" source="-YqU8lc6YnFRLqplRP0o-8" target="-YqU8lc6YnFRLqplRP0o-36">
          <mxGeometry relative="1" as="geometry" />
        </mxCell>
        <mxCell id="-YqU8lc6YnFRLqplRP0o-44" value="CloudConvert" style="swimlane;fontStyle=2;align=center;verticalAlign=top;childLayout=stackLayout;horizontal=1;startSize=26;horizontalStack=0;resizeParent=1;resizeLast=0;collapsible=1;marginBottom=0;rounded=0;shadow=0;strokeWidth=1;" vertex="1" parent="WIyWlLk6GJQsqaUBKTNV-1">
          <mxGeometry x="100" y="1370" width="370" height="290" as="geometry">
            <mxRectangle x="220" y="120" width="160" height="26" as="alternateBounds" />
          </mxGeometry>
        </mxCell>
        <mxCell id="-YqU8lc6YnFRLqplRP0o-45" value="+ LidarType: 结构体，表示激光类型" style="text;align=left;verticalAlign=top;spacingLeft=4;spacingRight=4;overflow=hidden;rotatable=0;points=[[0,0.5],[1,0.5]];portConstraint=eastwest;" vertex="1" parent="-YqU8lc6YnFRLqplRP0o-44">
          <mxGeometry y="26" width="370" height="26" as="geometry" />
        </mxCell>
        <mxCell id="-YqU8lc6YnFRLqplRP0o-73" value="- cloud_out_: 输出pcl格式点云" style="text;align=left;verticalAlign=top;spacingLeft=4;spacingRight=4;overflow=hidden;rotatable=0;points=[[0,0.5],[1,0.5]];portConstraint=eastwest;" vertex="1" parent="-YqU8lc6YnFRLqplRP0o-44">
          <mxGeometry y="52" width="370" height="26" as="geometry" />
        </mxCell>
        <mxCell id="-YqU8lc6YnFRLqplRP0o-46" value="- point_filter_num_: 跳点" style="text;align=left;verticalAlign=top;spacingLeft=4;spacingRight=4;overflow=hidden;rotatable=0;points=[[0,0.5],[1,0.5]];portConstraint=eastwest;" vertex="1" parent="-YqU8lc6YnFRLqplRP0o-44">
          <mxGeometry y="78" width="370" height="26" as="geometry" />
        </mxCell>
        <mxCell id="-YqU8lc6YnFRLqplRP0o-47" value="- blind: 需过滤的盲区范围" style="text;align=left;verticalAlign=top;spacingLeft=4;spacingRight=4;overflow=hidden;rotatable=0;points=[[0,0.5],[1,0.5]];portConstraint=eastwest;" vertex="1" parent="-YqU8lc6YnFRLqplRP0o-44">
          <mxGeometry y="104" width="370" height="26" as="geometry" />
        </mxCell>
        <mxCell id="-YqU8lc6YnFRLqplRP0o-48" value="- timespan_: 一帧激光扫描时间 " style="text;align=left;verticalAlign=top;spacingLeft=4;spacingRight=4;overflow=hidden;rotatable=0;points=[[0,0.5],[1,0.5]];portConstraint=eastwest;rounded=0;shadow=0;html=0;" vertex="1" parent="-YqU8lc6YnFRLqplRP0o-44">
          <mxGeometry y="130" width="370" height="26" as="geometry" />
        </mxCell>
        <mxCell id="-YqU8lc6YnFRLqplRP0o-50" value="" style="line;html=1;strokeWidth=1;align=left;verticalAlign=middle;spacingTop=-1;spacingLeft=3;spacingRight=3;rotatable=0;labelPosition=right;points=[];portConstraint=eastwest;" vertex="1" parent="-YqU8lc6YnFRLqplRP0o-44">
          <mxGeometry y="156" width="370" height="8" as="geometry" />
        </mxCell>
        <mxCell id="-YqU8lc6YnFRLqplRP0o-51" value="+ Process(): 处理订阅的点云消息的总接口(对应不同类型的lidar) " style="text;align=left;verticalAlign=top;spacingLeft=4;spacingRight=4;overflow=hidden;rotatable=0;points=[[0,0.5],[1,0.5]];portConstraint=eastwest;" vertex="1" parent="-YqU8lc6YnFRLqplRP0o-44">
          <mxGeometry y="164" width="370" height="26" as="geometry" />
        </mxCell>
        <mxCell id="-YqU8lc6YnFRLqplRP0o-52" value="+ LoadFromYAML(): 读取yaml，初始化参数" style="text;align=left;verticalAlign=top;spacingLeft=4;spacingRight=4;overflow=hidden;rotatable=0;points=[[0,0.5],[1,0.5]];portConstraint=eastwest;" vertex="1" parent="-YqU8lc6YnFRLqplRP0o-44">
          <mxGeometry y="190" width="370" height="30" as="geometry" />
        </mxCell>
        <mxCell id="-YqU8lc6YnFRLqplRP0o-53" value="+ getTimeSpan(): 得到一帧激光扫描时间" style="text;align=left;verticalAlign=top;spacingLeft=4;spacingRight=4;overflow=hidden;rotatable=0;points=[[0,0.5],[1,0.5]];portConstraint=eastwest;" vertex="1" parent="-YqU8lc6YnFRLqplRP0o-44">
          <mxGeometry y="220" width="370" height="30" as="geometry" />
        </mxCell>
        <mxCell id="-YqU8lc6YnFRLqplRP0o-54" value="- UtoLidarHandler(): 处理uto格式的点云消息，过滤无效点，范围以&#xa;                                 外的点，转成pcl点云格式cloud_out_" style="text;align=left;verticalAlign=top;spacingLeft=4;spacingRight=4;overflow=hidden;rotatable=0;points=[[0,0.5],[1,0.5]];portConstraint=eastwest;" vertex="1" parent="-YqU8lc6YnFRLqplRP0o-44">
          <mxGeometry y="250" width="370" height="40" as="geometry" />
        </mxCell>
        <mxCell id="-YqU8lc6YnFRLqplRP0o-77" value="" style="edgeStyle=orthogonalEdgeStyle;rounded=0;orthogonalLoop=1;jettySize=auto;html=1;" edge="1" parent="WIyWlLk6GJQsqaUBKTNV-1" source="-YqU8lc6YnFRLqplRP0o-74" target="-YqU8lc6YnFRLqplRP0o-76">
          <mxGeometry relative="1" as="geometry" />
        </mxCell>
        <mxCell id="-YqU8lc6YnFRLqplRP0o-74" value="订阅激光消息" style="whiteSpace=wrap;html=1;" vertex="1" parent="WIyWlLk6GJQsqaUBKTNV-1">
          <mxGeometry x="670" y="750" width="120" height="30" as="geometry" />
        </mxCell>
        <mxCell id="-YqU8lc6YnFRLqplRP0o-80" value="" style="edgeStyle=orthogonalEdgeStyle;rounded=0;orthogonalLoop=1;jettySize=auto;html=1;" edge="1" parent="WIyWlLk6GJQsqaUBKTNV-1" source="-YqU8lc6YnFRLqplRP0o-76" target="-YqU8lc6YnFRLqplRP0o-79">
          <mxGeometry relative="1" as="geometry" />
        </mxCell>
        <mxCell id="-YqU8lc6YnFRLqplRP0o-76" value="创建另一个线程，调用lidarodom::run&lt;br&gt;&lt;pre style=&quot;background-color: rgb(43, 43, 43); color: rgb(169, 183, 198); font-family: &amp;quot;JetBrains Mono&amp;quot;, monospace; font-size: 11px;&quot;&gt;std::&lt;span style=&quot;color:#b5b6e3;&quot;&gt;thread &lt;/span&gt;measurement_process(&amp;amp;&lt;span style=&quot;color:#b5b6e3;&quot;&gt;zjloc&lt;/span&gt;::&lt;span style=&quot;color:#b5b6e3;&quot;&gt;lidarodom&lt;/span&gt;::run&lt;span style=&quot;color:#cc7832;&quot;&gt;, &lt;/span&gt;lio)&lt;/pre&gt;" style="whiteSpace=wrap;html=1;" vertex="1" parent="WIyWlLk6GJQsqaUBKTNV-1">
          <mxGeometry x="523.75" y="810" width="412.5" height="60" as="geometry" />
        </mxCell>
        <mxCell id="-YqU8lc6YnFRLqplRP0o-78" style="edgeStyle=orthogonalEdgeStyle;rounded=0;orthogonalLoop=1;jettySize=auto;html=1;entryX=0;entryY=0.5;entryDx=0;entryDy=0;" edge="1" parent="WIyWlLk6GJQsqaUBKTNV-1" source="-YqU8lc6YnFRLqplRP0o-3" target="-YqU8lc6YnFRLqplRP0o-76">
          <mxGeometry relative="1" as="geometry" />
        </mxCell>
        <mxCell id="-YqU8lc6YnFRLqplRP0o-79" value="保存地图、打印log，程序运行完毕" style="whiteSpace=wrap;html=1;" vertex="1" parent="WIyWlLk6GJQsqaUBKTNV-1">
          <mxGeometry x="670" y="900" width="120" height="60" as="geometry" />
        </mxCell>
        <mxCell id="-YqU8lc6YnFRLqplRP0o-85" value="" style="edgeStyle=orthogonalEdgeStyle;rounded=0;orthogonalLoop=1;jettySize=auto;html=1;" edge="1" parent="WIyWlLk6GJQsqaUBKTNV-1" source="-YqU8lc6YnFRLqplRP0o-83" target="-YqU8lc6YnFRLqplRP0o-84">
          <mxGeometry relative="1" as="geometry" />
        </mxCell>
        <mxCell id="-YqU8lc6YnFRLqplRP0o-83" value="&lt;pre style=&quot;background-color:#2b2b2b;color:#a9b7c6;font-family:&#39;JetBrains Mono&#39;,monospace;font-size:12.0pt;&quot;&gt;void &lt;span style=&quot;color:#b5b6e3;&quot;&gt;lidarodom&lt;/span&gt;::&lt;span style=&quot;color:#ffc66d;&quot;&gt;run&lt;/span&gt;()&lt;/pre&gt;" style="text;html=1;align=center;verticalAlign=middle;resizable=0;points=[];autosize=1;strokeColor=none;fillColor=none;" vertex="1" parent="WIyWlLk6GJQsqaUBKTNV-1">
          <mxGeometry x="1080" y="360" width="230" height="60" as="geometry" />
        </mxCell>
        <mxCell id="-YqU8lc6YnFRLqplRP0o-84" value="加锁，当该线程被唤醒时，" style="whiteSpace=wrap;html=1;" vertex="1" parent="WIyWlLk6GJQsqaUBKTNV-1">
          <mxGeometry x="1135" y="420" width="120" height="60" as="geometry" />
        </mxCell>
      </root>
    </mxGraphModel>
  </diagram>
</mxfile>
